STARTFONT 2.1
COMMENT
COMMENT Converted from OpenType font "HackNerdFont-Regular.ttf" by "otf2bdf 3.0".
COMMENT
FONT -FreeType-Hack Nerd Font-Medium-R-Normal--12-120-72-72-C-86-ISO10646-1
SIZE 12 72 72
FONTBOUNDINGBOX 21 16 -6 -4
STARTPROPERTIES 19
FOUNDRY "FreeType"
FAMILY_NAME "Hack Nerd Font"
WEIGHT_NAME "Medium"
SLANT "R"
SETWIDTH_NAME "Normal"
ADD_STYLE_NAME ""
PIXEL_SIZE 12
POINT_SIZE 120
RESOLUTION_X 72
RESOLUTION_Y 72
SPACING "C"
AVERAGE_WIDTH 80
CHARSET_REGISTRY "ISO10646"
CHARSET_ENCODING "1"
FONT_ASCENT 11
FONT_DESCENT 2
COPYRIGHT "Copyright (c) 2018 Source Foundry Authors / Copyright (c) 2003 by Bitstream, Inc. All Rights Reserved."
_OTF_FONTFILE "HackNerdFont-Regular.ttf"
_OTF_PSNAME "HackNF-Regular"
ENDPROPERTIES
CHARS 3869
STARTCHAR 0000
ENCODING 0
SWIDTH 0 0
DWIDTH 0 0
BBX 0 0 0 0
BITMAP
ENDCHAR
STARTCHAR 000D
ENCODING 13
SWIDTH 583 0
DWIDTH 7 0
BBX 0 0 0 0
BITMAP
ENDCHAR
STARTCHAR 0020
ENCODING 32
SWIDTH 583 0
DWIDTH 7 0
BBX 0 0 0 0
BITMAP
ENDCHAR
STARTCHAR 0021
ENCODING 33
SWIDTH 583 0
DWIDTH 7 0
BBX 2 9 3 0
BITMAP
80
80
80
80
80
80
00
C0
80
ENDCHAR
STARTCHAR 0022
ENCODING 34
SWIDTH 583 0
DWIDTH 7 0
BBX 3 3 2 6
BITMAP
A0
A0
A0
ENDCHAR
STARTCHAR 0023
ENCODING 35
SWIDTH 583 0
DWIDTH 7 0
BBX 7 9 0 0
BITMAP
14
14
14
7E
28
28
FE
48
50
ENDCHAR
STARTCHAR 0024
ENCODING 36
SWIDTH 583 0
DWIDTH 7 0
BBX 6 12 1 -2
BITMAP
20
30
E8
A0
E0
70
28
2C
A8
F8
20
20
ENDCHAR
STARTCHAR 0025
ENCODING 37
SWIDTH 583 0
DWIDTH 7 0
BBX 7 9 0 0
BITMAP
60
90
90
66
38
CC
12
12
0C
ENDCHAR
STARTCHAR 0026
ENCODING 38
SWIDTH 583 0
DWIDTH 7 0
BBX 7 9 0 0
BITMAP
38
60
20
20
52
8A
8E
44
3A
ENDCHAR
STARTCHAR 0027
ENCODING 39
SWIDTH 583 0
DWIDTH 7 0
BBX 1 3 3 6
BITMAP
80
80
80
ENDCHAR
STARTCHAR 0028
ENCODING 40
SWIDTH 583 0
DWIDTH 7 0
BBX 2 11 2 -1
BITMAP
40
40
80
80
80
80
80
80
80
40
40
ENDCHAR
STARTCHAR 0029
ENCODING 41
SWIDTH 583 0
DWIDTH 7 0
BBX 2 11 3 -1
BITMAP
80
40
40
40
40
40
40
40
40
40
80
ENDCHAR
STARTCHAR 002A
ENCODING 42
SWIDTH 583 0
DWIDTH 7 0
BBX 5 6 1 3
BITMAP
20
20
F8
20
50
C8
ENDCHAR
STARTCHAR 002B
ENCODING 43
SWIDTH 583 0
DWIDTH 7 0
BBX 6 7 1 1
BITMAP
20
20
20
FC
20
20
20
ENDCHAR
STARTCHAR 002C
ENCODING 44
SWIDTH 583 0
DWIDTH 7 0
BBX 3 5 2 -3
BITMAP
40
60
20
40
80
ENDCHAR
STARTCHAR 002D
ENCODING 45
SWIDTH 583 0
DWIDTH 7 0
BBX 5 1 1 3
BITMAP
F8
ENDCHAR
STARTCHAR 002E
ENCODING 46
SWIDTH 583 0
DWIDTH 7 0
BBX 2 2 3 0
BITMAP
C0
80
ENDCHAR
STARTCHAR 002F
ENCODING 47
SWIDTH 583 0
DWIDTH 7 0
BBX 5 10 1 -1
BITMAP
08
08
10
10
20
20
40
40
80
80
ENDCHAR
STARTCHAR 0030
ENCODING 48
SWIDTH 583 0
DWIDTH 7 0
BBX 5 9 1 0
BITMAP
70
C8
A8
A8
A8
A8
A8
C8
70
ENDCHAR
STARTCHAR 0031
ENCODING 49
SWIDTH 583 0
DWIDTH 7 0
BBX 5 9 1 0
BITMAP
30
70
F0
30
30
30
30
30
78
ENDCHAR
STARTCHAR 0032
ENCODING 50
SWIDTH 583 0
DWIDTH 7 0
BBX 5 9 1 0
BITMAP
F0
88
08
08
10
30
60
C0
F8
ENDCHAR
STARTCHAR 0033
ENCODING 51
SWIDTH 583 0
DWIDTH 7 0
BBX 5 9 1 0
BITMAP
F0
08
08
70
08
08
08
88
F0
ENDCHAR
STARTCHAR 0034
ENCODING 52
SWIDTH 583 0
DWIDTH 7 0
BBX 6 9 1 0
BITMAP
10
30
30
50
90
90
FC
10
10
ENDCHAR
STARTCHAR 0035
ENCODING 53
SWIDTH 583 0
DWIDTH 7 0
BBX 5 9 1 0
BITMAP
F8
80
80
F0
08
08
08
88
F0
ENDCHAR
STARTCHAR 0036
ENCODING 54
SWIDTH 583 0
DWIDTH 7 0
BBX 5 9 1 0
BITMAP
78
C0
80
F0
C8
88
88
C8
70
ENDCHAR
STARTCHAR 0037
ENCODING 55
SWIDTH 583 0
DWIDTH 7 0
BBX 5 9 1 0
BITMAP
F8
08
18
10
10
20
20
20
40
ENDCHAR
STARTCHAR 0038
ENCODING 56
SWIDTH 583 0
DWIDTH 7 0
BBX 5 9 1 0
BITMAP
70
88
88
88
70
88
88
88
78
ENDCHAR
STARTCHAR 0039
ENCODING 57
SWIDTH 583 0
DWIDTH 7 0
BBX 5 9 1 0
BITMAP
70
88
88
88
88
78
08
18
F0
ENDCHAR
STARTCHAR 003A
ENCODING 58
SWIDTH 583 0
DWIDTH 7 0
BBX 2 6 3 1
BITMAP
80
C0
00
00
80
C0
ENDCHAR
STARTCHAR 003B
ENCODING 59
SWIDTH 583 0
DWIDTH 7 0
BBX 3 9 2 -3
BITMAP
60
40
00
00
40
60
20
40
80
ENDCHAR
STARTCHAR 003C
ENCODING 60
SWIDTH 583 0
DWIDTH 7 0
BBX 6 6 1 1
BITMAP
04
18
E0
80
70
0C
ENDCHAR
STARTCHAR 003D
ENCODING 61
SWIDTH 583 0
DWIDTH 7 0
BBX 6 4 1 2
BITMAP
FC
00
00
FC
ENDCHAR
STARTCHAR 003E
ENCODING 62
SWIDTH 583 0
DWIDTH 7 0
BBX 6 6 1 1
BITMAP
80
E0
18
0C
70
80
ENDCHAR
STARTCHAR 003F
ENCODING 63
SWIDTH 583 0
DWIDTH 7 0
BBX 5 9 1 0
BITMAP
70
88
08
10
20
20
00
20
20
ENDCHAR
STARTCHAR 0040
ENCODING 64
SWIDTH 583 0
DWIDTH 7 0
BBX 7 11 0 -2
BITMAP
3C
66
42
9E
92
A2
92
9E
40
60
1C
ENDCHAR
STARTCHAR 0041
ENCODING 65
SWIDTH 583 0
DWIDTH 7 0
BBX 7 9 0 0
BITMAP
10
38
28
28
2C
44
7C
46
C2
ENDCHAR
STARTCHAR 0042
ENCODING 66
SWIDTH 583 0
DWIDTH 7 0
BBX 6 9 1 0
BITMAP
F0
88
88
88
F0
88
8C
8C
F8
ENDCHAR
STARTCHAR 0043
ENCODING 67
SWIDTH 583 0
DWIDTH 7 0
BBX 5 9 1 0
BITMAP
38
48
80
80
80
80
80
48
78
ENDCHAR
STARTCHAR 0044
ENCODING 68
SWIDTH 583 0
DWIDTH 7 0
BBX 5 9 1 0
BITMAP
F0
98
88
88
88
88
88
98
F0
ENDCHAR
STARTCHAR 0045
ENCODING 69
SWIDTH 583 0
DWIDTH 7 0
BBX 5 9 1 0
BITMAP
F8
80
80
80
F8
80
80
80
F8
ENDCHAR
STARTCHAR 0046
ENCODING 70
SWIDTH 583 0
DWIDTH 7 0
BBX 6 9 1 0
BITMAP
FC
C0
C0
C0
F8
C0
C0
C0
C0
ENDCHAR
STARTCHAR 0047
ENCODING 71
SWIDTH 583 0
DWIDTH 7 0
BBX 5 9 1 0
BITMAP
78
C8
80
80
98
88
88
C8
78
ENDCHAR
STARTCHAR 0048
ENCODING 72
SWIDTH 583 0
DWIDTH 7 0
BBX 5 9 1 0
BITMAP
88
88
88
88
F8
88
88
88
88
ENDCHAR
STARTCHAR 0049
ENCODING 73
SWIDTH 583 0
DWIDTH 7 0
BBX 5 9 1 0
BITMAP
F8
20
20
20
20
20
20
20
F8
ENDCHAR
STARTCHAR 004A
ENCODING 74
SWIDTH 583 0
DWIDTH 7 0
BBX 5 9 1 0
BITMAP
78
18
18
18
18
18
18
90
F0
ENDCHAR
STARTCHAR 004B
ENCODING 75
SWIDTH 583 0
DWIDTH 7 0
BBX 6 9 1 0
BITMAP
8C
98
B0
E0
E0
90
98
88
8C
ENDCHAR
STARTCHAR 004C
ENCODING 76
SWIDTH 583 0
DWIDTH 7 0
BBX 6 9 1 0
BITMAP
80
80
80
80
80
80
80
80
FC
ENDCHAR
STARTCHAR 004D
ENCODING 77
SWIDTH 583 0
DWIDTH 7 0
BBX 7 9 0 0
BITMAP
C6
E6
EA
EA
D2
D2
C2
C2
C2
ENDCHAR
STARTCHAR 004E
ENCODING 78
SWIDTH 583 0
DWIDTH 7 0
BBX 5 9 1 0
BITMAP
C8
C8
C8
A8
A8
98
98
98
88
ENDCHAR
STARTCHAR 004F
ENCODING 79
SWIDTH 583 0
DWIDTH 7 0
BBX 6 9 1 0
BITMAP
70
88
88
8C
8C
8C
88
88
70
ENDCHAR
STARTCHAR 0050
ENCODING 80
SWIDTH 583 0
DWIDTH 7 0
BBX 6 9 1 0
BITMAP
F8
88
8C
88
F8
80
80
80
80
ENDCHAR
STARTCHAR 0051
ENCODING 81
SWIDTH 583 0
DWIDTH 7 0
BBX 6 11 1 -2
BITMAP
70
88
88
8C
8C
8C
88
88
70
18
0C
ENDCHAR
STARTCHAR 0052
ENCODING 82
SWIDTH 583 0
DWIDTH 7 0
BBX 6 9 1 0
BITMAP
F0
88
88
88
F0
98
88
8C
84
ENDCHAR
STARTCHAR 0053
ENCODING 83
SWIDTH 583 0
DWIDTH 7 0
BBX 5 9 1 0
BITMAP
78
88
80
C0
78
08
08
88
F0
ENDCHAR
STARTCHAR 0054
ENCODING 84
SWIDTH 583 0
DWIDTH 7 0
BBX 7 9 0 0
BITMAP
FE
10
10
10
10
10
10
10
10
ENDCHAR
STARTCHAR 0055
ENCODING 85
SWIDTH 583 0
DWIDTH 7 0
BBX 5 9 1 0
BITMAP
88
88
88
88
88
88
88
88
70
ENDCHAR
STARTCHAR 0056
ENCODING 86
SWIDTH 583 0
DWIDTH 7 0
BBX 7 9 0 0
BITMAP
C2
44
44
44
24
28
28
28
10
ENDCHAR
STARTCHAR 0057
ENCODING 87
SWIDTH 583 0
DWIDTH 7 0
BBX 7 9 0 0
BITMAP
82
82
92
5A
6A
6C
6C
6C
64
ENDCHAR
STARTCHAR 0058
ENCODING 88
SWIDTH 583 0
DWIDTH 7 0
BBX 7 9 0 0
BITMAP
C6
64
28
18
10
28
2C
44
C2
ENDCHAR
STARTCHAR 0059
ENCODING 89
SWIDTH 583 0
DWIDTH 7 0
BBX 7 9 0 0
BITMAP
C6
44
2C
28
10
10
10
10
10
ENDCHAR
STARTCHAR 005A
ENCODING 90
SWIDTH 583 0
DWIDTH 7 0
BBX 6 9 1 0
BITMAP
F8
08
10
10
20
40
40
80
FC
ENDCHAR
STARTCHAR 005B
ENCODING 91
SWIDTH 583 0
DWIDTH 7 0
BBX 4 12 2 -2
BITMAP
F0
80
80
80
80
80
80
80
80
80
80
F0
ENDCHAR
STARTCHAR 005C
ENCODING 92
SWIDTH 583 0
DWIDTH 7 0
BBX 5 10 1 -1
BITMAP
80
C0
40
40
20
20
10
10
08
08
ENDCHAR
STARTCHAR 005D
ENCODING 93
SWIDTH 583 0
DWIDTH 7 0
BBX 3 12 2 -2
BITMAP
E0
20
20
20
20
20
20
20
20
20
20
E0
ENDCHAR
STARTCHAR 005E
ENCODING 94
SWIDTH 583 0
DWIDTH 7 0
BBX 7 4 0 6
BITMAP
10
38
2C
C6
ENDCHAR
STARTCHAR 005F
ENCODING 95
SWIDTH 583 0
DWIDTH 7 0
BBX 6 1 1 -2
BITMAP
FC
ENDCHAR
STARTCHAR 0060
ENCODING 96
SWIDTH 583 0
DWIDTH 7 0
BBX 2 3 2 8
BITMAP
80
80
40
ENDCHAR
STARTCHAR 0061
ENCODING 97
SWIDTH 583 0
DWIDTH 7 0
BBX 6 7 1 0
BITMAP
F0
08
78
88
88
98
7C
ENDCHAR
STARTCHAR 0062
ENCODING 98
SWIDTH 583 0
DWIDTH 7 0
BBX 6 10 1 0
BITMAP
80
80
80
B0
C8
88
8C
88
C8
B0
ENDCHAR
STARTCHAR 0063
ENCODING 99
SWIDTH 583 0
DWIDTH 7 0
BBX 5 7 1 0
BITMAP
78
C8
80
80
80
C8
78
ENDCHAR
STARTCHAR 0064
ENCODING 100
SWIDTH 583 0
DWIDTH 7 0
BBX 5 10 1 0
BITMAP
08
08
08
78
88
88
88
88
88
78
ENDCHAR
STARTCHAR 0065
ENCODING 101
SWIDTH 583 0
DWIDTH 7 0
BBX 6 7 1 0
BITMAP
70
88
88
FC
80
84
78
ENDCHAR
STARTCHAR 0066
ENCODING 102
SWIDTH 583 0
DWIDTH 7 0
BBX 5 10 1 0
BITMAP
38
20
20
F8
20
20
20
20
20
20
ENDCHAR
STARTCHAR 0067
ENCODING 103
SWIDTH 583 0
DWIDTH 7 0
BBX 5 10 1 -3
BITMAP
78
88
88
88
88
C8
78
08
88
70
ENDCHAR
STARTCHAR 0068
ENCODING 104
SWIDTH 583 0
DWIDTH 7 0
BBX 5 10 1 0
BITMAP
80
80
80
B8
C8
88
88
88
88
88
ENDCHAR
STARTCHAR 0069
ENCODING 105
SWIDTH 583 0
DWIDTH 7 0
BBX 4 10 2 0
BITMAP
40
00
00
C0
40
40
40
40
40
30
ENDCHAR
STARTCHAR 006A
ENCODING 106
SWIDTH 583 0
DWIDTH 7 0
BBX 4 13 1 -3
BITMAP
10
00
00
70
10
10
10
10
10
10
10
10
E0
ENDCHAR
STARTCHAR 006B
ENCODING 107
SWIDTH 583 0
DWIDTH 7 0
BBX 6 10 1 0
BITMAP
80
80
80
8C
90
A0
F0
90
88
8C
ENDCHAR
STARTCHAR 006C
ENCODING 108
SWIDTH 583 0
DWIDTH 7 0
BBX 5 10 1 0
BITMAP
E0
20
20
20
20
20
20
20
20
38
ENDCHAR
STARTCHAR 006D
ENCODING 109
SWIDTH 583 0
DWIDTH 7 0
BBX 6 7 1 0
BITMAP
F8
A4
A4
A4
A4
A4
A4
ENDCHAR
STARTCHAR 006E
ENCODING 110
SWIDTH 583 0
DWIDTH 7 0
BBX 5 7 1 0
BITMAP
B0
C8
88
88
88
88
88
ENDCHAR
STARTCHAR 006F
ENCODING 111
SWIDTH 583 0
DWIDTH 7 0
BBX 5 7 1 0
BITMAP
70
88
88
88
88
88
70
ENDCHAR
STARTCHAR 0070
ENCODING 112
SWIDTH 583 0
DWIDTH 7 0
BBX 6 10 1 -3
BITMAP
B0
C8
88
8C
88
C8
B0
80
80
80
ENDCHAR
STARTCHAR 0071
ENCODING 113
SWIDTH 583 0
DWIDTH 7 0
BBX 5 10 1 -3
BITMAP
78
88
88
88
88
88
78
08
08
08
ENDCHAR
STARTCHAR 0072
ENCODING 114
SWIDTH 583 0
DWIDTH 7 0
BBX 4 7 2 0
BITMAP
F0
90
80
80
80
80
80
ENDCHAR
STARTCHAR 0073
ENCODING 115
SWIDTH 583 0
DWIDTH 7 0
BBX 5 7 1 0
BITMAP
78
88
C0
70
08
88
F0
ENDCHAR
STARTCHAR 0074
ENCODING 116
SWIDTH 583 0
DWIDTH 7 0
BBX 5 9 1 0
BITMAP
20
20
F8
20
20
20
20
20
38
ENDCHAR
STARTCHAR 0075
ENCODING 117
SWIDTH 583 0
DWIDTH 7 0
BBX 5 7 1 0
BITMAP
88
88
88
88
88
88
78
ENDCHAR
STARTCHAR 0076
ENCODING 118
SWIDTH 583 0
DWIDTH 7 0
BBX 6 7 1 0
BITMAP
8C
88
C8
50
50
50
20
ENDCHAR
STARTCHAR 0077
ENCODING 119
SWIDTH 583 0
DWIDTH 7 0
BBX 7 7 0 0
BITMAP
82
82
52
54
6C
6C
64
ENDCHAR
STARTCHAR 0078
ENCODING 120
SWIDTH 583 0
DWIDTH 7 0
BBX 7 7 0 0
BITMAP
46
2C
38
10
28
2C
C6
ENDCHAR
STARTCHAR 0079
ENCODING 121
SWIDTH 583 0
DWIDTH 7 0
BBX 6 10 1 -3
BITMAP
8C
88
C8
58
50
30
20
20
20
C0
ENDCHAR
STARTCHAR 007A
ENCODING 122
SWIDTH 583 0
DWIDTH 7 0
BBX 5 7 1 0
BITMAP
F8
08
10
20
60
40
F8
ENDCHAR
STARTCHAR 007B
ENCODING 123
SWIDTH 583 0
DWIDTH 7 0
BBX 5 12 1 -2
BITMAP
38
20
20
20
20
20
C0
20
20
20
20
38
ENDCHAR
STARTCHAR 007C
ENCODING 124
SWIDTH 583 0
DWIDTH 7 0
BBX 1 13 3 -3
BITMAP
80
80
80
80
80
80
80
80
80
80
80
80
80
ENDCHAR
STARTCHAR 007D
ENCODING 125
SWIDTH 583 0
DWIDTH 7 0
BBX 5 12 2 -2
BITMAP
C0
40
40
40
40
60
38
60
40
40
40
C0
ENDCHAR
STARTCHAR 007E
ENCODING 126
SWIDTH 583 0
DWIDTH 7 0
BBX 7 3 0 2
BITMAP
62
52
8C
ENDCHAR
STARTCHAR 00A0
ENCODING 160
SWIDTH 583 0
DWIDTH 7 0
BBX 0 0 0 0
BITMAP
ENDCHAR
STARTCHAR 00A1
ENCODING 161
SWIDTH 583 0
DWIDTH 7 0
BBX 2 9 3 0
BITMAP
80
C0
00
80
80
80
80
80
80
ENDCHAR
STARTCHAR 00A2
ENCODING 162
SWIDTH 583 0
DWIDTH 7 0
BBX 5 10 1 -1
BITMAP
10
10
38
58
D0
90
90
50
38
10
ENDCHAR
STARTCHAR 00A3
ENCODING 163
SWIDTH 583 0
DWIDTH 7 0
BBX 6 9 1 0
BITMAP
38
60
40
40
F8
40
40
40
FC
ENDCHAR
STARTCHAR 00A4
ENCODING 164
SWIDTH 583 0
DWIDTH 7 0
BBX 5 6 1 1
BITMAP
88
78
48
48
78
88
ENDCHAR
STARTCHAR 00A5
ENCODING 165
SWIDTH 583 0
DWIDTH 7 0
BBX 7 9 0 0
BITMAP
C6
44
28
6E
10
7E
10
10
10
ENDCHAR
STARTCHAR 00A6
ENCODING 166
SWIDTH 583 0
DWIDTH 7 0
BBX 1 11 3 -2
BITMAP
80
80
80
80
80
00
80
80
80
80
80
ENDCHAR
STARTCHAR 00A7
ENCODING 167
SWIDTH 583 0
DWIDTH 7 0
BBX 5 11 1 -2
BITMAP
70
48
40
60
98
88
68
30
18
18
70
ENDCHAR
STARTCHAR 00A8
ENCODING 168
SWIDTH 583 0
DWIDTH 7 0
BBX 3 1 2 8
BITMAP
A0
ENDCHAR
STARTCHAR 00A9
ENCODING 169
SWIDTH 583 0
DWIDTH 7 0
BBX 7 8 0 1
BITMAP
38
44
BA
A2
C2
A2
7C
38
ENDCHAR
STARTCHAR 00AA
ENCODING 170
SWIDTH 583 0
DWIDTH 7 0
BBX 4 7 2 3
BITMAP
E0
10
70
90
B0
D0
F0
ENDCHAR
STARTCHAR 00AB
ENCODING 171
SWIDTH 583 0
DWIDTH 7 0
BBX 6 5 0 1
BITMAP
24
68
90
68
24
ENDCHAR
STARTCHAR 00AC
ENCODING 172
SWIDTH 583 0
DWIDTH 7 0
BBX 6 3 1 2
BITMAP
FC
04
04
ENDCHAR
STARTCHAR 00AD
ENCODING 173
SWIDTH 583 0
DWIDTH 7 0
BBX 3 1 2 3
BITMAP
E0
ENDCHAR
STARTCHAR 00AE
ENCODING 174
SWIDTH 583 0
DWIDTH 7 0
BBX 7 8 0 1
BITMAP
38
44
BA
AA
BA
AA
44
38
ENDCHAR
STARTCHAR 00AF
ENCODING 175
SWIDTH 583 0
DWIDTH 7 0
BBX 3 1 2 8
BITMAP
E0
ENDCHAR
STARTCHAR 00B0
ENCODING 176
SWIDTH 583 0
DWIDTH 7 0
BBX 3 4 2 5
BITMAP
E0
A0
A0
E0
ENDCHAR
STARTCHAR 00B1
ENCODING 177
SWIDTH 583 0
DWIDTH 7 0
BBX 6 7 1 0
BITMAP
20
20
FC
20
20
00
FC
ENDCHAR
STARTCHAR 00B2
ENCODING 178
SWIDTH 583 0
DWIDTH 7 0
BBX 3 4 2 7
BITMAP
E0
20
40
E0
ENDCHAR
STARTCHAR 00B3
ENCODING 179
SWIDTH 583 0
DWIDTH 7 0
BBX 3 4 2 7
BITMAP
E0
40
20
E0
ENDCHAR
STARTCHAR 00B4
ENCODING 180
SWIDTH 583 0
DWIDTH 7 0
BBX 3 3 3 8
BITMAP
60
40
80
ENDCHAR
STARTCHAR 00B5
ENCODING 181
SWIDTH 583 0
DWIDTH 7 0
BBX 6 10 1 -3
BITMAP
88
88
88
88
88
88
FC
80
80
80
ENDCHAR
STARTCHAR 00B6
ENCODING 182
SWIDTH 583 0
DWIDTH 7 0
BBX 5 10 1 -1
BITMAP
78
E8
E8
E8
E8
28
28
28
28
28
ENDCHAR
STARTCHAR 00B7
ENCODING 183
SWIDTH 583 0
DWIDTH 7 0
BBX 2 2 3 4
BITMAP
C0
80
ENDCHAR
STARTCHAR 00B8
ENCODING 184
SWIDTH 583 0
DWIDTH 7 0
BBX 3 3 2 -3
BITMAP
40
20
C0
ENDCHAR
STARTCHAR 00B9
ENCODING 185
SWIDTH 583 0
DWIDTH 7 0
BBX 3 4 2 7
BITMAP
C0
40
40
E0
ENDCHAR
STARTCHAR 00BA
ENCODING 186
SWIDTH 583 0
DWIDTH 7 0
BBX 5 6 1 3
BITMAP
70
48
88
48
70
78
ENDCHAR
STARTCHAR 00BB
ENCODING 187
SWIDTH 583 0
DWIDTH 7 0
BBX 6 5 1 1
BITMAP
90
48
24
48
90
ENDCHAR
STARTCHAR 00BC
ENCODING 188
SWIDTH 583 0
DWIDTH 7 0
BBX 7 12 0 -2
BITMAP
E0
20
20
20
70
3E
C4
0C
14
14
1C
04
ENDCHAR
STARTCHAR 00BD
ENCODING 189
SWIDTH 583 0
DWIDTH 7 0
BBX 7 12 0 -2
BITMAP
E0
20
20
20
70
0E
70
9C
04
04
08
1C
ENDCHAR
STARTCHAR 00BE
ENCODING 190
SWIDTH 583 0
DWIDTH 7 0
BBX 7 12 0 -2
BITMAP
70
10
20
10
10
66
78
84
0C
14
1C
04
ENDCHAR
STARTCHAR 00BF
ENCODING 191
SWIDTH 583 0
DWIDTH 7 0
BBX 5 10 1 0
BITMAP
30
30
00
20
20
60
40
80
C8
78
ENDCHAR
STARTCHAR 00C0
ENCODING 192
SWIDTH 583 0
DWIDTH 7 0
BBX 7 12 0 0
BITMAP
20
10
10
10
38
28
28
2C
44
7C
46
C2
ENDCHAR
STARTCHAR 00C1
ENCODING 193
SWIDTH 583 0
DWIDTH 7 0
BBX 7 11 0 0
BITMAP
08
10
10
38
28
28
2C
44
7C
46
C2
ENDCHAR
STARTCHAR 00C2
ENCODING 194
SWIDTH 583 0
DWIDTH 7 0
BBX 7 11 0 0
BITMAP
18
20
10
38
28
28
2C
44
7C
46
C2
ENDCHAR
STARTCHAR 00C3
ENCODING 195
SWIDTH 583 0
DWIDTH 7 0
BBX 7 11 0 0
BITMAP
3C
00
10
38
28
28
2C
44
7C
46
C2
ENDCHAR
STARTCHAR 00C4
ENCODING 196
SWIDTH 583 0
DWIDTH 7 0
BBX 7 11 0 0
BITMAP
28
00
10
38
28
28
2C
44
7C
46
C2
ENDCHAR
STARTCHAR 00C5
ENCODING 197
SWIDTH 583 0
DWIDTH 7 0
BBX 7 11 0 0
BITMAP
38
28
38
18
28
28
2C
44
7C
46
C2
ENDCHAR
STARTCHAR 00C6
ENCODING 198
SWIDTH 583 0
DWIDTH 7 0
BBX 7 9 0 0
BITMAP
3E
28
28
68
4E
48
78
C8
8E
ENDCHAR
STARTCHAR 00C7
ENCODING 199
SWIDTH 583 0
DWIDTH 7 0
BBX 5 12 1 -3
BITMAP
38
48
80
80
80
80
80
C8
78
10
10
30
ENDCHAR
STARTCHAR 00C8
ENCODING 200
SWIDTH 583 0
DWIDTH 7 0
BBX 5 11 1 0
BITMAP
60
10
F8
80
80
80
F8
80
80
80
F8
ENDCHAR
STARTCHAR 00C9
ENCODING 201
SWIDTH 583 0
DWIDTH 7 0
BBX 5 11 1 0
BITMAP
10
20
F8
80
80
80
F8
80
80
80
F8
ENDCHAR
STARTCHAR 00CA
ENCODING 202
SWIDTH 583 0
DWIDTH 7 0
BBX 5 11 1 0
BITMAP
30
48
F8
80
80
80
F8
80
80
80
F8
ENDCHAR
STARTCHAR 00CB
ENCODING 203
SWIDTH 583 0
DWIDTH 7 0
BBX 5 11 1 0
BITMAP
50
00
F8
80
80
80
F8
80
80
80
F8
ENDCHAR
STARTCHAR 00CC
ENCODING 204
SWIDTH 583 0
DWIDTH 7 0
BBX 5 11 1 0
BITMAP
60
00
F8
20
20
20
20
20
20
20
F8
ENDCHAR
STARTCHAR 00CD
ENCODING 205
SWIDTH 583 0
DWIDTH 7 0
BBX 5 11 1 0
BITMAP
10
20
F8
20
20
20
20
20
20
20
F8
ENDCHAR
STARTCHAR 00CE
ENCODING 206
SWIDTH 583 0
DWIDTH 7 0
BBX 5 11 1 0
BITMAP
30
40
F8
20
20
20
20
20
20
20
F8
ENDCHAR
STARTCHAR 00CF
ENCODING 207
SWIDTH 583 0
DWIDTH 7 0
BBX 5 11 1 0
BITMAP
50
00
F8
20
20
20
20
20
20
20
F8
ENDCHAR
STARTCHAR 00D0
ENCODING 208
SWIDTH 583 0
DWIDTH 7 0
BBX 6 9 0 0
BITMAP
78
4C
44
44
F4
44
44
4C
78
ENDCHAR
STARTCHAR 00D1
ENCODING 209
SWIDTH 583 0
DWIDTH 7 0
BBX 5 11 1 0
BITMAP
78
00
C8
C8
C8
A8
A8
98
98
98
88
ENDCHAR
STARTCHAR 00D2
ENCODING 210
SWIDTH 583 0
DWIDTH 7 0
BBX 6 11 1 0
BITMAP
60
20
70
88
88
8C
8C
8C
88
88
70
ENDCHAR
STARTCHAR 00D3
ENCODING 211
SWIDTH 583 0
DWIDTH 7 0
BBX 6 11 1 0
BITMAP
10
20
70
88
88
8C
8C
8C
88
88
70
ENDCHAR
STARTCHAR 00D4
ENCODING 212
SWIDTH 583 0
DWIDTH 7 0
BBX 6 11 1 0
BITMAP
30
48
70
88
88
8C
8C
8C
88
88
70
ENDCHAR
STARTCHAR 00D5
ENCODING 213
SWIDTH 583 0
DWIDTH 7 0
BBX 6 11 1 0
BITMAP
78
00
70
88
88
8C
8C
8C
88
88
70
ENDCHAR
STARTCHAR 00D6
ENCODING 214
SWIDTH 583 0
DWIDTH 7 0
BBX 6 11 1 0
BITMAP
50
00
70
88
88
8C
8C
8C
88
88
70
ENDCHAR
STARTCHAR 00D7
ENCODING 215
SWIDTH 583 0
DWIDTH 7 0
BBX 5 6 1 1
BITMAP
88
C8
70
30
58
88
ENDCHAR
STARTCHAR 00D8
ENCODING 216
SWIDTH 583 0
DWIDTH 7 0
BBX 7 9 0 0
BITMAP
3A
44
44
4C
56
66
64
44
B8
ENDCHAR
STARTCHAR 00D9
ENCODING 217
SWIDTH 583 0
DWIDTH 7 0
BBX 5 11 1 0
BITMAP
60
00
88
88
88
88
88
88
88
88
70
ENDCHAR
STARTCHAR 00DA
ENCODING 218
SWIDTH 583 0
DWIDTH 7 0
BBX 5 11 1 0
BITMAP
10
20
88
88
88
88
88
88
88
88
70
ENDCHAR
STARTCHAR 00DB
ENCODING 219
SWIDTH 583 0
DWIDTH 7 0
BBX 5 11 1 0
BITMAP
30
40
88
88
88
88
88
88
88
88
70
ENDCHAR
STARTCHAR 00DC
ENCODING 220
SWIDTH 583 0
DWIDTH 7 0
BBX 5 11 1 0
BITMAP
50
00
88
88
88
88
88
88
88
88
70
ENDCHAR
STARTCHAR 00DD
ENCODING 221
SWIDTH 583 0
DWIDTH 7 0
BBX 7 11 0 0
BITMAP
08
10
C6
44
2C
28
10
10
10
10
10
ENDCHAR
STARTCHAR 00DE
ENCODING 222
SWIDTH 583 0
DWIDTH 7 0
BBX 6 9 1 0
BITMAP
80
80
F8
8C
84
8C
F8
80
80
ENDCHAR
STARTCHAR 00DF
ENCODING 223
SWIDTH 583 0
DWIDTH 7 0
BBX 6 10 1 0
BITMAP
70
88
98
A0
A0
B0
88
84
8C
B8
ENDCHAR
STARTCHAR 00E0
ENCODING 224
SWIDTH 583 0
DWIDTH 7 0
BBX 6 11 1 0
BITMAP
40
40
20
00
F0
08
78
88
88
98
7C
ENDCHAR
STARTCHAR 00E1
ENCODING 225
SWIDTH 583 0
DWIDTH 7 0
BBX 6 11 1 0
BITMAP
18
10
20
00
F0
08
78
88
88
98
7C
ENDCHAR
STARTCHAR 00E2
ENCODING 226
SWIDTH 583 0
DWIDTH 7 0
BBX 6 11 1 0
BITMAP
20
30
50
08
F0
08
78
88
88
98
7C
ENDCHAR
STARTCHAR 00E3
ENCODING 227
SWIDTH 583 0
DWIDTH 7 0
BBX 6 10 1 0
BITMAP
68
50
00
F0
08
78
88
88
98
7C
ENDCHAR
STARTCHAR 00E4
ENCODING 228
SWIDTH 583 0
DWIDTH 7 0
BBX 6 10 1 0
BITMAP
50
00
00
F0
08
78
88
88
98
7C
ENDCHAR
STARTCHAR 00E5
ENCODING 229
SWIDTH 583 0
DWIDTH 7 0
BBX 6 11 1 0
BITMAP
70
50
70
00
F0
08
78
88
88
98
7C
ENDCHAR
STARTCHAR 00E6
ENCODING 230
SWIDTH 583 0
DWIDTH 7 0
BBX 7 7 0 0
BITMAP
6C
12
12
7E
90
90
6E
ENDCHAR
STARTCHAR 00E7
ENCODING 231
SWIDTH 583 0
DWIDTH 7 0
BBX 5 10 1 -3
BITMAP
78
C8
80
80
80
C8
78
10
10
30
ENDCHAR
STARTCHAR 00E8
ENCODING 232
SWIDTH 583 0
DWIDTH 7 0
BBX 6 11 1 0
BITMAP
40
60
30
00
70
88
88
FC
80
84
78
ENDCHAR
STARTCHAR 00E9
ENCODING 233
SWIDTH 583 0
DWIDTH 7 0
BBX 6 11 1 0
BITMAP
08
10
20
00
70
88
88
FC
80
84
78
ENDCHAR
STARTCHAR 00EA
ENCODING 234
SWIDTH 583 0
DWIDTH 7 0
BBX 6 11 1 0
BITMAP
20
30
58
00
70
88
88
FC
80
84
78
ENDCHAR
STARTCHAR 00EB
ENCODING 235
SWIDTH 583 0
DWIDTH 7 0
BBX 6 10 1 0
BITMAP
50
00
00
70
88
88
FC
80
84
78
ENDCHAR
STARTCHAR 00EC
ENCODING 236
SWIDTH 583 0
DWIDTH 7 0
BBX 5 10 1 0
BITMAP
C0
20
00
60
20
20
20
20
20
18
ENDCHAR
STARTCHAR 00ED
ENCODING 237
SWIDTH 583 0
DWIDTH 7 0
BBX 4 10 2 0
BITMAP
30
40
00
C0
40
40
40
40
40
30
ENDCHAR
STARTCHAR 00EE
ENCODING 238
SWIDTH 583 0
DWIDTH 7 0
BBX 4 10 2 0
BITMAP
40
A0
00
C0
40
40
40
40
40
30
ENDCHAR
STARTCHAR 00EF
ENCODING 239
SWIDTH 583 0
DWIDTH 7 0
BBX 4 10 2 0
BITMAP
A0
00
00
C0
40
40
40
40
40
30
ENDCHAR
STARTCHAR 00F0
ENCODING 240
SWIDTH 583 0
DWIDTH 7 0
BBX 5 10 1 0
BITMAP
48
F0
10
78
88
88
88
88
88
70
ENDCHAR
STARTCHAR 00F1
ENCODING 241
SWIDTH 583 0
DWIDTH 7 0
BBX 5 10 1 0
BITMAP
68
50
00
B8
C8
88
88
88
88
88
ENDCHAR
STARTCHAR 00F2
ENCODING 242
SWIDTH 583 0
DWIDTH 7 0
BBX 5 11 1 0
BITMAP
40
40
20
00
70
88
88
88
88
88
70
ENDCHAR
STARTCHAR 00F3
ENCODING 243
SWIDTH 583 0
DWIDTH 7 0
BBX 5 11 1 0
BITMAP
18
10
20
00
70
88
88
88
88
88
70
ENDCHAR
STARTCHAR 00F4
ENCODING 244
SWIDTH 583 0
DWIDTH 7 0
BBX 5 11 1 0
BITMAP
20
30
50
00
70
88
88
88
88
88
70
ENDCHAR
STARTCHAR 00F5
ENCODING 245
SWIDTH 583 0
DWIDTH 7 0
BBX 5 10 1 0
BITMAP
68
50
00
70
88
88
88
88
88
70
ENDCHAR
STARTCHAR 00F6
ENCODING 246
SWIDTH 583 0
DWIDTH 7 0
BBX 5 10 1 0
BITMAP
50
00
00
70
88
88
88
88
88
70
ENDCHAR
STARTCHAR 00F7
ENCODING 247
SWIDTH 583 0
DWIDTH 7 0
BBX 6 5 1 2
BITMAP
20
00
FC
00
20
ENDCHAR
STARTCHAR 00F8
ENCODING 248
SWIDTH 583 0
DWIDTH 7 0
BBX 7 7 0 0
BITMAP
3A
44
4C
54
64
44
F8
ENDCHAR
STARTCHAR 00F9
ENCODING 249
SWIDTH 583 0
DWIDTH 7 0
BBX 5 10 1 0
BITMAP
40
20
00
88
88
88
88
88
88
78
ENDCHAR
STARTCHAR 00FA
ENCODING 250
SWIDTH 583 0
DWIDTH 7 0
BBX 5 10 1 0
BITMAP
18
20
00
88
88
88
88
88
88
78
ENDCHAR
STARTCHAR 00FB
ENCODING 251
SWIDTH 583 0
DWIDTH 7 0
BBX 5 10 1 0
BITMAP
20
50
00
88
88
88
88
88
88
78
ENDCHAR
STARTCHAR 00FC
ENCODING 252
SWIDTH 583 0
DWIDTH 7 0
BBX 5 10 1 0
BITMAP
50
00
00
88
88
88
88
88
88
78
ENDCHAR
STARTCHAR 00FD
ENCODING 253
SWIDTH 583 0
DWIDTH 7 0
BBX 6 13 1 -3
BITMAP
18
10
20
8C
88
C8
58
50
30
20
20
20
C0
ENDCHAR
STARTCHAR 00FE
ENCODING 254
SWIDTH 583 0
DWIDTH 7 0
BBX 6 13 1 -3
BITMAP
80
80
80
B0
C8
88
8C
88
C8
B0
80
80
80
ENDCHAR
STARTCHAR 00FF
ENCODING 255
SWIDTH 583 0
DWIDTH 7 0
BBX 6 12 1 -3
BITMAP
50
00
8C
88
C8
58
50
30
20
20
20
C0
ENDCHAR
STARTCHAR 0100
ENCODING 256
SWIDTH 583 0
DWIDTH 7 0
BBX 7 11 0 0
BITMAP
38
00
10
38
28
28
2C
44
7C
46
C2
ENDCHAR
STARTCHAR 0101
ENCODING 257
SWIDTH 583 0
DWIDTH 7 0
BBX 6 9 1 0
BITMAP
70
00
F0
08
78
88
88
98
7C
ENDCHAR
STARTCHAR 0102
ENCODING 258
SWIDTH 583 0
DWIDTH 7 0
BBX 7 12 0 0
BITMAP
24
38
00
10
38
28
28
2C
44
7C
46
C2
ENDCHAR
STARTCHAR 0103
ENCODING 259
SWIDTH 583 0
DWIDTH 7 0
BBX 6 10 1 0
BITMAP
48
70
00
F0
08
78
88
88
98
7C
ENDCHAR
STARTCHAR 0104
ENCODING 260
SWIDTH 583 0
DWIDTH 7 0
BBX 7 12 0 -3
BITMAP
10
38
28
28
2C
44
7C
46
C2
04
04
06
ENDCHAR
STARTCHAR 0105
ENCODING 261
SWIDTH 583 0
DWIDTH 7 0
BBX 6 10 1 -3
BITMAP
F0
88
08
78
88
88
F8
0C
08
0C
ENDCHAR
STARTCHAR 0106
ENCODING 262
SWIDTH 583 0
DWIDTH 7 0
BBX 5 11 1 0
BITMAP
18
20
78
48
80
80
80
80
80
48
78
ENDCHAR
STARTCHAR 0107
ENCODING 263
SWIDTH 583 0
DWIDTH 7 0
BBX 5 11 1 0
BITMAP
08
10
20
00
78
C8
80
80
80
C8
78
ENDCHAR
STARTCHAR 0108
ENCODING 264
SWIDTH 583 0
DWIDTH 7 0
BBX 5 11 1 0
BITMAP
30
48
78
48
80
80
80
80
80
48
78
ENDCHAR
STARTCHAR 0109
ENCODING 265
SWIDTH 583 0
DWIDTH 7 0
BBX 5 11 1 0
BITMAP
20
30
58
00
78
C8
80
80
80
C8
78
ENDCHAR
STARTCHAR 010A
ENCODING 266
SWIDTH 583 0
DWIDTH 7 0
BBX 5 11 1 0
BITMAP
30
00
78
48
80
80
80
80
80
48
78
ENDCHAR
STARTCHAR 010B
ENCODING 267
SWIDTH 583 0
DWIDTH 7 0
BBX 5 10 1 0
BITMAP
20
00
00
78
C8
80
80
80
C8
78
ENDCHAR
STARTCHAR 010C
ENCODING 268
SWIDTH 583 0
DWIDTH 7 0
BBX 5 11 1 0
BITMAP
68
10
78
48
80
80
80
80
80
48
78
ENDCHAR
STARTCHAR 010D
ENCODING 269
SWIDTH 583 0
DWIDTH 7 0
BBX 5 11 1 0
BITMAP
48
30
30
00
78
C8
80
80
80
C8
78
ENDCHAR
STARTCHAR 010E
ENCODING 270
SWIDTH 583 0
DWIDTH 7 0
BBX 5 11 1 0
BITMAP
D0
20
F0
98
88
88
88
88
88
98
F0
ENDCHAR
STARTCHAR 010F
ENCODING 271
SWIDTH 583 0
DWIDTH 7 0
BBX 7 10 1 0
BITMAP
0E
0C
08
68
98
88
88
88
98
68
ENDCHAR
STARTCHAR 0110
ENCODING 272
SWIDTH 583 0
DWIDTH 7 0
BBX 6 9 0 0
BITMAP
78
4C
44
44
F4
44
44
4C
78
ENDCHAR
STARTCHAR 0111
ENCODING 273
SWIDTH 583 0
DWIDTH 7 0
BBX 6 10 1 0
BITMAP
08
3C
08
78
88
88
88
88
88
78
ENDCHAR
STARTCHAR 0112
ENCODING 274
SWIDTH 583 0
DWIDTH 7 0
BBX 5 11 1 0
BITMAP
70
00
F8
80
80
80
F8
80
80
80
F8
ENDCHAR
STARTCHAR 0113
ENCODING 275
SWIDTH 583 0
DWIDTH 7 0
BBX 6 9 1 0
BITMAP
78
00
70
88
88
FC
80
84
78
ENDCHAR
STARTCHAR 0114
ENCODING 276
SWIDTH 583 0
DWIDTH 7 0
BBX 5 11 1 0
BITMAP
78
00
F8
80
80
80
F8
80
80
80
F8
ENDCHAR
STARTCHAR 0115
ENCODING 277
SWIDTH 583 0
DWIDTH 7 0
BBX 6 10 1 0
BITMAP
48
30
00
70
88
88
FC
80
84
78
ENDCHAR
STARTCHAR 0116
ENCODING 278
SWIDTH 583 0
DWIDTH 7 0
BBX 5 11 1 0
BITMAP
20
00
F8
80
80
80
F8
80
80
80
F8
ENDCHAR
STARTCHAR 0117
ENCODING 279
SWIDTH 583 0
DWIDTH 7 0
BBX 6 10 1 0
BITMAP
20
00
00
70
88
88
FC
80
84
78
ENDCHAR
STARTCHAR 0118
ENCODING 280
SWIDTH 583 0
DWIDTH 7 0
BBX 5 12 1 -3
BITMAP
F8
80
80
80
F8
80
80
80
F8
10
10
18
ENDCHAR
STARTCHAR 0119
ENCODING 281
SWIDTH 583 0
DWIDTH 7 0
BBX 6 10 1 -3
BITMAP
70
C8
88
88
FC
80
78
10
10
18
ENDCHAR
STARTCHAR 011A
ENCODING 282
SWIDTH 583 0
DWIDTH 7 0
BBX 5 11 1 0
BITMAP
58
20
F8
80
80
80
F8
80
80
80
F8
ENDCHAR
STARTCHAR 011B
ENCODING 283
SWIDTH 583 0
DWIDTH 7 0
BBX 6 11 1 0
BITMAP
48
50
30
00
70
C8
88
FC
80
84
78
ENDCHAR
STARTCHAR 011C
ENCODING 284
SWIDTH 583 0
DWIDTH 7 0
BBX 5 11 1 0
BITMAP
30
48
78
C8
80
80
98
88
88
C8
78
ENDCHAR
STARTCHAR 011D
ENCODING 285
SWIDTH 583 0
DWIDTH 7 0
BBX 5 13 1 -3
BITMAP
30
50
48
78
88
88
88
88
C8
78
08
88
70
ENDCHAR
STARTCHAR 011E
ENCODING 286
SWIDTH 583 0
DWIDTH 7 0
BBX 5 12 1 0
BITMAP
48
30
00
78
C8
80
80
98
88
88
C8
78
ENDCHAR
STARTCHAR 011F
ENCODING 287
SWIDTH 583 0
DWIDTH 7 0
BBX 5 13 1 -3
BITMAP
48
50
30
78
C8
88
88
88
C8
78
08
88
70
ENDCHAR
STARTCHAR 0120
ENCODING 288
SWIDTH 583 0
DWIDTH 7 0
BBX 5 11 1 0
BITMAP
30
00
78
C8
80
80
98
88
88
C8
78
ENDCHAR
STARTCHAR 0121
ENCODING 289
SWIDTH 583 0
DWIDTH 7 0
BBX 5 13 1 -3
BITMAP
20
00
00
78
C8
88
88
88
C8
78
08
88
70
ENDCHAR
STARTCHAR 0122
ENCODING 290
SWIDTH 583 0
DWIDTH 7 0
BBX 5 12 1 -3
BITMAP
78
C8
80
80
98
88
88
C8
78
00
10
20
ENDCHAR
STARTCHAR 0123
ENCODING 291
SWIDTH 583 0
DWIDTH 7 0
BBX 5 13 1 -3
BITMAP
10
30
00
78
C8
88
88
88
C8
78
08
88
70
ENDCHAR
STARTCHAR 0124
ENCODING 292
SWIDTH 583 0
DWIDTH 7 0
BBX 5 11 1 0
BITMAP
30
40
88
88
88
88
F8
88
88
88
88
ENDCHAR
STARTCHAR 0125
ENCODING 293
SWIDTH 583 0
DWIDTH 7 0
BBX 5 11 1 0
BITMAP
38
80
80
80
B8
C8
88
88
88
88
88
ENDCHAR
STARTCHAR 0126
ENCODING 294
SWIDTH 583 0
DWIDTH 7 0
BBX 7 9 0 0
BITMAP
44
FE
44
44
7C
44
44
44
44
ENDCHAR
STARTCHAR 0127
ENCODING 295
SWIDTH 583 0
DWIDTH 7 0
BBX 6 10 0 0
BITMAP
40
F0
40
5C
64
44
44
44
44
44
ENDCHAR
STARTCHAR 0128
ENCODING 296
SWIDTH 583 0
DWIDTH 7 0
BBX 5 11 1 0
BITMAP
78
00
F8
20
20
20
20
20
20
20
F8
ENDCHAR
STARTCHAR 0129
ENCODING 297
SWIDTH 583 0
DWIDTH 7 0
BBX 4 10 2 0
BITMAP
D0
E0
00
C0
40
40
40
40
40
30
ENDCHAR
STARTCHAR 012A
ENCODING 298
SWIDTH 583 0
DWIDTH 7 0
BBX 5 11 1 0
BITMAP
70
00
F8
20
20
20
20
20
20
20
F8
ENDCHAR
STARTCHAR 012B
ENCODING 299
SWIDTH 583 0
DWIDTH 7 0
BBX 4 9 2 0
BITMAP
E0
00
C0
40
40
40
40
40
30
ENDCHAR
STARTCHAR 012C
ENCODING 300
SWIDTH 583 0
DWIDTH 7 0
BBX 5 11 1 0
BITMAP
70
00
F8
20
20
20
20
20
20
20
F8
ENDCHAR
STARTCHAR 012D
ENCODING 301
SWIDTH 583 0
DWIDTH 7 0
BBX 4 10 2 0
BITMAP
A0
E0
00
C0
40
40
40
40
40
30
ENDCHAR
STARTCHAR 012E
ENCODING 302
SWIDTH 583 0
DWIDTH 7 0
BBX 5 12 1 -3
BITMAP
F8
20
20
20
20
20
20
20
F8
20
20
30
ENDCHAR
STARTCHAR 012F
ENCODING 303
SWIDTH 583 0
DWIDTH 7 0
BBX 4 13 2 -3
BITMAP
40
00
00
C0
40
40
40
40
40
30
20
20
30
ENDCHAR
STARTCHAR 0130
ENCODING 304
SWIDTH 583 0
DWIDTH 7 0
BBX 5 11 1 0
BITMAP
20
00
F8
20
20
20
20
20
20
20
F8
ENDCHAR
STARTCHAR 0131
ENCODING 305
SWIDTH 583 0
DWIDTH 7 0
BBX 4 7 2 0
BITMAP
C0
40
40
40
40
40
30
ENDCHAR
STARTCHAR 0132
ENCODING 306
SWIDTH 583 0
DWIDTH 7 0
BBX 5 9 1 0
BITMAP
B8
88
88
88
88
88
88
08
F8
ENDCHAR
STARTCHAR 0133
ENCODING 307
SWIDTH 583 0
DWIDTH 7 0
BBX 5 13 1 -3
BITMAP
88
00
00
98
88
88
88
88
88
88
08
08
78
ENDCHAR
STARTCHAR 0134
ENCODING 308
SWIDTH 583 0
DWIDTH 7 0
BBX 6 11 1 0
BITMAP
18
24
78
18
18
18
18
18
18
90
F0
ENDCHAR
STARTCHAR 0135
ENCODING 309
SWIDTH 583 0
DWIDTH 7 0
BBX 5 13 1 -3
BITMAP
10
28
48
70
10
10
10
10
10
10
10
10
E0
ENDCHAR
STARTCHAR 0136
ENCODING 310
SWIDTH 583 0
DWIDTH 7 0
BBX 6 12 1 -3
BITMAP
8C
98
B0
E0
E0
90
98
88
8C
00
30
20
ENDCHAR
STARTCHAR 0137
ENCODING 311
SWIDTH 583 0
DWIDTH 7 0
BBX 6 13 1 -3
BITMAP
80
80
80
8C
90
A0
F0
90
88
8C
00
10
20
ENDCHAR
STARTCHAR 0138
ENCODING 312
SWIDTH 583 0
DWIDTH 7 0
BBX 6 7 1 0
BITMAP
88
90
A0
E0
90
98
8C
ENDCHAR
STARTCHAR 0139
ENCODING 313
SWIDTH 583 0
DWIDTH 7 0
BBX 6 11 1 0
BITMAP
60
80
80
80
80
80
80
80
80
80
FC
ENDCHAR
STARTCHAR 013A
ENCODING 314
SWIDTH 583 0
DWIDTH 7 0
BBX 5 11 1 0
BITMAP
20
E0
20
20
20
20
20
20
20
20
38
ENDCHAR
STARTCHAR 013B
ENCODING 315
SWIDTH 583 0
DWIDTH 7 0
BBX 6 12 1 -3
BITMAP
80
80
80
80
80
80
80
80
FC
00
30
20
ENDCHAR
STARTCHAR 013C
ENCODING 316
SWIDTH 583 0
DWIDTH 7 0
BBX 5 13 1 -3
BITMAP
E0
20
20
20
20
20
20
20
20
38
00
20
60
ENDCHAR
STARTCHAR 013D
ENCODING 317
SWIDTH 583 0
DWIDTH 7 0
BBX 6 9 1 0
BITMAP
90
90
80
80
80
80
80
80
FC
ENDCHAR
STARTCHAR 013E
ENCODING 318
SWIDTH 583 0
DWIDTH 7 0
BBX 6 10 1 0
BITMAP
E4
28
20
20
20
20
20
20
20
38
ENDCHAR
STARTCHAR 013F
ENCODING 319
SWIDTH 583 0
DWIDTH 7 0
BBX 6 9 1 0
BITMAP
80
80
80
80
80
90
80
80
FC
ENDCHAR
STARTCHAR 0140
ENCODING 320
SWIDTH 583 0
DWIDTH 7 0
BBX 5 10 1 0
BITMAP
E0
20
20
20
20
20
28
20
20
38
ENDCHAR
STARTCHAR 0141
ENCODING 321
SWIDTH 583 0
DWIDTH 7 0
BBX 7 9 0 0
BITMAP
40
40
48
50
60
C0
40
40
7E
ENDCHAR
STARTCHAR 0142
ENCODING 322
SWIDTH 583 0
DWIDTH 7 0
BBX 6 10 0 0
BITMAP
70
10
14
18
10
70
D0
10
10
1C
ENDCHAR
STARTCHAR 0143
ENCODING 323
SWIDTH 583 0
DWIDTH 7 0
BBX 5 11 1 0
BITMAP
10
20
C8
C8
C8
A8
A8
98
98
98
88
ENDCHAR
STARTCHAR 0144
ENCODING 324
SWIDTH 583 0
DWIDTH 7 0
BBX 5 10 1 0
BITMAP
18
20
00
B8
C8
88
88
88
88
88
ENDCHAR
STARTCHAR 0145
ENCODING 325
SWIDTH 583 0
DWIDTH 7 0
BBX 5 12 1 -3
BITMAP
C8
C8
C8
A8
A8
98
98
98
88
00
30
20
ENDCHAR
STARTCHAR 0146
ENCODING 326
SWIDTH 583 0
DWIDTH 7 0
BBX 5 10 1 -3
BITMAP
B8
C8
88
88
88
88
88
00
30
20
ENDCHAR
STARTCHAR 0147
ENCODING 327
SWIDTH 583 0
DWIDTH 7 0
BBX 5 11 1 0
BITMAP
58
20
C8
C8
C8
A8
A8
98
98
98
88
ENDCHAR
STARTCHAR 0148
ENCODING 328
SWIDTH 583 0
DWIDTH 7 0
BBX 5 10 1 0
BITMAP
50
20
00
B8
C8
88
88
88
88
88
ENDCHAR
STARTCHAR 0149
ENCODING 329
SWIDTH 583 0
DWIDTH 7 0
BBX 7 10 0 0
BITMAP
40
40
C0
AE
32
22
22
22
22
22
ENDCHAR
STARTCHAR 014A
ENCODING 330
SWIDTH 583 0
DWIDTH 7 0
BBX 5 12 1 -3
BITMAP
B8
C8
88
88
88
88
88
88
88
08
08
38
ENDCHAR
STARTCHAR 014B
ENCODING 331
SWIDTH 583 0
DWIDTH 7 0
BBX 5 10 1 -3
BITMAP
B0
C8
88
88
88
88
88
08
08
30
ENDCHAR
STARTCHAR 014C
ENCODING 332
SWIDTH 583 0
DWIDTH 7 0
BBX 6 11 1 0
BITMAP
70
00
70
88
88
8C
8C
8C
88
88
70
ENDCHAR
STARTCHAR 014D
ENCODING 333
SWIDTH 583 0
DWIDTH 7 0
BBX 5 9 1 0
BITMAP
70
00
70
88
88
88
88
88
70
ENDCHAR
STARTCHAR 014E
ENCODING 334
SWIDTH 583 0
DWIDTH 7 0
BBX 6 12 1 0
BITMAP
48
70
00
70
88
88
8C
8C
8C
88
88
70
ENDCHAR
STARTCHAR 014F
ENCODING 335
SWIDTH 583 0
DWIDTH 7 0
BBX 5 10 1 0
BITMAP
50
70
00
70
88
88
88
88
88
70
ENDCHAR
STARTCHAR 0150
ENCODING 336
SWIDTH 583 0
DWIDTH 7 0
BBX 6 11 1 0
BITMAP
28
50
70
88
88
8C
8C
8C
88
88
70
ENDCHAR
STARTCHAR 0151
ENCODING 337
SWIDTH 583 0
DWIDTH 7 0
BBX 5 10 1 0
BITMAP
28
50
00
70
88
88
88
88
88
70
ENDCHAR
STARTCHAR 0152
ENCODING 338
SWIDTH 583 0
DWIDTH 7 0
BBX 7 9 0 0
BITMAP
3E
48
48
C8
CE
C8
48
48
3E
ENDCHAR
STARTCHAR 0153
ENCODING 339
SWIDTH 583 0
DWIDTH 7 0
BBX 7 7 0 0
BITMAP
6E
92
92
9E
90
92
6E
ENDCHAR
STARTCHAR 0154
ENCODING 340
SWIDTH 583 0
DWIDTH 7 0
BBX 6 11 1 0
BITMAP
30
00
F0
88
88
88
F0
98
88
8C
84
ENDCHAR
STARTCHAR 0155
ENCODING 341
SWIDTH 583 0
DWIDTH 7 0
BBX 4 10 2 0
BITMAP
30
60
00
B0
D0
80
80
80
80
80
ENDCHAR
STARTCHAR 0156
ENCODING 342
SWIDTH 583 0
DWIDTH 7 0
BBX 6 12 1 -3
BITMAP
F0
88
88
88
F0
98
88
8C
84
00
30
20
ENDCHAR
STARTCHAR 0157
ENCODING 343
SWIDTH 583 0
DWIDTH 7 0
BBX 5 10 1 -3
BITMAP
58
68
40
40
40
40
40
00
40
80
ENDCHAR
STARTCHAR 0158
ENCODING 344
SWIDTH 583 0
DWIDTH 7 0
BBX 6 11 1 0
BITMAP
D0
20
F0
88
88
88
F0
98
88
8C
84
ENDCHAR
STARTCHAR 0159
ENCODING 345
SWIDTH 583 0
DWIDTH 7 0
BBX 4 10 2 0
BITMAP
B0
60
00
B0
D0
80
80
80
80
80
ENDCHAR
STARTCHAR 015A
ENCODING 346
SWIDTH 583 0
DWIDTH 7 0
BBX 5 11 1 0
BITMAP
10
20
78
88
80
C0
78
08
08
88
F0
ENDCHAR
STARTCHAR 015B
ENCODING 347
SWIDTH 583 0
DWIDTH 7 0
BBX 5 11 1 0
BITMAP
08
10
20
00
78
88
C0
70
08
88
F0
ENDCHAR
STARTCHAR 015C
ENCODING 348
SWIDTH 583 0
DWIDTH 7 0
BBX 5 11 1 0
BITMAP
30
48
78
88
80
C0
78
08
08
88
F0
ENDCHAR
STARTCHAR 015D
ENCODING 349
SWIDTH 583 0
DWIDTH 7 0
BBX 5 11 1 0
BITMAP
20
30
58
00
78
88
C0
70
08
88
F0
ENDCHAR
STARTCHAR 015E
ENCODING 350
SWIDTH 583 0
DWIDTH 7 0
BBX 5 12 1 -3
BITMAP
78
88
80
C0
78
08
08
88
F8
10
10
70
ENDCHAR
STARTCHAR 015F
ENCODING 351
SWIDTH 583 0
DWIDTH 7 0
BBX 5 10 1 -3
BITMAP
78
88
C0
70
08
88
F0
10
10
70
ENDCHAR
STARTCHAR 0160
ENCODING 352
SWIDTH 583 0
DWIDTH 7 0
BBX 5 11 1 0
BITMAP
58
20
78
88
80
C0
78
08
08
88
F0
ENDCHAR
STARTCHAR 0161
ENCODING 353
SWIDTH 583 0
DWIDTH 7 0
BBX 5 11 1 0
BITMAP
48
50
20
00
78
88
C0
70
08
88
F0
ENDCHAR
STARTCHAR 0162
ENCODING 354
SWIDTH 583 0
DWIDTH 7 0
BBX 7 12 0 -3
BITMAP
FE
10
10
10
10
10
10
10
10
10
08
30
ENDCHAR
STARTCHAR 0163
ENCODING 355
SWIDTH 583 0
DWIDTH 7 0
BBX 5 12 1 -3
BITMAP
20
20
F8
20
20
20
20
20
38
10
10
30
ENDCHAR
STARTCHAR 0164
ENCODING 356
SWIDTH 583 0
DWIDTH 7 0
BBX 7 11 0 0
BITMAP
28
10
FE
10
10
10
10
10
10
10
10
ENDCHAR
STARTCHAR 0165
ENCODING 357
SWIDTH 583 0
DWIDTH 7 0
BBX 5 10 1 0
BITMAP
08
30
20
F8
20
20
20
20
20
38
ENDCHAR
STARTCHAR 0166
ENCODING 358
SWIDTH 583 0
DWIDTH 7 0
BBX 7 9 0 0
BITMAP
FE
10
10
10
7C
10
10
10
10
ENDCHAR
STARTCHAR 0167
ENCODING 359
SWIDTH 583 0
DWIDTH 7 0
BBX 5 9 1 0
BITMAP
20
20
F8
20
F0
20
20
20
38
ENDCHAR
STARTCHAR 0168
ENCODING 360
SWIDTH 583 0
DWIDTH 7 0
BBX 5 11 1 0
BITMAP
78
00
88
88
88
88
88
88
88
88
70
ENDCHAR
STARTCHAR 0169
ENCODING 361
SWIDTH 583 0
DWIDTH 7 0
BBX 5 9 1 0
BITMAP
78
00
88
88
88
88
88
88
78
ENDCHAR
STARTCHAR 016A
ENCODING 362
SWIDTH 583 0
DWIDTH 7 0
BBX 5 11 1 0
BITMAP
70
00
88
88
88
88
88
88
88
88
70
ENDCHAR
STARTCHAR 016B
ENCODING 363
SWIDTH 583 0
DWIDTH 7 0
BBX 5 9 1 0
BITMAP
70
00
88
88
88
88
88
88
78
ENDCHAR
STARTCHAR 016C
ENCODING 364
SWIDTH 583 0
DWIDTH 7 0
BBX 5 12 1 0
BITMAP
48
70
00
88
88
88
88
88
88
88
88
70
ENDCHAR
STARTCHAR 016D
ENCODING 365
SWIDTH 583 0
DWIDTH 7 0
BBX 5 10 1 0
BITMAP
48
70
00
88
88
88
88
88
88
78
ENDCHAR
STARTCHAR 016E
ENCODING 366
SWIDTH 583 0
DWIDTH 7 0
BBX 5 11 1 0
BITMAP
70
50
F8
88
88
88
88
88
88
88
70
ENDCHAR
STARTCHAR 016F
ENCODING 367
SWIDTH 583 0
DWIDTH 7 0
BBX 5 11 1 0
BITMAP
30
50
50
30
88
88
88
88
88
88
78
ENDCHAR
STARTCHAR 0170
ENCODING 368
SWIDTH 583 0
DWIDTH 7 0
BBX 5 11 1 0
BITMAP
28
50
88
88
88
88
88
88
88
88
70
ENDCHAR
STARTCHAR 0171
ENCODING 369
SWIDTH 583 0
DWIDTH 7 0
BBX 5 10 1 0
BITMAP
28
50
00
88
88
88
88
88
88
78
ENDCHAR
STARTCHAR 0172
ENCODING 370
SWIDTH 583 0
DWIDTH 7 0
BBX 5 12 1 -3
BITMAP
88
88
88
88
88
88
88
88
70
20
20
30
ENDCHAR
STARTCHAR 0173
ENCODING 371
SWIDTH 583 0
DWIDTH 7 0
BBX 6 10 1 -3
BITMAP
88
88
88
88
88
88
78
08
08
0C
ENDCHAR
STARTCHAR 0174
ENCODING 372
SWIDTH 583 0
DWIDTH 7 0
BBX 7 11 0 0
BITMAP
18
20
82
82
92
5A
6A
6C
6C
6C
64
ENDCHAR
STARTCHAR 0175
ENCODING 373
SWIDTH 583 0
DWIDTH 7 0
BBX 7 10 0 0
BITMAP
10
28
00
82
82
52
54
6C
6C
64
ENDCHAR
STARTCHAR 0176
ENCODING 374
SWIDTH 583 0
DWIDTH 7 0
BBX 7 11 0 0
BITMAP
18
20
C6
44
2C
28
10
10
10
10
10
ENDCHAR
STARTCHAR 0177
ENCODING 375
SWIDTH 583 0
DWIDTH 7 0
BBX 6 13 1 -3
BITMAP
20
50
48
8C
88
C8
58
50
30
20
20
20
C0
ENDCHAR
STARTCHAR 0178
ENCODING 376
SWIDTH 583 0
DWIDTH 7 0
BBX 7 11 0 0
BITMAP
28
00
C6
44
2C
28
10
10
10
10
10
ENDCHAR
STARTCHAR 0179
ENCODING 377
SWIDTH 583 0
DWIDTH 7 0
BBX 6 11 1 0
BITMAP
30
00
F8
08
10
10
20
40
40
80
FC
ENDCHAR
STARTCHAR 017A
ENCODING 378
SWIDTH 583 0
DWIDTH 7 0
BBX 5 10 1 0
BITMAP
08
30
00
F8
08
10
20
60
40
F8
ENDCHAR
STARTCHAR 017B
ENCODING 379
SWIDTH 583 0
DWIDTH 7 0
BBX 6 11 1 0
BITMAP
20
00
F8
08
10
10
20
40
40
80
FC
ENDCHAR
STARTCHAR 017C
ENCODING 380
SWIDTH 583 0
DWIDTH 7 0
BBX 5 9 1 0
BITMAP
20
00
F8
08
10
20
60
40
F8
ENDCHAR
STARTCHAR 017D
ENCODING 381
SWIDTH 583 0
DWIDTH 7 0
BBX 6 11 1 0
BITMAP
50
20
F8
08
10
10
20
40
40
80
FC
ENDCHAR
STARTCHAR 017E
ENCODING 382
SWIDTH 583 0
DWIDTH 7 0
BBX 5 10 1 0
BITMAP
50
20
00
F8
08
10
20
60
40
F8
ENDCHAR
STARTCHAR 017F
ENCODING 383
SWIDTH 583 0
DWIDTH 7 0
BBX 6 11 1 -1
BITMAP
1C
20
20
E0
20
20
20
20
20
20
20
ENDCHAR
STARTCHAR 0192
ENCODING 402
SWIDTH 583 0
DWIDTH 7 0
BBX 7 13 0 -3
BITMAP
06
08
08
08
10
3C
10
10
10
10
10
20
E0
ENDCHAR
STARTCHAR 01A0
ENCODING 416
SWIDTH 583 0
DWIDTH 7 0
BBX 7 10 0 0
BITMAP
02
7A
4E
8C
84
84
84
8C
48
78
ENDCHAR
STARTCHAR 01A1
ENCODING 417
SWIDTH 583 0
DWIDTH 7 0
BBX 7 7 0 0
BITMAP
7A
4E
84
84
84
48
78
ENDCHAR
STARTCHAR 01A4
ENCODING 420
SWIDTH 583 0
DWIDTH 7 0
BBX 7 9 0 0
BITMAP
FC
A2
22
22
3C
20
20
20
20
ENDCHAR
STARTCHAR 01AF
ENCODING 431
SWIDTH 583 0
DWIDTH 7 0
BBX 7 10 0 0
BITMAP
02
8E
8E
8C
8C
8C
8C
8C
88
78
ENDCHAR
STARTCHAR 01B0
ENCODING 432
SWIDTH 583 0
DWIDTH 7 0
BBX 7 7 0 0
BITMAP
8A
8E
88
88
88
88
78
ENDCHAR
STARTCHAR 01E6
ENCODING 486
SWIDTH 583 0
DWIDTH 7 0
BBX 5 11 1 0
BITMAP
68
10
78
C8
80
80
98
88
88
C8
78
ENDCHAR
STARTCHAR 01E7
ENCODING 487
SWIDTH 583 0
DWIDTH 7 0
BBX 5 13 1 -3
BITMAP
58
30
20
78
C8
88
88
88
C8
78
08
88
70
ENDCHAR
STARTCHAR 01FE
ENCODING 510
SWIDTH 583 0
DWIDTH 7 0
BBX 7 11 0 0
BITMAP
08
10
3A
44
44
4E
56
66
64
44
B8
ENDCHAR
STARTCHAR 01FF
ENCODING 511
SWIDTH 583 0
DWIDTH 7 0
BBX 7 11 0 0
BITMAP
0C
08
10
00
3A
44
4C
54
64
44
F8
ENDCHAR
STARTCHAR 0218
ENCODING 536
SWIDTH 583 0
DWIDTH 7 0
BBX 5 12 1 -3
BITMAP
78
88
80
C0
78
08
08
88
F0
00
20
60
ENDCHAR
STARTCHAR 0219
ENCODING 537
SWIDTH 583 0
DWIDTH 7 0
BBX 5 10 1 -3
BITMAP
78
88
C0
70
08
88
F0
00
20
60
ENDCHAR
STARTCHAR 021A
ENCODING 538
SWIDTH 583 0
DWIDTH 7 0
BBX 7 12 0 -3
BITMAP
FE
10
10
10
10
10
10
10
10
08
08
38
ENDCHAR
STARTCHAR 021B
ENCODING 539
SWIDTH 583 0
DWIDTH 7 0
BBX 5 12 1 -3
BITMAP
20
20
F8
20
20
20
20
20
38
10
08
30
ENDCHAR
STARTCHAR 02C6
ENCODING 710
SWIDTH 583 0
DWIDTH 7 0
BBX 3 3 2 8
BITMAP
40
60
A0
ENDCHAR
STARTCHAR 02C7
ENCODING 711
SWIDTH 583 0
DWIDTH 7 0
BBX 3 3 2 8
BITMAP
A0
A0
40
ENDCHAR
STARTCHAR 02D8
ENCODING 728
SWIDTH 583 0
DWIDTH 7 0
BBX 3 2 2 8
BITMAP
A0
E0
ENDCHAR
STARTCHAR 02D9
ENCODING 729
SWIDTH 583 0
DWIDTH 7 0
BBX 1 1 3 8
BITMAP
80
ENDCHAR
STARTCHAR 02DA
ENCODING 730
SWIDTH 583 0
DWIDTH 7 0
BBX 3 4 2 7
BITMAP
60
A0
A0
60
ENDCHAR
STARTCHAR 02DB
ENCODING 731
SWIDTH 583 0
DWIDTH 7 0
BBX 3 3 2 -3
BITMAP
40
80
60
ENDCHAR
STARTCHAR 02DC
ENCODING 732
SWIDTH 583 0
DWIDTH 7 0
BBX 4 2 2 8
BITMAP
D0
A0
ENDCHAR
STARTCHAR 02DD
ENCODING 733
SWIDTH 583 0
DWIDTH 7 0
BBX 4 2 2 8
BITMAP
50
A0
ENDCHAR
STARTCHAR 0300
ENCODING 768
SWIDTH 0 0
DWIDTH 0 0
BBX 3 3 -6 8
BITMAP
C0
40
20
ENDCHAR
STARTCHAR 0301
ENCODING 769
SWIDTH 0 0
DWIDTH 0 0
BBX 2 3 -4 8
BITMAP
40
40
80
ENDCHAR
STARTCHAR 0303
ENCODING 771
SWIDTH 0 0
DWIDTH 0 0
BBX 4 2 -6 8
BITMAP
70
B0
ENDCHAR
STARTCHAR 0309
ENCODING 777
SWIDTH 0 0
DWIDTH 0 0
BBX 3 3 -5 8
BITMAP
C0
20
40
ENDCHAR
STARTCHAR 0323
ENCODING 803
SWIDTH 0 0
DWIDTH 0 0
BBX 1 1 -4 -2
BITMAP
80
ENDCHAR
STARTCHAR 0384
ENCODING 900
SWIDTH 583 0
DWIDTH 7 0
BBX 3 3 3 8
BITMAP
60
40
80
ENDCHAR
STARTCHAR 0385
ENCODING 901
SWIDTH 583 0
DWIDTH 7 0
BBX 5 3 1 8
BITMAP
18
20
D0
ENDCHAR
STARTCHAR 0386
ENCODING 902
SWIDTH 583 0
DWIDTH 7 0
BBX 7 9 0 0
BITMAP
50
B8
28
28
2C
44
7C
46
C2
ENDCHAR
STARTCHAR 0388
ENCODING 904
SWIDTH 583 0
DWIDTH 7 0
BBX 8 9 -1 0
BITMAP
5F
90
10
10
1F
10
10
10
1F
ENDCHAR
STARTCHAR 0389
ENCODING 905
SWIDTH 583 0
DWIDTH 7 0
BBX 9 9 -2 0
BITMAP
3880
5880
9880
1880
1F80
1880
1880
1880
1880
ENDCHAR
STARTCHAR 038A
ENCODING 906
SWIDTH 583 0
DWIDTH 7 0
BBX 8 9 -1 0
BITMAP
7F
84
04
04
04
04
04
04
1F
ENDCHAR
STARTCHAR 038C
ENCODING 908
SWIDTH 583 0
DWIDTH 7 0
BBX 8 10 -1 0
BITMAP
7E
52
A3
21
21
21
21
23
12
1E
ENDCHAR
STARTCHAR 038E
ENCODING 910
SWIDTH 583 0
DWIDTH 7 0
BBX 10 9 -3 0
BITMAP
3CC0
4540
8300
0200
0200
0200
0200
0200
0200
ENDCHAR
STARTCHAR 038F
ENCODING 911
SWIDTH 583 0
DWIDTH 7 0
BBX 8 9 -1 0
BITMAP
7C
B2
21
21
21
21
23
12
37
ENDCHAR
STARTCHAR 0390
ENCODING 912
SWIDTH 583 0
DWIDTH 7 0
BBX 5 11 1 0
BITMAP
38
D0
00
00
60
20
20
20
20
20
18
ENDCHAR
STARTCHAR 0391
ENCODING 913
SWIDTH 583 0
DWIDTH 7 0
BBX 7 9 0 0
BITMAP
10
38
28
28
2C
44
7C
46
C2
ENDCHAR
STARTCHAR 0392
ENCODING 914
SWIDTH 583 0
DWIDTH 7 0
BBX 6 9 1 0
BITMAP
F0
88
88
88
F0
88
8C
8C
F8
ENDCHAR
STARTCHAR 0393
ENCODING 915
SWIDTH 583 0
DWIDTH 7 0
BBX 6 9 1 0
BITMAP
FC
80
80
80
80
80
80
80
80
ENDCHAR
STARTCHAR 0394
ENCODING 916
SWIDTH 583 0
DWIDTH 7 0
BBX 7 9 0 0
BITMAP
10
28
28
28
24
44
44
46
FE
ENDCHAR
STARTCHAR 0395
ENCODING 917
SWIDTH 583 0
DWIDTH 7 0
BBX 5 9 1 0
BITMAP
F8
80
80
80
F8
80
80
80
F8
ENDCHAR
STARTCHAR 0396
ENCODING 918
SWIDTH 583 0
DWIDTH 7 0
BBX 6 9 1 0
BITMAP
F8
08
10
10
20
40
40
80
FC
ENDCHAR
STARTCHAR 0397
ENCODING 919
SWIDTH 583 0
DWIDTH 7 0
BBX 5 9 1 0
BITMAP
88
88
88
88
F8
88
88
88
88
ENDCHAR
STARTCHAR 0398
ENCODING 920
SWIDTH 583 0
DWIDTH 7 0
BBX 7 9 0 0
BITMAP
38
44
46
82
BA
82
46
44
38
ENDCHAR
STARTCHAR 0399
ENCODING 921
SWIDTH 583 0
DWIDTH 7 0
BBX 5 9 1 0
BITMAP
F8
20
20
20
20
20
20
20
F8
ENDCHAR
STARTCHAR 039A
ENCODING 922
SWIDTH 583 0
DWIDTH 7 0
BBX 6 9 1 0
BITMAP
8C
98
B0
E0
E0
90
98
88
8C
ENDCHAR
STARTCHAR 039B
ENCODING 923
SWIDTH 583 0
DWIDTH 7 0
BBX 7 9 0 0
BITMAP
10
38
28
28
24
44
44
46
C2
ENDCHAR
STARTCHAR 039C
ENCODING 924
SWIDTH 583 0
DWIDTH 7 0
BBX 6 9 1 0
BITMAP
8C
CC
D4
D4
A4
A4
84
84
84
ENDCHAR
STARTCHAR 039D
ENCODING 925
SWIDTH 583 0
DWIDTH 7 0
BBX 5 9 1 0
BITMAP
C8
C8
C8
A8
A8
98
98
98
88
ENDCHAR
STARTCHAR 039E
ENCODING 926
SWIDTH 583 0
DWIDTH 7 0
BBX 5 9 1 0
BITMAP
F8
00
00
00
70
00
00
00
F8
ENDCHAR
STARTCHAR 039F
ENCODING 927
SWIDTH 583 0
DWIDTH 7 0
BBX 6 10 1 0
BITMAP
70
C8
88
88
8C
8C
88
88
C8
70
ENDCHAR
STARTCHAR 03A0
ENCODING 928
SWIDTH 583 0
DWIDTH 7 0
BBX 5 9 1 0
BITMAP
F8
88
88
88
88
88
88
88
88
ENDCHAR
STARTCHAR 03A1
ENCODING 929
SWIDTH 583 0
DWIDTH 7 0
BBX 6 9 1 0
BITMAP
F8
88
8C
88
F8
80
80
80
80
ENDCHAR
STARTCHAR 03A3
ENCODING 931
SWIDTH 583 0
DWIDTH 7 0
BBX 6 9 1 0
BITMAP
FC
80
40
20
30
20
40
80
FC
ENDCHAR
STARTCHAR 03A4
ENCODING 932
SWIDTH 583 0
DWIDTH 7 0
BBX 7 9 0 0
BITMAP
FE
10
10
10
10
10
10
10
10
ENDCHAR
STARTCHAR 03A5
ENCODING 933
SWIDTH 583 0
DWIDTH 7 0
BBX 7 9 0 0
BITMAP
C6
2A
28
10
10
10
10
10
10
ENDCHAR
STARTCHAR 03A6
ENCODING 934
SWIDTH 583 0
DWIDTH 7 0
BBX 6 9 1 0
BITMAP
70
20
F8
A8
AC
A8
F8
20
70
ENDCHAR
STARTCHAR 03A7
ENCODING 935
SWIDTH 583 0
DWIDTH 7 0
BBX 7 9 0 0
BITMAP
C6
64
28
18
10
28
2C
44
C2
ENDCHAR
STARTCHAR 03A8
ENCODING 936
SWIDTH 583 0
DWIDTH 7 0
BBX 6 9 1 0
BITMAP
AC
AC
AC
A8
A8
F8
70
20
70
ENDCHAR
STARTCHAR 03A9
ENCODING 937
SWIDTH 583 0
DWIDTH 7 0
BBX 7 9 0 0
BITMAP
38
44
44
42
C2
46
44
64
EE
ENDCHAR
STARTCHAR 03AA
ENCODING 938
SWIDTH 583 0
DWIDTH 7 0
BBX 5 11 1 0
BITMAP
50
00
F8
20
20
20
20
20
20
20
F8
ENDCHAR
STARTCHAR 03AB
ENCODING 939
SWIDTH 583 0
DWIDTH 7 0
BBX 7 11 0 0
BITMAP
28
00
C6
2A
28
10
10
10
10
10
10
ENDCHAR
STARTCHAR 03AC
ENCODING 940
SWIDTH 583 0
DWIDTH 7 0
BBX 7 11 0 0
BITMAP
0C
08
10
00
36
4C
CC
CC
CC
4C
76
ENDCHAR
STARTCHAR 03AD
ENCODING 941
SWIDTH 583 0
DWIDTH 7 0
BBX 5 11 1 0
BITMAP
18
10
20
00
78
80
80
70
80
80
78
ENDCHAR
STARTCHAR 03AE
ENCODING 942
SWIDTH 583 0
DWIDTH 7 0
BBX 5 13 1 -3
BITMAP
18
20
20
B0
C8
88
88
88
88
88
08
08
08
ENDCHAR
STARTCHAR 03AF
ENCODING 943
SWIDTH 583 0
DWIDTH 7 0
BBX 4 10 2 0
BITMAP
30
40
00
C0
40
40
40
40
40
30
ENDCHAR
STARTCHAR 03B0
ENCODING 944
SWIDTH 583 0
DWIDTH 7 0
BBX 7 11 0 0
BITMAP
1C
68
00
00
E4
24
22
26
24
24
38
ENDCHAR
STARTCHAR 03B1
ENCODING 945
SWIDTH 583 0
DWIDTH 7 0
BBX 7 7 0 0
BITMAP
36
4C
CC
CC
CC
4C
76
ENDCHAR
STARTCHAR 03B2
ENCODING 946
SWIDTH 583 0
DWIDTH 7 0
BBX 6 13 1 -3
BITMAP
70
88
88
88
98
B0
88
8C
88
F8
80
80
80
ENDCHAR
STARTCHAR 03B3
ENCODING 947
SWIDTH 583 0
DWIDTH 7 0
BBX 7 10 0 -3
BITMAP
C2
44
24
24
28
18
18
10
10
10
ENDCHAR
STARTCHAR 03B4
ENCODING 948
SWIDTH 583 0
DWIDTH 7 0
BBX 5 10 1 0
BITMAP
78
C0
C0
70
88
88
88
88
88
70
ENDCHAR
STARTCHAR 03B5
ENCODING 949
SWIDTH 583 0
DWIDTH 7 0
BBX 5 7 1 0
BITMAP
78
80
80
70
80
80
78
ENDCHAR
STARTCHAR 03B6
ENCODING 950
SWIDTH 583 0
DWIDTH 7 0
BBX 5 13 1 -3
BITMAP
F8
10
20
40
80
80
80
80
C0
70
08
08
18
ENDCHAR
STARTCHAR 03B7
ENCODING 951
SWIDTH 583 0
DWIDTH 7 0
BBX 5 10 1 -3
BITMAP
B0
C8
88
88
88
88
88
08
08
08
ENDCHAR
STARTCHAR 03B8
ENCODING 952
SWIDTH 583 0
DWIDTH 7 0
BBX 5 9 1 0
BITMAP
70
C8
88
88
F8
88
88
C8
70
ENDCHAR
STARTCHAR 03B9
ENCODING 953
SWIDTH 583 0
DWIDTH 7 0
BBX 4 7 2 0
BITMAP
C0
40
40
40
40
40
30
ENDCHAR
STARTCHAR 03BA
ENCODING 954
SWIDTH 583 0
DWIDTH 7 0
BBX 6 7 1 0
BITMAP
88
90
A0
E0
90
98
8C
ENDCHAR
STARTCHAR 03BB
ENCODING 955
SWIDTH 583 0
DWIDTH 7 0
BBX 7 10 0 0
BITMAP
60
10
10
18
18
28
2C
64
44
C6
ENDCHAR
STARTCHAR 03BC
ENCODING 956
SWIDTH 583 0
DWIDTH 7 0
BBX 6 10 1 -3
BITMAP
88
88
88
88
88
C8
FC
80
80
80
ENDCHAR
STARTCHAR 03BD
ENCODING 957
SWIDTH 583 0
DWIDTH 7 0
BBX 5 7 1 0
BITMAP
98
88
C8
48
48
50
20
ENDCHAR
STARTCHAR 03BE
ENCODING 958
SWIDTH 583 0
DWIDTH 7 0
BBX 5 13 1 -3
BITMAP
F8
40
80
80
70
70
C0
80
80
70
08
08
18
ENDCHAR
STARTCHAR 03BF
ENCODING 959
SWIDTH 583 0
DWIDTH 7 0
BBX 5 7 1 0
BITMAP
70
88
88
88
88
88
70
ENDCHAR
STARTCHAR 03C0
ENCODING 960
SWIDTH 583 0
DWIDTH 7 0
BBX 7 7 0 0
BITMAP
FE
44
44
44
44
44
46
ENDCHAR
STARTCHAR 03C1
ENCODING 961
SWIDTH 583 0
DWIDTH 7 0
BBX 5 10 1 -3
BITMAP
70
C8
88
88
88
C8
B0
80
80
80
ENDCHAR
STARTCHAR 03C2
ENCODING 962
SWIDTH 583 0
DWIDTH 7 0
BBX 5 10 1 -3
BITMAP
78
C8
80
80
80
80
60
18
08
10
ENDCHAR
STARTCHAR 03C3
ENCODING 963
SWIDTH 583 0
DWIDTH 7 0
BBX 6 7 1 0
BITMAP
7C
98
88
88
88
88
70
ENDCHAR
STARTCHAR 03C4
ENCODING 964
SWIDTH 583 0
DWIDTH 7 0
BBX 5 7 1 0
BITMAP
F8
20
20
20
20
20
18
ENDCHAR
STARTCHAR 03C5
ENCODING 965
SWIDTH 583 0
DWIDTH 7 0
BBX 7 7 0 0
BITMAP
E4
24
22
26
24
24
38
ENDCHAR
STARTCHAR 03C6
ENCODING 966
SWIDTH 583 0
DWIDTH 7 0
BBX 7 10 0 -3
BITMAP
3C
54
52
D2
52
54
3C
10
10
10
ENDCHAR
STARTCHAR 03C7
ENCODING 967
SWIDTH 583 0
DWIDTH 7 0
BBX 6 10 1 -3
BITMAP
88
48
50
30
20
20
70
50
50
8C
ENDCHAR
STARTCHAR 03C8
ENCODING 968
SWIDTH 583 0
DWIDTH 7 0
BBX 5 10 1 -3
BITMAP
A8
A8
A8
A8
A8
A8
70
20
20
20
ENDCHAR
STARTCHAR 03C9
ENCODING 969
SWIDTH 583 0
DWIDTH 7 0
BBX 7 7 0 0
BITMAP
44
46
C2
D2
D2
56
6C
ENDCHAR
STARTCHAR 03CA
ENCODING 970
SWIDTH 583 0
DWIDTH 7 0
BBX 4 10 2 0
BITMAP
A0
00
00
C0
40
40
40
40
40
30
ENDCHAR
STARTCHAR 03CB
ENCODING 971
SWIDTH 583 0
DWIDTH 7 0
BBX 7 10 0 0
BITMAP
28
00
00
E4
24
22
26
24
24
38
ENDCHAR
STARTCHAR 03CC
ENCODING 972
SWIDTH 583 0
DWIDTH 7 0
BBX 5 11 1 0
BITMAP
18
10
20
00
70
88
88
88
88
88
70
ENDCHAR
STARTCHAR 03CD
ENCODING 973
SWIDTH 583 0
DWIDTH 7 0
BBX 7 10 0 0
BITMAP
0C
10
00
E4
24
22
26
24
24
38
ENDCHAR
STARTCHAR 03CE
ENCODING 974
SWIDTH 583 0
DWIDTH 7 0
BBX 7 10 0 0
BITMAP
0C
10
00
44
46
C2
D2
D2
56
6C
ENDCHAR
STARTCHAR 03F4
ENCODING 1012
SWIDTH 583 0
DWIDTH 7 0
BBX 6 10 1 0
BITMAP
70
C8
88
88
FC
8C
88
88
C8
70
ENDCHAR
STARTCHAR 03F6
ENCODING 1014
SWIDTH 583 0
DWIDTH 7 0
BBX 5 7 1 0
BITMAP
F0
18
08
F8
08
18
F0
ENDCHAR
STARTCHAR 0400
ENCODING 1024
SWIDTH 583 0
DWIDTH 7 0
BBX 5 11 1 0
BITMAP
60
00
F8
80
80
80
F8
80
80
80
F8
ENDCHAR
STARTCHAR 0401
ENCODING 1025
SWIDTH 583 0
DWIDTH 7 0
BBX 5 11 1 0
BITMAP
58
00
F8
80
80
80
F8
80
80
80
F8
ENDCHAR
STARTCHAR 0402
ENCODING 1026
SWIDTH 583 0
DWIDTH 7 0
BBX 7 12 0 -3
BITMAP
F8
40
40
40
5C
66
46
46
46
06
04
1C
ENDCHAR
STARTCHAR 0403
ENCODING 1027
SWIDTH 583 0
DWIDTH 7 0
BBX 6 11 1 0
BITMAP
10
20
FC
80
80
80
80
80
80
80
80
ENDCHAR
STARTCHAR 0404
ENCODING 1028
SWIDTH 583 0
DWIDTH 7 0
BBX 5 9 1 0
BITMAP
78
C8
80
80
F8
80
80
C8
78
ENDCHAR
STARTCHAR 0405
ENCODING 1029
SWIDTH 583 0
DWIDTH 7 0
BBX 5 9 1 0
BITMAP
78
88
80
C0
78
08
08
88
F0
ENDCHAR
STARTCHAR 0406
ENCODING 1030
SWIDTH 583 0
DWIDTH 7 0
BBX 5 9 1 0
BITMAP
F8
20
20
20
20
20
20
20
F8
ENDCHAR
STARTCHAR 0407
ENCODING 1031
SWIDTH 583 0
DWIDTH 7 0
BBX 5 11 1 0
BITMAP
50
00
F8
20
20
20
20
20
20
20
F8
ENDCHAR
STARTCHAR 0408
ENCODING 1032
SWIDTH 583 0
DWIDTH 7 0
BBX 5 9 1 0
BITMAP
78
18
18
18
18
18
18
90
F0
ENDCHAR
STARTCHAR 0409
ENCODING 1033
SWIDTH 583 0
DWIDTH 7 0
BBX 7 9 0 0
BITMAP
38
28
28
28
2C
2A
6A
4A
CC
ENDCHAR
STARTCHAR 040A
ENCODING 1034
SWIDTH 583 0
DWIDTH 7 0
BBX 7 9 0 0
BITMAP
88
88
88
88
FC
8A
8A
8A
8C
ENDCHAR
STARTCHAR 040B
ENCODING 1035
SWIDTH 583 0
DWIDTH 7 0
BBX 7 9 0 0
BITMAP
F8
40
40
5C
64
46
46
46
46
ENDCHAR
STARTCHAR 040C
ENCODING 1036
SWIDTH 583 0
DWIDTH 7 0
BBX 6 12 1 0
BITMAP
10
10
20
8C
98
B0
E0
E0
90
98
88
8C
ENDCHAR
STARTCHAR 040D
ENCODING 1037
SWIDTH 583 0
DWIDTH 7 0
BBX 5 12 1 0
BITMAP
40
20
20
88
98
98
98
A8
A8
C8
C8
C8
ENDCHAR
STARTCHAR 040E
ENCODING 1038
SWIDTH 583 0
DWIDTH 7 0
BBX 6 12 1 0
BITMAP
48
70
00
8C
C8
48
58
70
30
20
20
C0
ENDCHAR
STARTCHAR 040F
ENCODING 1039
SWIDTH 583 0
DWIDTH 7 0
BBX 5 11 1 -2
BITMAP
88
88
88
88
88
88
88
88
F8
20
20
ENDCHAR
STARTCHAR 0410
ENCODING 1040
SWIDTH 583 0
DWIDTH 7 0
BBX 7 9 0 0
BITMAP
10
38
28
28
2C
44
7C
46
C2
ENDCHAR
STARTCHAR 0411
ENCODING 1041
SWIDTH 583 0
DWIDTH 7 0
BBX 6 9 1 0
BITMAP
F8
80
80
80
F8
8C
8C
8C
F8
ENDCHAR
STARTCHAR 0412
ENCODING 1042
SWIDTH 583 0
DWIDTH 7 0
BBX 6 9 1 0
BITMAP
F0
88
88
88
F0
88
8C
8C
F8
ENDCHAR
STARTCHAR 0413
ENCODING 1043
SWIDTH 583 0
DWIDTH 7 0
BBX 6 9 1 0
BITMAP
FC
80
80
80
80
80
80
80
80
ENDCHAR
STARTCHAR 0414
ENCODING 1044
SWIDTH 583 0
DWIDTH 7 0
BBX 7 11 0 -2
BITMAP
7C
64
64
64
44
44
44
44
FE
82
82
ENDCHAR
STARTCHAR 0415
ENCODING 1045
SWIDTH 583 0
DWIDTH 7 0
BBX 5 9 1 0
BITMAP
F8
80
80
80
F8
80
80
80
F8
ENDCHAR
STARTCHAR 0416
ENCODING 1046
SWIDTH 583 0
DWIDTH 7 0
BBX 7 9 0 0
BITMAP
D2
54
74
38
3C
54
54
56
92
ENDCHAR
STARTCHAR 0417
ENCODING 1047
SWIDTH 583 0
DWIDTH 7 0
BBX 5 9 1 0
BITMAP
F0
08
08
70
08
08
08
88
F0
ENDCHAR
STARTCHAR 0418
ENCODING 1048
SWIDTH 583 0
DWIDTH 7 0
BBX 5 9 1 0
BITMAP
88
98
98
98
A8
A8
C8
C8
C8
ENDCHAR
STARTCHAR 0419
ENCODING 1049
SWIDTH 583 0
DWIDTH 7 0
BBX 5 12 1 0
BITMAP
48
70
00
88
98
98
98
A8
A8
C8
C8
C8
ENDCHAR
STARTCHAR 041A
ENCODING 1050
SWIDTH 583 0
DWIDTH 7 0
BBX 6 9 1 0
BITMAP
8C
98
B0
E0
E0
90
98
88
8C
ENDCHAR
STARTCHAR 041B
ENCODING 1051
SWIDTH 583 0
DWIDTH 7 0
BBX 6 9 0 0
BITMAP
3C
24
24
24
24
24
24
64
C4
ENDCHAR
STARTCHAR 041C
ENCODING 1052
SWIDTH 583 0
DWIDTH 7 0
BBX 7 9 0 0
BITMAP
C6
E6
EA
EA
D2
D2
C2
C2
C2
ENDCHAR
STARTCHAR 041D
ENCODING 1053
SWIDTH 583 0
DWIDTH 7 0
BBX 5 9 1 0
BITMAP
88
88
88
88
F8
88
88
88
88
ENDCHAR
STARTCHAR 041E
ENCODING 1054
SWIDTH 583 0
DWIDTH 7 0
BBX 6 9 1 0
BITMAP
70
88
88
8C
8C
8C
88
88
70
ENDCHAR
STARTCHAR 041F
ENCODING 1055
SWIDTH 583 0
DWIDTH 7 0
BBX 5 9 1 0
BITMAP
F8
88
88
88
88
88
88
88
88
ENDCHAR
STARTCHAR 0420
ENCODING 1056
SWIDTH 583 0
DWIDTH 7 0
BBX 6 9 1 0
BITMAP
F8
8C
8C
8C
F8
80
80
80
80
ENDCHAR
STARTCHAR 0421
ENCODING 1057
SWIDTH 583 0
DWIDTH 7 0
BBX 5 9 1 0
BITMAP
38
48
80
80
80
80
80
48
78
ENDCHAR
STARTCHAR 0422
ENCODING 1058
SWIDTH 583 0
DWIDTH 7 0
BBX 7 9 0 0
BITMAP
FE
10
10
10
10
10
10
10
10
ENDCHAR
STARTCHAR 0423
ENCODING 1059
SWIDTH 583 0
DWIDTH 7 0
BBX 6 9 1 0
BITMAP
8C
C8
48
58
70
30
20
20
C0
ENDCHAR
STARTCHAR 0424
ENCODING 1060
SWIDTH 583 0
DWIDTH 7 0
BBX 7 9 0 0
BITMAP
10
7C
56
D2
D2
D2
56
7C
10
ENDCHAR
STARTCHAR 0425
ENCODING 1061
SWIDTH 583 0
DWIDTH 7 0
BBX 7 9 0 0
BITMAP
C6
64
28
18
10
28
2C
44
C2
ENDCHAR
STARTCHAR 0426
ENCODING 1062
SWIDTH 583 0
DWIDTH 7 0
BBX 6 11 1 -2
BITMAP
88
88
88
88
88
88
88
88
FC
04
04
ENDCHAR
STARTCHAR 0427
ENCODING 1063
SWIDTH 583 0
DWIDTH 7 0
BBX 5 9 1 0
BITMAP
88
88
88
88
F8
08
08
08
08
ENDCHAR
STARTCHAR 0428
ENCODING 1064
SWIDTH 583 0
DWIDTH 7 0
BBX 6 9 1 0
BITMAP
AC
AC
AC
AC
AC
AC
AC
AC
FC
ENDCHAR
STARTCHAR 0429
ENCODING 1065
SWIDTH 583 0
DWIDTH 7 0
BBX 6 11 1 -2
BITMAP
A8
A8
A8
A8
A8
A8
A8
A8
FC
04
04
ENDCHAR
STARTCHAR 042A
ENCODING 1066
SWIDTH 583 0
DWIDTH 7 0
BBX 7 9 0 0
BITMAP
E0
20
20
20
3C
26
22
26
3C
ENDCHAR
STARTCHAR 042B
ENCODING 1067
SWIDTH 583 0
DWIDTH 7 0
BBX 7 9 0 0
BITMAP
C6
C6
C6
C6
F6
DE
DE
DE
F6
ENDCHAR
STARTCHAR 042C
ENCODING 1068
SWIDTH 583 0
DWIDTH 7 0
BBX 6 9 1 0
BITMAP
80
80
80
80
F8
8C
8C
8C
F8
ENDCHAR
STARTCHAR 042D
ENCODING 1069
SWIDTH 583 0
DWIDTH 7 0
BBX 5 9 1 0
BITMAP
F0
98
08
08
78
08
08
98
F0
ENDCHAR
STARTCHAR 042E
ENCODING 1070
SWIDTH 583 0
DWIDTH 7 0
BBX 7 9 0 0
BITMAP
DC
D6
F2
E2
E2
E2
F2
D6
DC
ENDCHAR
STARTCHAR 042F
ENCODING 1071
SWIDTH 583 0
DWIDTH 7 0
BBX 6 9 0 0
BITMAP
3C
44
44
44
3C
24
24
44
C4
ENDCHAR
STARTCHAR 0430
ENCODING 1072
SWIDTH 583 0
DWIDTH 7 0
BBX 6 7 1 0
BITMAP
F0
08
78
88
88
98
7C
ENDCHAR
STARTCHAR 0431
ENCODING 1073
SWIDTH 583 0
DWIDTH 7 0
BBX 5 9 1 0
BITMAP
78
80
F0
88
88
88
88
88
70
ENDCHAR
STARTCHAR 0432
ENCODING 1074
SWIDTH 583 0
DWIDTH 7 0
BBX 5 7 1 0
BITMAP
F0
88
88
F0
88
88
F8
ENDCHAR
STARTCHAR 0433
ENCODING 1075
SWIDTH 583 0
DWIDTH 7 0
BBX 4 7 2 0
BITMAP
F0
80
80
80
80
80
80
ENDCHAR
STARTCHAR 0434
ENCODING 1076
SWIDTH 583 0
DWIDTH 7 0
BBX 6 9 1 -2
BITMAP
78
48
48
48
88
88
FC
84
84
ENDCHAR
STARTCHAR 0435
ENCODING 1077
SWIDTH 583 0
DWIDTH 7 0
BBX 6 7 1 0
BITMAP
70
88
88
FC
80
84
78
ENDCHAR
STARTCHAR 0436
ENCODING 1078
SWIDTH 583 0
DWIDTH 7 0
BBX 7 7 0 0
BITMAP
D6
54
38
3C
54
54
D2
ENDCHAR
STARTCHAR 0437
ENCODING 1079
SWIDTH 583 0
DWIDTH 7 0
BBX 5 7 1 0
BITMAP
F0
08
08
70
08
08
F0
ENDCHAR
STARTCHAR 0438
ENCODING 1080
SWIDTH 583 0
DWIDTH 7 0
BBX 5 7 1 0
BITMAP
88
98
98
A8
A8
C8
C8
ENDCHAR
STARTCHAR 0439
ENCODING 1081
SWIDTH 583 0
DWIDTH 7 0
BBX 5 10 1 0
BITMAP
48
70
00
88
98
98
A8
A8
C8
C8
ENDCHAR
STARTCHAR 043A
ENCODING 1082
SWIDTH 583 0
DWIDTH 7 0
BBX 6 7 1 0
BITMAP
CC
D0
E0
F0
D0
C8
CC
ENDCHAR
STARTCHAR 043B
ENCODING 1083
SWIDTH 583 0
DWIDTH 7 0
BBX 6 7 0 0
BITMAP
3C
24
24
24
24
64
C4
ENDCHAR
STARTCHAR 043C
ENCODING 1084
SWIDTH 583 0
DWIDTH 7 0
BBX 7 7 0 0
BITMAP
C2
C6
E6
AA
9A
82
82
ENDCHAR
STARTCHAR 043D
ENCODING 1085
SWIDTH 583 0
DWIDTH 7 0
BBX 5 7 1 0
BITMAP
88
88
88
F8
88
88
88
ENDCHAR
STARTCHAR 043E
ENCODING 1086
SWIDTH 583 0
DWIDTH 7 0
BBX 5 7 1 0
BITMAP
70
88
88
88
88
88
70
ENDCHAR
STARTCHAR 043F
ENCODING 1087
SWIDTH 583 0
DWIDTH 7 0
BBX 5 7 1 0
BITMAP
F8
88
88
88
88
88
88
ENDCHAR
STARTCHAR 0440
ENCODING 1088
SWIDTH 583 0
DWIDTH 7 0
BBX 6 10 1 -3
BITMAP
B0
C8
88
8C
88
C8
B0
80
80
80
ENDCHAR
STARTCHAR 0441
ENCODING 1089
SWIDTH 583 0
DWIDTH 7 0
BBX 5 7 1 0
BITMAP
78
C8
80
80
80
C8
78
ENDCHAR
STARTCHAR 0442
ENCODING 1090
SWIDTH 583 0
DWIDTH 7 0
BBX 5 7 1 0
BITMAP
F8
20
20
20
20
20
20
ENDCHAR
STARTCHAR 0443
ENCODING 1091
SWIDTH 583 0
DWIDTH 7 0
BBX 6 10 1 -3
BITMAP
84
88
48
58
50
30
30
20
20
C0
ENDCHAR
STARTCHAR 0444
ENCODING 1092
SWIDTH 583 0
DWIDTH 7 0
BBX 6 12 1 -3
BITMAP
20
20
20
F8
A8
AC
AC
AC
E8
70
20
20
ENDCHAR
STARTCHAR 0445
ENCODING 1093
SWIDTH 583 0
DWIDTH 7 0
BBX 7 7 0 0
BITMAP
46
2C
38
10
28
2C
C6
ENDCHAR
STARTCHAR 0446
ENCODING 1094
SWIDTH 583 0
DWIDTH 7 0
BBX 6 9 1 -2
BITMAP
88
88
88
88
88
88
FC
04
04
ENDCHAR
STARTCHAR 0447
ENCODING 1095
SWIDTH 583 0
DWIDTH 7 0
BBX 5 7 1 0
BITMAP
88
88
88
88
78
08
08
ENDCHAR
STARTCHAR 0448
ENCODING 1096
SWIDTH 583 0
DWIDTH 7 0
BBX 6 7 1 0
BITMAP
A4
A4
A4
A4
A4
A4
FC
ENDCHAR
STARTCHAR 0449
ENCODING 1097
SWIDTH 583 0
DWIDTH 7 0
BBX 6 9 1 -2
BITMAP
A8
A8
A8
A8
A8
A8
FC
04
04
ENDCHAR
STARTCHAR 044A
ENCODING 1098
SWIDTH 583 0
DWIDTH 7 0
BBX 7 7 0 0
BITMAP
E0
20
20
3C
22
22
3C
ENDCHAR
STARTCHAR 044B
ENCODING 1099
SWIDTH 583 0
DWIDTH 7 0
BBX 6 7 1 0
BITMAP
84
84
84
E4
94
94
E4
ENDCHAR
STARTCHAR 044C
ENCODING 1100
SWIDTH 583 0
DWIDTH 7 0
BBX 6 7 1 0
BITMAP
80
80
80
F8
88
8C
F8
ENDCHAR
STARTCHAR 044D
ENCODING 1101
SWIDTH 583 0
DWIDTH 7 0
BBX 5 7 1 0
BITMAP
F0
88
08
78
08
88
F0
ENDCHAR
STARTCHAR 044E
ENCODING 1102
SWIDTH 583 0
DWIDTH 7 0
BBX 6 7 1 0
BITMAP
98
A4
A4
E4
A4
A4
98
ENDCHAR
STARTCHAR 044F
ENCODING 1103
SWIDTH 583 0
DWIDTH 7 0
BBX 5 7 1 0
BITMAP
78
C8
C8
78
48
48
88
ENDCHAR
STARTCHAR 0450
ENCODING 1104
SWIDTH 583 0
DWIDTH 7 0
BBX 6 11 1 0
BITMAP
C0
40
20
00
70
C8
88
FC
80
84
78
ENDCHAR
STARTCHAR 0451
ENCODING 1105
SWIDTH 583 0
DWIDTH 7 0
BBX 6 9 1 0
BITMAP
58
00
70
88
88
FC
80
84
78
ENDCHAR
STARTCHAR 0452
ENCODING 1106
SWIDTH 583 0
DWIDTH 7 0
BBX 7 13 0 -3
BITMAP
20
20
20
F8
20
3C
26
22
22
26
04
0C
08
ENDCHAR
STARTCHAR 0453
ENCODING 1107
SWIDTH 583 0
DWIDTH 7 0
BBX 4 10 2 0
BITMAP
10
20
40
F0
80
80
80
80
80
80
ENDCHAR
STARTCHAR 0454
ENCODING 1108
SWIDTH 583 0
DWIDTH 7 0
BBX 5 7 1 0
BITMAP
78
C8
80
F0
80
C8
78
ENDCHAR
STARTCHAR 0455
ENCODING 1109
SWIDTH 583 0
DWIDTH 7 0
BBX 5 7 1 0
BITMAP
78
88
C0
70
08
88
F0
ENDCHAR
STARTCHAR 0456
ENCODING 1110
SWIDTH 583 0
DWIDTH 7 0
BBX 5 9 1 0
BITMAP
20
00
E0
20
20
20
20
20
38
ENDCHAR
STARTCHAR 0457
ENCODING 1111
SWIDTH 583 0
DWIDTH 7 0
BBX 5 9 1 0
BITMAP
D0
00
E0
20
20
20
20
20
38
ENDCHAR
STARTCHAR 0458
ENCODING 1112
SWIDTH 583 0
DWIDTH 7 0
BBX 4 12 1 -3
BITMAP
10
00
70
10
10
10
10
10
10
10
10
E0
ENDCHAR
STARTCHAR 0459
ENCODING 1113
SWIDTH 583 0
DWIDTH 7 0
BBX 7 7 0 0
BITMAP
78
48
48
4E
4A
4A
CE
ENDCHAR
STARTCHAR 045A
ENCODING 1114
SWIDTH 583 0
DWIDTH 7 0
BBX 6 7 1 0
BITMAP
90
90
90
F8
94
94
9C
ENDCHAR
STARTCHAR 045B
ENCODING 1115
SWIDTH 583 0
DWIDTH 7 0
BBX 7 10 0 0
BITMAP
60
60
60
F8
60
7C
64
66
66
66
ENDCHAR
STARTCHAR 045C
ENCODING 1116
SWIDTH 583 0
DWIDTH 7 0
BBX 6 10 1 0
BITMAP
18
20
00
CC
D0
E0
F0
D0
C8
CC
ENDCHAR
STARTCHAR 045D
ENCODING 1117
SWIDTH 583 0
DWIDTH 7 0
BBX 5 10 1 0
BITMAP
60
30
00
88
98
98
A8
A8
C8
C8
ENDCHAR
STARTCHAR 045E
ENCODING 1118
SWIDTH 583 0
DWIDTH 7 0
BBX 6 12 1 -3
BITMAP
48
70
84
88
48
58
50
30
30
20
20
C0
ENDCHAR
STARTCHAR 045F
ENCODING 1119
SWIDTH 583 0
DWIDTH 7 0
BBX 5 8 1 -1
BITMAP
88
88
88
88
88
88
F8
20
ENDCHAR
STARTCHAR 0462
ENCODING 1122
SWIDTH 583 0
DWIDTH 7 0
BBX 7 9 0 0
BITMAP
20
F8
20
20
3C
26
26
26
3C
ENDCHAR
STARTCHAR 0463
ENCODING 1123
SWIDTH 583 0
DWIDTH 7 0
BBX 7 10 0 0
BITMAP
20
20
20
F8
20
20
3C
22
22
3C
ENDCHAR
STARTCHAR 0472
ENCODING 1138
SWIDTH 583 0
DWIDTH 7 0
BBX 6 9 1 0
BITMAP
70
88
88
8C
FC
8C
88
88
70
ENDCHAR
STARTCHAR 0473
ENCODING 1139
SWIDTH 583 0
DWIDTH 7 0
BBX 5 7 1 0
BITMAP
70
88
88
F8
88
88
70
ENDCHAR
STARTCHAR 0490
ENCODING 1168
SWIDTH 583 0
DWIDTH 7 0
BBX 6 11 1 0
BITMAP
04
04
FC
80
80
80
80
80
80
80
80
ENDCHAR
STARTCHAR 0491
ENCODING 1169
SWIDTH 583 0
DWIDTH 7 0
BBX 4 9 2 0
BITMAP
10
10
F0
80
80
80
80
80
80
ENDCHAR
STARTCHAR 0492
ENCODING 1170
SWIDTH 583 0
DWIDTH 7 0
BBX 6 9 1 0
BITMAP
FC
C0
C0
F8
C0
C0
C0
C0
C0
ENDCHAR
STARTCHAR 0493
ENCODING 1171
SWIDTH 583 0
DWIDTH 7 0
BBX 5 7 1 0
BITMAP
78
40
40
F0
40
40
40
ENDCHAR
STARTCHAR 0494
ENCODING 1172
SWIDTH 583 0
DWIDTH 7 0
BBX 5 12 1 -3
BITMAP
F8
80
80
80
F8
88
88
88
88
08
08
38
ENDCHAR
STARTCHAR 0495
ENCODING 1173
SWIDTH 583 0
DWIDTH 7 0
BBX 5 10 1 -3
BITMAP
F8
80
80
80
F8
88
88
08
08
38
ENDCHAR
STARTCHAR 0496
ENCODING 1174
SWIDTH 583 0
DWIDTH 7 0
BBX 7 11 0 -2
BITMAP
D2
54
74
38
3C
5C
54
56
92
02
02
ENDCHAR
STARTCHAR 0497
ENCODING 1175
SWIDTH 583 0
DWIDTH 7 0
BBX 7 9 0 -2
BITMAP
D6
54
38
3C
54
54
D2
02
02
ENDCHAR
STARTCHAR 0498
ENCODING 1176
SWIDTH 583 0
DWIDTH 7 0
BBX 5 12 1 -3
BITMAP
F0
08
08
08
70
08
08
88
F0
20
20
60
ENDCHAR
STARTCHAR 0499
ENCODING 1177
SWIDTH 583 0
DWIDTH 7 0
BBX 5 10 1 -3
BITMAP
F0
08
08
70
08
08
F0
20
20
60
ENDCHAR
STARTCHAR 049A
ENCODING 1178
SWIDTH 583 0
DWIDTH 7 0
BBX 6 11 1 -2
BITMAP
8C
98
B0
E0
E0
90
98
88
8C
04
04
ENDCHAR
STARTCHAR 049B
ENCODING 1179
SWIDTH 583 0
DWIDTH 7 0
BBX 6 9 1 -2
BITMAP
8C
90
A0
E0
90
88
8C
04
04
ENDCHAR
STARTCHAR 04A2
ENCODING 1186
SWIDTH 583 0
DWIDTH 7 0
BBX 7 11 0 -2
BITMAP
C4
C4
C4
C4
FC
C4
C4
C4
C6
02
02
ENDCHAR
STARTCHAR 04A3
ENCODING 1187
SWIDTH 583 0
DWIDTH 7 0
BBX 6 9 1 -2
BITMAP
88
88
88
F8
88
88
8C
04
04
ENDCHAR
STARTCHAR 04A4
ENCODING 1188
SWIDTH 583 0
DWIDTH 7 0
BBX 6 9 1 0
BITMAP
9C
98
98
98
F8
98
98
98
98
ENDCHAR
STARTCHAR 04A5
ENCODING 1189
SWIDTH 583 0
DWIDTH 7 0
BBX 6 7 1 0
BITMAP
9C
90
90
F0
90
90
90
ENDCHAR
STARTCHAR 04AA
ENCODING 1194
SWIDTH 583 0
DWIDTH 7 0
BBX 5 12 1 -3
BITMAP
78
48
80
80
80
80
80
C8
78
10
10
30
ENDCHAR
STARTCHAR 04AB
ENCODING 1195
SWIDTH 583 0
DWIDTH 7 0
BBX 5 10 1 -3
BITMAP
78
C8
80
80
80
C8
78
10
10
30
ENDCHAR
STARTCHAR 04AC
ENCODING 1196
SWIDTH 583 0
DWIDTH 7 0
BBX 7 11 0 -2
BITMAP
FE
10
10
10
10
10
10
10
18
08
08
ENDCHAR
STARTCHAR 04AD
ENCODING 1197
SWIDTH 583 0
DWIDTH 7 0
BBX 5 9 1 -2
BITMAP
F8
20
20
20
20
20
30
10
10
ENDCHAR
STARTCHAR 04AE
ENCODING 1198
SWIDTH 583 0
DWIDTH 7 0
BBX 7 9 0 0
BITMAP
C6
44
2C
28
10
10
10
10
10
ENDCHAR
STARTCHAR 04AF
ENCODING 1199
SWIDTH 583 0
DWIDTH 7 0
BBX 6 10 1 -3
BITMAP
8C
88
C8
50
50
70
20
20
20
20
ENDCHAR
STARTCHAR 04B0
ENCODING 1200
SWIDTH 583 0
DWIDTH 7 0
BBX 7 9 0 0
BITMAP
C6
44
28
38
10
7C
10
10
10
ENDCHAR
STARTCHAR 04B1
ENCODING 1201
SWIDTH 583 0
DWIDTH 7 0
BBX 6 10 1 -3
BITMAP
8C
88
88
58
50
50
30
20
70
20
ENDCHAR
STARTCHAR 04B2
ENCODING 1202
SWIDTH 583 0
DWIDTH 7 0
BBX 7 11 0 -2
BITMAP
C6
64
28
18
10
28
2C
44
C2
02
02
ENDCHAR
STARTCHAR 04B3
ENCODING 1203
SWIDTH 583 0
DWIDTH 7 0
BBX 6 9 1 -2
BITMAP
8C
58
30
20
70
48
8C
04
04
ENDCHAR
STARTCHAR 04BA
ENCODING 1210
SWIDTH 583 0
DWIDTH 7 0
BBX 6 9 1 0
BITMAP
80
80
80
F8
C8
8C
8C
8C
8C
ENDCHAR
STARTCHAR 04BB
ENCODING 1211
SWIDTH 583 0
DWIDTH 7 0
BBX 5 10 1 0
BITMAP
80
80
80
B8
C8
88
88
88
88
88
ENDCHAR
STARTCHAR 04C0
ENCODING 1216
SWIDTH 583 0
DWIDTH 7 0
BBX 5 9 1 0
BITMAP
F8
20
20
20
20
20
20
20
F8
ENDCHAR
STARTCHAR 04C1
ENCODING 1217
SWIDTH 583 0
DWIDTH 7 0
BBX 7 12 0 0
BITMAP
24
38
00
D2
54
74
38
3C
54
54
56
92
ENDCHAR
STARTCHAR 04C2
ENCODING 1218
SWIDTH 583 0
DWIDTH 7 0
BBX 7 10 0 0
BITMAP
28
38
00
D6
54
38
3C
54
54
D2
ENDCHAR
STARTCHAR 04C3
ENCODING 1219
SWIDTH 583 0
DWIDTH 7 0
BBX 6 12 1 -3
BITMAP
8C
98
90
A0
F0
88
88
88
88
08
08
30
ENDCHAR
STARTCHAR 04C4
ENCODING 1220
SWIDTH 583 0
DWIDTH 7 0
BBX 6 10 1 -3
BITMAP
8C
90
B0
A0
F8
88
88
08
08
38
ENDCHAR
STARTCHAR 04C7
ENCODING 1223
SWIDTH 583 0
DWIDTH 7 0
BBX 5 12 1 -3
BITMAP
88
88
88
88
F8
88
88
88
88
08
08
38
ENDCHAR
STARTCHAR 04C8
ENCODING 1224
SWIDTH 583 0
DWIDTH 7 0
BBX 5 10 1 -3
BITMAP
88
88
88
F8
88
88
88
08
08
38
ENDCHAR
STARTCHAR 04CB
ENCODING 1227
SWIDTH 583 0
DWIDTH 7 0
BBX 5 11 1 -2
BITMAP
88
88
88
88
F8
08
08
08
18
10
10
ENDCHAR
STARTCHAR 04CC
ENCODING 1228
SWIDTH 583 0
DWIDTH 7 0
BBX 5 9 1 -2
BITMAP
88
88
88
98
68
08
18
10
10
ENDCHAR
STARTCHAR 04CF
ENCODING 1231
SWIDTH 583 0
DWIDTH 7 0
BBX 1 10 3 0
BITMAP
80
80
80
80
80
80
80
80
80
80
ENDCHAR
STARTCHAR 04D0
ENCODING 1232
SWIDTH 583 0
DWIDTH 7 0
BBX 7 12 0 0
BITMAP
24
38
00
10
38
28
28
2C
44
7C
46
C2
ENDCHAR
STARTCHAR 04D1
ENCODING 1233
SWIDTH 583 0
DWIDTH 7 0
BBX 6 10 1 0
BITMAP
48
70
00
F0
08
78
88
88
88
7C
ENDCHAR
STARTCHAR 04D2
ENCODING 1234
SWIDTH 583 0
DWIDTH 7 0
BBX 7 11 0 0
BITMAP
28
00
10
38
28
28
2C
44
7C
46
C2
ENDCHAR
STARTCHAR 04D3
ENCODING 1235
SWIDTH 583 0
DWIDTH 7 0
BBX 6 9 1 0
BITMAP
50
00
F0
08
78
88
88
88
7C
ENDCHAR
STARTCHAR 04D4
ENCODING 1236
SWIDTH 583 0
DWIDTH 7 0
BBX 7 9 0 0
BITMAP
3E
28
28
68
4E
48
78
C8
8E
ENDCHAR
STARTCHAR 04D5
ENCODING 1237
SWIDTH 583 0
DWIDTH 7 0
BBX 7 7 0 0
BITMAP
6C
12
12
7E
90
90
6E
ENDCHAR
STARTCHAR 04D6
ENCODING 1238
SWIDTH 583 0
DWIDTH 7 0
BBX 5 12 1 0
BITMAP
48
70
00
F8
80
80
80
F8
80
80
80
F8
ENDCHAR
STARTCHAR 04D7
ENCODING 1239
SWIDTH 583 0
DWIDTH 7 0
BBX 6 10 1 0
BITMAP
48
70
00
70
88
88
FC
80
84
78
ENDCHAR
STARTCHAR 04D8
ENCODING 1240
SWIDTH 583 0
DWIDTH 7 0
BBX 6 9 1 0
BITMAP
70
88
08
0C
FC
8C
88
C8
70
ENDCHAR
STARTCHAR 04D9
ENCODING 1241
SWIDTH 583 0
DWIDTH 7 0
BBX 6 7 1 0
BITMAP
F0
88
0C
FC
8C
88
70
ENDCHAR
STARTCHAR 04DA
ENCODING 1242
SWIDTH 583 0
DWIDTH 7 0
BBX 6 11 1 0
BITMAP
50
00
70
88
08
0C
FC
8C
88
C8
70
ENDCHAR
STARTCHAR 04DB
ENCODING 1243
SWIDTH 583 0
DWIDTH 7 0
BBX 6 9 1 0
BITMAP
50
00
F0
88
0C
FC
8C
88
70
ENDCHAR
STARTCHAR 04DC
ENCODING 1244
SWIDTH 583 0
DWIDTH 7 0
BBX 7 11 0 0
BITMAP
28
00
D2
54
74
38
3C
54
54
56
92
ENDCHAR
STARTCHAR 04DD
ENCODING 1245
SWIDTH 583 0
DWIDTH 7 0
BBX 7 9 0 0
BITMAP
28
00
D6
54
38
3C
54
54
D2
ENDCHAR
STARTCHAR 04DE
ENCODING 1246
SWIDTH 583 0
DWIDTH 7 0
BBX 5 11 1 0
BITMAP
50
00
F0
08
08
70
08
08
08
88
F0
ENDCHAR
STARTCHAR 04DF
ENCODING 1247
SWIDTH 583 0
DWIDTH 7 0
BBX 5 9 1 0
BITMAP
50
00
F0
08
08
70
08
08
F0
ENDCHAR
STARTCHAR 04E0
ENCODING 1248
SWIDTH 583 0
DWIDTH 7 0
BBX 7 9 0 0
BITMAP
7C
0C
18
1C
06
02
82
C6
7C
ENDCHAR
STARTCHAR 04E1
ENCODING 1249
SWIDTH 583 0
DWIDTH 7 0
BBX 6 10 1 -3
BITMAP
F8
18
10
20
70
08
0C
0C
88
F0
ENDCHAR
STARTCHAR 04E2
ENCODING 1250
SWIDTH 583 0
DWIDTH 7 0
BBX 5 11 1 0
BITMAP
70
00
88
98
98
98
A8
A8
C8
C8
C8
ENDCHAR
STARTCHAR 04E3
ENCODING 1251
SWIDTH 583 0
DWIDTH 7 0
BBX 5 9 1 0
BITMAP
70
00
88
98
98
A8
A8
C8
C8
ENDCHAR
STARTCHAR 04E4
ENCODING 1252
SWIDTH 583 0
DWIDTH 7 0
BBX 5 11 1 0
BITMAP
50
00
88
98
98
98
A8
A8
C8
C8
C8
ENDCHAR
STARTCHAR 04E5
ENCODING 1253
SWIDTH 583 0
DWIDTH 7 0
BBX 5 9 1 0
BITMAP
50
00
88
98
98
A8
A8
C8
C8
ENDCHAR
STARTCHAR 04E6
ENCODING 1254
SWIDTH 583 0
DWIDTH 7 0
BBX 6 11 1 0
BITMAP
50
00
70
88
88
8C
8C
8C
88
88
70
ENDCHAR
STARTCHAR 04E7
ENCODING 1255
SWIDTH 583 0
DWIDTH 7 0
BBX 5 9 1 0
BITMAP
50
00
70
88
88
88
88
88
70
ENDCHAR
STARTCHAR 04E8
ENCODING 1256
SWIDTH 583 0
DWIDTH 7 0
BBX 6 9 1 0
BITMAP
70
88
88
FC
8C
8C
88
C8
70
ENDCHAR
STARTCHAR 04E9
ENCODING 1257
SWIDTH 583 0
DWIDTH 7 0
BBX 5 7 1 0
BITMAP
70
88
88
F8
88
88
70
ENDCHAR
STARTCHAR 04EA
ENCODING 1258
SWIDTH 583 0
DWIDTH 7 0
BBX 6 11 1 0
BITMAP
50
00
70
88
88
FC
8C
8C
88
C8
70
ENDCHAR
STARTCHAR 04EB
ENCODING 1259
SWIDTH 583 0
DWIDTH 7 0
BBX 5 9 1 0
BITMAP
50
00
70
88
88
F8
88
88
70
ENDCHAR
STARTCHAR 04EC
ENCODING 1260
SWIDTH 583 0
DWIDTH 7 0
BBX 6 11 1 0
BITMAP
50
00
F0
98
08
08
7C
08
08
98
F0
ENDCHAR
STARTCHAR 04ED
ENCODING 1261
SWIDTH 583 0
DWIDTH 7 0
BBX 5 9 1 0
BITMAP
50
00
F0
88
08
78
08
88
F0
ENDCHAR
STARTCHAR 04EE
ENCODING 1262
SWIDTH 583 0
DWIDTH 7 0
BBX 6 11 1 0
BITMAP
70
00
8C
C8
48
58
70
30
20
20
C0
ENDCHAR
STARTCHAR 04EF
ENCODING 1263
SWIDTH 583 0
DWIDTH 7 0
BBX 6 12 1 -3
BITMAP
70
00
8C
88
C8
58
50
30
20
20
20
C0
ENDCHAR
STARTCHAR 04F0
ENCODING 1264
SWIDTH 583 0
DWIDTH 7 0
BBX 6 11 1 0
BITMAP
50
00
8C
C8
48
58
70
30
20
20
C0
ENDCHAR
STARTCHAR 04F1
ENCODING 1265
SWIDTH 583 0
DWIDTH 7 0
BBX 6 12 1 -3
BITMAP
50
00
8C
88
C8
58
50
30
20
20
20
C0
ENDCHAR
STARTCHAR 04F2
ENCODING 1266
SWIDTH 583 0
DWIDTH 7 0
BBX 6 11 1 0
BITMAP
28
50
8C
C8
48
58
70
30
20
20
C0
ENDCHAR
STARTCHAR 04F3
ENCODING 1267
SWIDTH 583 0
DWIDTH 7 0
BBX 6 12 1 -3
BITMAP
28
50
8C
88
C8
58
50
30
20
20
20
C0
ENDCHAR
STARTCHAR 04F4
ENCODING 1268
SWIDTH 583 0
DWIDTH 7 0
BBX 5 11 1 0
BITMAP
50
00
88
88
88
88
F8
08
08
08
08
ENDCHAR
STARTCHAR 04F5
ENCODING 1269
SWIDTH 583 0
DWIDTH 7 0
BBX 5 9 1 0
BITMAP
50
00
88
88
88
88
78
08
08
ENDCHAR
STARTCHAR 04F6
ENCODING 1270
SWIDTH 583 0
DWIDTH 7 0
BBX 6 11 1 -2
BITMAP
FC
80
80
80
80
80
80
80
E0
60
60
ENDCHAR
STARTCHAR 04F7
ENCODING 1271
SWIDTH 583 0
DWIDTH 7 0
BBX 4 9 2 -2
BITMAP
F0
80
80
80
80
80
C0
40
40
ENDCHAR
STARTCHAR 04F8
ENCODING 1272
SWIDTH 583 0
DWIDTH 7 0
BBX 7 11 0 0
BITMAP
28
00
C2
C2
C2
C2
F2
DA
CA
DA
F2
ENDCHAR
STARTCHAR 04F9
ENCODING 1273
SWIDTH 583 0
DWIDTH 7 0
BBX 6 9 1 0
BITMAP
50
00
84
84
84
E4
94
94
E4
ENDCHAR
STARTCHAR 0510
ENCODING 1296
SWIDTH 583 0
DWIDTH 7 0
BBX 5 9 1 0
BITMAP
78
80
80
70
C0
80
80
88
78
ENDCHAR
STARTCHAR 0511
ENCODING 1297
SWIDTH 583 0
DWIDTH 7 0
BBX 5 7 1 0
BITMAP
78
80
80
70
80
80
78
ENDCHAR
STARTCHAR 051A
ENCODING 1306
SWIDTH 583 0
DWIDTH 7 0
BBX 6 11 1 -2
BITMAP
70
88
88
8C
8C
8C
88
88
70
18
0C
ENDCHAR
STARTCHAR 051B
ENCODING 1307
SWIDTH 583 0
DWIDTH 7 0
BBX 5 10 1 -3
BITMAP
78
88
88
88
88
88
78
08
08
08
ENDCHAR
STARTCHAR 051C
ENCODING 1308
SWIDTH 583 0
DWIDTH 7 0
BBX 7 9 0 0
BITMAP
82
82
92
5A
6A
6C
6C
6C
64
ENDCHAR
STARTCHAR 051D
ENCODING 1309
SWIDTH 583 0
DWIDTH 7 0
BBX 7 7 0 0
BITMAP
82
82
52
54
6C
6C
64
ENDCHAR
STARTCHAR 0531
ENCODING 1329
SWIDTH 583 0
DWIDTH 7 0
BBX 6 9 1 0
BITMAP
88
88
88
88
88
88
A8
98
7C
ENDCHAR
STARTCHAR 0532
ENCODING 1330
SWIDTH 583 0
DWIDTH 7 0
BBX 5 9 1 0
BITMAP
70
88
88
88
80
F8
80
80
80
ENDCHAR
STARTCHAR 0533
ENCODING 1331
SWIDTH 583 0
DWIDTH 7 0
BBX 7 9 0 0
BITMAP
78
44
44
C4
44
7E
04
04
04
ENDCHAR
STARTCHAR 0534
ENCODING 1332
SWIDTH 583 0
DWIDTH 7 0
BBX 7 9 0 0
BITMAP
78
4C
C4
C4
04
06
04
04
04
ENDCHAR
STARTCHAR 0535
ENCODING 1333
SWIDTH 583 0
DWIDTH 7 0
BBX 5 9 1 0
BITMAP
80
80
F8
80
80
88
88
88
70
ENDCHAR
STARTCHAR 0536
ENCODING 1334
SWIDTH 583 0
DWIDTH 7 0
BBX 6 9 1 0
BITMAP
70
88
8C
8C
0C
08
08
90
F8
ENDCHAR
STARTCHAR 0537
ENCODING 1335
SWIDTH 583 0
DWIDTH 7 0
BBX 6 9 1 0
BITMAP
80
80
FC
80
80
80
80
80
F8
ENDCHAR
STARTCHAR 0538
ENCODING 1336
SWIDTH 583 0
DWIDTH 7 0
BBX 5 9 1 0
BITMAP
70
88
88
88
80
80
80
80
F8
ENDCHAR
STARTCHAR 0539
ENCODING 1337
SWIDTH 583 0
DWIDTH 7 0
BBX 7 9 0 0
BITMAP
38
44
C4
C4
DE
D4
F4
D4
DC
ENDCHAR
STARTCHAR 053A
ENCODING 1338
SWIDTH 583 0
DWIDTH 7 0
BBX 7 9 0 0
BITMAP
04
04
3E
44
C4
C4
C4
4C
38
ENDCHAR
STARTCHAR 053B
ENCODING 1339
SWIDTH 583 0
DWIDTH 7 0
BBX 6 9 1 0
BITMAP
80
80
F8
C8
8C
8C
80
80
80
ENDCHAR
STARTCHAR 053C
ENCODING 1340
SWIDTH 583 0
DWIDTH 7 0
BBX 6 9 1 0
BITMAP
80
80
80
80
80
80
80
80
FC
ENDCHAR
STARTCHAR 053D
ENCODING 1341
SWIDTH 583 0
DWIDTH 7 0
BBX 6 9 1 0
BITMAP
80
80
E4
A4
A4
A4
A4
A4
B8
ENDCHAR
STARTCHAR 053E
ENCODING 1342
SWIDTH 583 0
DWIDTH 7 0
BBX 7 9 0 0
BITMAP
9E
A2
FC
46
42
42
42
44
3C
ENDCHAR
STARTCHAR 053F
ENCODING 1343
SWIDTH 583 0
DWIDTH 7 0
BBX 5 9 1 0
BITMAP
80
80
88
88
88
88
78
08
08
ENDCHAR
STARTCHAR 0540
ENCODING 1344
SWIDTH 583 0
DWIDTH 7 0
BBX 7 9 0 0
BITMAP
0C
04
0E
10
60
40
E0
38
0E
ENDCHAR
STARTCHAR 0541
ENCODING 1345
SWIDTH 583 0
DWIDTH 7 0
BBX 6 9 1 0
BITMAP
70
88
8C
8C
0C
08
E8
98
EC
ENDCHAR
STARTCHAR 0542
ENCODING 1346
SWIDTH 583 0
DWIDTH 7 0
BBX 7 9 0 0
BITMAP
78
4C
C4
C4
04
04
04
04
06
ENDCHAR
STARTCHAR 0543
ENCODING 1347
SWIDTH 583 0
DWIDTH 7 0
BBX 7 9 0 0
BITMAP
46
28
30
30
38
48
44
C4
7E
ENDCHAR
STARTCHAR 0544
ENCODING 1348
SWIDTH 583 0
DWIDTH 7 0
BBX 7 9 0 0
BITMAP
C6
C4
C4
C4
C4
C4
44
44
78
ENDCHAR
STARTCHAR 0545
ENCODING 1349
SWIDTH 583 0
DWIDTH 7 0
BBX 7 9 0 0
BITMAP
3C
46
04
F8
06
02
42
66
3C
ENDCHAR
STARTCHAR 0546
ENCODING 1350
SWIDTH 583 0
DWIDTH 7 0
BBX 7 9 0 0
BITMAP
E0
60
60
60
60
62
62
26
3C
ENDCHAR
STARTCHAR 0547
ENCODING 1351
SWIDTH 583 0
DWIDTH 7 0
BBX 6 9 1 0
BITMAP
E0
78
C8
80
80
8C
8C
88
70
ENDCHAR
STARTCHAR 0548
ENCODING 1352
SWIDTH 583 0
DWIDTH 7 0
BBX 5 9 1 0
BITMAP
70
88
88
88
88
88
88
88
88
ENDCHAR
STARTCHAR 0549
ENCODING 1353
SWIDTH 583 0
DWIDTH 7 0
BBX 6 10 1 -1
BITMAP
70
88
8C
8C
0C
08
08
F0
38
08
ENDCHAR
STARTCHAR 054A
ENCODING 1354
SWIDTH 583 0
DWIDTH 7 0
BBX 7 9 0 0
BITMAP
3C
54
92
92
12
12
02
02
02
ENDCHAR
STARTCHAR 054B
ENCODING 1355
SWIDTH 583 0
DWIDTH 7 0
BBX 6 9 1 0
BITMAP
70
88
8C
8C
EC
18
18
90
F8
ENDCHAR
STARTCHAR 054C
ENCODING 1356
SWIDTH 583 0
DWIDTH 7 0
BBX 6 9 1 0
BITMAP
70
88
88
88
88
8C
88
88
88
ENDCHAR
STARTCHAR 054D
ENCODING 1357
SWIDTH 583 0
DWIDTH 7 0
BBX 5 9 1 0
BITMAP
88
88
88
88
88
88
88
88
70
ENDCHAR
STARTCHAR 054E
ENCODING 1358
SWIDTH 583 0
DWIDTH 7 0
BBX 7 9 0 0
BITMAP
0C
0C
8C
8C
8C
CC
7C
0C
0E
ENDCHAR
STARTCHAR 054F
ENCODING 1359
SWIDTH 583 0
DWIDTH 7 0
BBX 6 9 1 0
BITMAP
70
88
80
C0
38
08
8C
88
78
ENDCHAR
STARTCHAR 0550
ENCODING 1360
SWIDTH 583 0
DWIDTH 7 0
BBX 5 9 1 0
BITMAP
70
88
88
88
80
80
80
80
80
ENDCHAR
STARTCHAR 0551
ENCODING 1361
SWIDTH 583 0
DWIDTH 7 0
BBX 7 9 0 0
BITMAP
3C
46
64
F8
06
02
42
66
3C
ENDCHAR
STARTCHAR 0552
ENCODING 1362
SWIDTH 583 0
DWIDTH 7 0
BBX 6 9 1 0
BITMAP
80
80
FC
80
80
80
80
80
80
ENDCHAR
STARTCHAR 0553
ENCODING 1363
SWIDTH 583 0
DWIDTH 7 0
BBX 7 9 0 0
BITMAP
10
7C
56
D2
D2
D2
56
7C
10
ENDCHAR
STARTCHAR 0554
ENCODING 1364
SWIDTH 583 0
DWIDTH 7 0
BBX 7 9 0 0
BITMAP
3C
66
62
66
7C
60
FE
60
60
ENDCHAR
STARTCHAR 0555
ENCODING 1365
SWIDTH 583 0
DWIDTH 7 0
BBX 6 9 1 0
BITMAP
70
C8
88
8C
8C
8C
88
C8
70
ENDCHAR
STARTCHAR 0556
ENCODING 1366
SWIDTH 583 0
DWIDTH 7 0
BBX 7 9 0 0
BITMAP
70
50
7C
16
12
D2
D2
56
7C
ENDCHAR
STARTCHAR 0559
ENCODING 1369
SWIDTH 583 0
DWIDTH 7 0
BBX 1 3 3 6
BITMAP
80
80
80
ENDCHAR
STARTCHAR 055A
ENCODING 1370
SWIDTH 583 0
DWIDTH 7 0
BBX 1 3 3 6
BITMAP
80
80
80
ENDCHAR
STARTCHAR 055B
ENCODING 1371
SWIDTH 583 0
DWIDTH 7 0
BBX 3 3 2 8
BITMAP
20
40
C0
ENDCHAR
STARTCHAR 055C
ENCODING 1372
SWIDTH 583 0
DWIDTH 7 0
BBX 5 4 1 8
BITMAP
08
18
60
80
ENDCHAR
STARTCHAR 055D
ENCODING 1373
SWIDTH 583 0
DWIDTH 7 0
BBX 3 3 2 8
BITMAP
80
40
20
ENDCHAR
STARTCHAR 055E
ENCODING 1374
SWIDTH 583 0
DWIDTH 7 0
BBX 5 3 1 8
BITMAP
78
C8
B8
ENDCHAR
STARTCHAR 055F
ENCODING 1375
SWIDTH 583 0
DWIDTH 7 0
BBX 5 2 1 8
BITMAP
80
F8
ENDCHAR
STARTCHAR 0561
ENCODING 1377
SWIDTH 583 0
DWIDTH 7 0
BBX 6 7 1 0
BITMAP
A4
A4
A4
A4
A4
A4
FC
ENDCHAR
STARTCHAR 0562
ENCODING 1378
SWIDTH 583 0
DWIDTH 7 0
BBX 5 10 1 -3
BITMAP
B8
C8
88
88
80
80
F8
80
80
80
ENDCHAR
STARTCHAR 0563
ENCODING 1379
SWIDTH 583 0
DWIDTH 7 0
BBX 7 10 0 -3
BITMAP
34
4C
C4
C4
C4
4C
36
04
04
04
ENDCHAR
STARTCHAR 0564
ENCODING 1380
SWIDTH 583 0
DWIDTH 7 0
BBX 6 10 1 -3
BITMAP
B0
C8
88
88
88
88
8C
08
08
08
ENDCHAR
STARTCHAR 0565
ENCODING 1381
SWIDTH 583 0
DWIDTH 7 0
BBX 5 10 1 0
BITMAP
80
80
80
F8
80
88
88
88
88
78
ENDCHAR
STARTCHAR 0566
ENCODING 1382
SWIDTH 583 0
DWIDTH 7 0
BBX 6 10 1 -3
BITMAP
68
98
88
88
88
98
78
08
08
0C
ENDCHAR
STARTCHAR 0567
ENCODING 1383
SWIDTH 583 0
DWIDTH 7 0
BBX 5 10 1 0
BITMAP
80
80
80
F8
80
80
80
80
80
F8
ENDCHAR
STARTCHAR 0568
ENCODING 1384
SWIDTH 583 0
DWIDTH 7 0
BBX 5 10 1 -3
BITMAP
B0
C8
88
88
88
88
88
80
80
F8
ENDCHAR
STARTCHAR 0569
ENCODING 1385
SWIDTH 583 0
DWIDTH 7 0
BBX 6 10 1 -3
BITMAP
F0
88
88
88
BC
E8
B8
80
80
80
ENDCHAR
STARTCHAR 056A
ENCODING 1386
SWIDTH 583 0
DWIDTH 7 0
BBX 6 10 1 0
BITMAP
08
08
08
7C
88
88
88
88
98
70
ENDCHAR
STARTCHAR 056B
ENCODING 1387
SWIDTH 583 0
DWIDTH 7 0
BBX 5 13 1 -3
BITMAP
80
80
80
B0
C8
88
88
88
88
88
80
80
80
ENDCHAR
STARTCHAR 056C
ENCODING 1388
SWIDTH 583 0
DWIDTH 7 0
BBX 4 10 2 -3
BITMAP
80
80
80
80
80
80
80
80
80
F0
ENDCHAR
STARTCHAR 056D
ENCODING 1389
SWIDTH 583 0
DWIDTH 7 0
BBX 6 13 1 -3
BITMAP
80
80
80
E4
A4
A4
A4
A4
A4
BC
80
80
80
ENDCHAR
STARTCHAR 056E
ENCODING 1390
SWIDTH 583 0
DWIDTH 7 0
BBX 5 10 1 0
BITMAP
60
C0
60
78
88
88
88
88
88
70
ENDCHAR
STARTCHAR 056F
ENCODING 1391
SWIDTH 583 0
DWIDTH 7 0
BBX 5 13 1 -3
BITMAP
80
80
80
88
88
88
88
88
88
78
08
08
08
ENDCHAR
STARTCHAR 0570
ENCODING 1392
SWIDTH 583 0
DWIDTH 7 0
BBX 5 10 1 0
BITMAP
80
80
80
B0
C8
88
88
88
88
88
ENDCHAR
STARTCHAR 0571
ENCODING 1393
SWIDTH 583 0
DWIDTH 7 0
BBX 5 10 1 0
BITMAP
60
50
70
30
48
88
88
88
88
78
ENDCHAR
STARTCHAR 0572
ENCODING 1394
SWIDTH 583 0
DWIDTH 7 0
BBX 6 10 1 -3
BITMAP
B0
C8
88
88
88
88
88
08
08
0C
ENDCHAR
STARTCHAR 0573
ENCODING 1395
SWIDTH 583 0
DWIDTH 7 0
BBX 5 10 1 0
BITMAP
18
20
60
F0
48
88
88
88
C8
78
ENDCHAR
STARTCHAR 0574
ENCODING 1396
SWIDTH 583 0
DWIDTH 7 0
BBX 6 10 1 0
BITMAP
0C
08
08
88
88
88
88
88
98
E8
ENDCHAR
STARTCHAR 0575
ENCODING 1397
SWIDTH 583 0
DWIDTH 7 0
BBX 4 10 1 -3
BITMAP
10
10
10
10
10
10
10
10
10
E0
ENDCHAR
STARTCHAR 0576
ENCODING 1398
SWIDTH 583 0
DWIDTH 7 0
BBX 6 10 0 0
BITMAP
C0
40
40
44
44
44
44
44
44
3C
ENDCHAR
STARTCHAR 0577
ENCODING 1399
SWIDTH 583 0
DWIDTH 7 0
BBX 5 10 1 -3
BITMAP
70
88
08
08
18
10
20
40
80
F8
ENDCHAR
STARTCHAR 0578
ENCODING 1400
SWIDTH 583 0
DWIDTH 7 0
BBX 5 7 1 0
BITMAP
B0
C8
88
88
88
88
88
ENDCHAR
STARTCHAR 0579
ENCODING 1401
SWIDTH 583 0
DWIDTH 7 0
BBX 5 10 1 -3
BITMAP
20
40
40
38
30
20
40
40
C0
78
ENDCHAR
STARTCHAR 057A
ENCODING 1402
SWIDTH 583 0
DWIDTH 7 0
BBX 6 10 1 -3
BITMAP
A4
A4
A4
A4
A4
AC
F4
04
04
04
ENDCHAR
STARTCHAR 057B
ENCODING 1403
SWIDTH 583 0
DWIDTH 7 0
BBX 5 10 1 -3
BITMAP
70
88
88
C8
58
70
60
40
80
F8
ENDCHAR
STARTCHAR 057C
ENCODING 1404
SWIDTH 583 0
DWIDTH 7 0
BBX 6 7 1 0
BITMAP
B8
C8
88
88
88
90
9C
ENDCHAR
STARTCHAR 057D
ENCODING 1405
SWIDTH 583 0
DWIDTH 7 0
BBX 5 7 1 0
BITMAP
88
88
88
88
88
88
78
ENDCHAR
STARTCHAR 057E
ENCODING 1406
SWIDTH 583 0
DWIDTH 7 0
BBX 6 13 1 -3
BITMAP
08
08
08
88
88
88
88
88
88
78
08
08
0C
ENDCHAR
STARTCHAR 057F
ENCODING 1407
SWIDTH 583 0
DWIDTH 7 0
BBX 6 7 1 0
BITMAP
B8
A4
A4
A4
A4
A4
E4
ENDCHAR
STARTCHAR 0580
ENCODING 1408
SWIDTH 583 0
DWIDTH 7 0
BBX 5 10 1 -3
BITMAP
B0
C8
88
88
88
88
88
80
80
80
ENDCHAR
STARTCHAR 0581
ENCODING 1409
SWIDTH 583 0
DWIDTH 7 0
BBX 5 10 1 -3
BITMAP
78
88
88
88
88
C8
78
08
88
70
ENDCHAR
STARTCHAR 0582
ENCODING 1410
SWIDTH 583 0
DWIDTH 7 0
BBX 4 7 2 0
BITMAP
80
80
80
80
80
80
F0
ENDCHAR
STARTCHAR 0583
ENCODING 1411
SWIDTH 583 0
DWIDTH 7 0
BBX 6 13 1 -3
BITMAP
20
20
20
B8
A4
A4
A4
A4
A4
E4
20
20
20
ENDCHAR
STARTCHAR 0584
ENCODING 1412
SWIDTH 583 0
DWIDTH 7 0
BBX 7 10 0 -3
BITMAP
58
64
44
46
44
64
58
40
FE
40
ENDCHAR
STARTCHAR 0585
ENCODING 1413
SWIDTH 583 0
DWIDTH 7 0
BBX 5 7 1 0
BITMAP
70
88
88
88
88
88
70
ENDCHAR
STARTCHAR 0586
ENCODING 1414
SWIDTH 583 0
DWIDTH 7 0
BBX 7 13 0 -3
BITMAP
70
D0
D0
7C
16
12
12
12
96
7C
10
10
10
ENDCHAR
STARTCHAR 0587
ENCODING 1415
SWIDTH 583 0
DWIDTH 7 0
BBX 6 10 1 0
BITMAP
80
80
80
88
88
88
88
88
98
EC
ENDCHAR
STARTCHAR 0589
ENCODING 1417
SWIDTH 583 0
DWIDTH 7 0
BBX 1 5 3 0
BITMAP
80
00
00
80
80
ENDCHAR
STARTCHAR 058A
ENCODING 1418
SWIDTH 583 0
DWIDTH 7 0
BBX 3 1 2 3
BITMAP
E0
ENDCHAR
STARTCHAR 0E3F
ENCODING 3647
SWIDTH 583 0
DWIDTH 7 0
BBX 6 12 1 -2
BITMAP
20
20
F8
A8
A8
F0
A8
AC
A8
F8
20
20
ENDCHAR
STARTCHAR 10D0
ENCODING 4304
SWIDTH 583 0
DWIDTH 7 0
BBX 5 7 1 0
BITMAP
40
20
18
C8
88
88
70
ENDCHAR
STARTCHAR 10D1
ENCODING 4305
SWIDTH 583 0
DWIDTH 7 0
BBX 5 9 1 0
BITMAP
C0
20
20
70
88
88
88
88
70
ENDCHAR
STARTCHAR 10D2
ENCODING 4306
SWIDTH 583 0
DWIDTH 7 0
BBX 6 8 1 -2
BITMAP
70
98
90
70
88
84
88
78
ENDCHAR
STARTCHAR 10D3
ENCODING 4307
SWIDTH 583 0
DWIDTH 7 0
BBX 7 8 0 -2
BITMAP
6C
D2
92
92
52
4C
30
4C
ENDCHAR
STARTCHAR 10D4
ENCODING 4308
SWIDTH 583 0
DWIDTH 7 0
BBX 5 8 1 -2
BITMAP
70
48
C8
08
48
88
88
78
ENDCHAR
STARTCHAR 10D5
ENCODING 4309
SWIDTH 583 0
DWIDTH 7 0
BBX 5 8 1 -2
BITMAP
78
88
C8
30
48
88
88
78
ENDCHAR
STARTCHAR 10D6
ENCODING 4310
SWIDTH 583 0
DWIDTH 7 0
BBX 5 9 1 0
BITMAP
70
90
90
70
C8
88
88
88
70
ENDCHAR
STARTCHAR 10D7
ENCODING 4311
SWIDTH 583 0
DWIDTH 7 0
BBX 7 6 0 0
BITMAP
7C
92
92
92
92
7C
ENDCHAR
STARTCHAR 10D8
ENCODING 4312
SWIDTH 583 0
DWIDTH 7 0
BBX 5 6 1 0
BITMAP
70
88
88
88
88
50
ENDCHAR
STARTCHAR 10D9
ENCODING 4313
SWIDTH 583 0
DWIDTH 7 0
BBX 5 8 1 -2
BITMAP
30
08
08
30
C8
88
88
78
ENDCHAR
STARTCHAR 10DA
ENCODING 4314
SWIDTH 583 0
DWIDTH 7 0
BBX 5 8 1 -2
BITMAP
70
88
88
88
88
40
E0
18
ENDCHAR
STARTCHAR 10DB
ENCODING 4315
SWIDTH 583 0
DWIDTH 7 0
BBX 5 9 1 0
BITMAP
70
88
08
78
88
88
88
88
70
ENDCHAR
STARTCHAR 10DC
ENCODING 4316
SWIDTH 583 0
DWIDTH 7 0
BBX 5 9 1 0
BITMAP
F8
80
80
F0
88
88
88
88
70
ENDCHAR
STARTCHAR 10DD
ENCODING 4317
SWIDTH 583 0
DWIDTH 7 0
BBX 7 6 0 0
BITMAP
6C
D2
92
92
42
64
ENDCHAR
STARTCHAR 10DE
ENCODING 4318
SWIDTH 583 0
DWIDTH 7 0
BBX 5 9 1 0
BITMAP
60
18
08
30
48
88
88
88
70
ENDCHAR
STARTCHAR 10DF
ENCODING 4319
SWIDTH 583 0
DWIDTH 7 0
BBX 5 8 1 -2
BITMAP
78
C8
28
28
C8
08
88
78
ENDCHAR
STARTCHAR 10E0
ENCODING 4320
SWIDTH 583 0
DWIDTH 7 0
BBX 7 9 0 0
BITMAP
18
20
40
7C
D2
92
92
42
64
ENDCHAR
STARTCHAR 10E1
ENCODING 4321
SWIDTH 583 0
DWIDTH 7 0
BBX 5 9 1 0
BITMAP
80
80
90
90
98
88
88
88
70
ENDCHAR
STARTCHAR 10E2
ENCODING 4322
SWIDTH 583 0
DWIDTH 7 0
BBX 7 10 0 -2
BITMAP
10
18
74
54
92
82
82
C2
44
38
ENDCHAR
STARTCHAR 10E3
ENCODING 4323
SWIDTH 583 0
DWIDTH 7 0
BBX 6 8 0 -2
BITMAP
EC
14
14
04
64
44
44
3C
ENDCHAR
STARTCHAR 10E4
ENCODING 4324
SWIDTH 583 0
DWIDTH 7 0
BBX 7 8 0 -2
BITMAP
7C
92
92
D4
62
02
62
3C
ENDCHAR
STARTCHAR 10E5
ENCODING 4325
SWIDTH 583 0
DWIDTH 7 0
BBX 5 11 1 -2
BITMAP
08
08
08
78
88
C8
08
C8
88
88
70
ENDCHAR
STARTCHAR 10E6
ENCODING 4326
SWIDTH 583 0
DWIDTH 7 0
BBX 7 8 0 -2
BITMAP
6C
D2
92
82
44
60
70
0C
ENDCHAR
STARTCHAR 10E7
ENCODING 4327
SWIDTH 583 0
DWIDTH 7 0
BBX 5 8 1 -2
BITMAP
68
88
88
88
78
08
88
78
ENDCHAR
STARTCHAR 10E8
ENCODING 4328
SWIDTH 583 0
DWIDTH 7 0
BBX 6 9 0 0
BITMAP
7C
94
04
3C
44
44
44
44
38
ENDCHAR
STARTCHAR 10E9
ENCODING 4329
SWIDTH 583 0
DWIDTH 7 0
BBX 5 9 1 0
BITMAP
F0
98
90
F0
88
88
88
88
90
ENDCHAR
STARTCHAR 10EA
ENCODING 4330
SWIDTH 583 0
DWIDTH 7 0
BBX 7 8 0 -2
BITMAP
68
44
46
CC
42
42
46
3C
ENDCHAR
STARTCHAR 10EB
ENCODING 4331
SWIDTH 583 0
DWIDTH 7 0
BBX 5 9 1 0
BITMAP
08
08
08
78
88
88
88
88
70
ENDCHAR
STARTCHAR 10EC
ENCODING 4332
SWIDTH 583 0
DWIDTH 7 0
BBX 6 9 1 0
BITMAP
FC
94
80
F0
88
88
88
88
70
ENDCHAR
STARTCHAR 10ED
ENCODING 4333
SWIDTH 583 0
DWIDTH 7 0
BBX 5 11 1 -2
BITMAP
20
20
20
E0
98
60
10
88
88
88
78
ENDCHAR
STARTCHAR 10EE
ENCODING 4334
SWIDTH 583 0
DWIDTH 7 0
BBX 5 9 1 0
BITMAP
80
80
80
F0
88
88
88
88
70
ENDCHAR
STARTCHAR 10EF
ENCODING 4335
SWIDTH 583 0
DWIDTH 7 0
BBX 5 10 1 -2
BITMAP
20
A0
70
28
20
10
88
88
88
70
ENDCHAR
STARTCHAR 10F0
ENCODING 4336
SWIDTH 583 0
DWIDTH 7 0
BBX 5 9 1 0
BITMAP
40
38
08
30
08
30
88
88
70
ENDCHAR
STARTCHAR 10F1
ENCODING 4337
SWIDTH 583 0
DWIDTH 7 0
BBX 5 11 1 -2
BITMAP
30
08
08
98
88
90
88
90
88
88
78
ENDCHAR
STARTCHAR 10F2
ENCODING 4338
SWIDTH 583 0
DWIDTH 7 0
BBX 5 8 1 -2
BITMAP
70
88
88
88
88
70
D8
88
ENDCHAR
STARTCHAR 10F3
ENCODING 4339
SWIDTH 583 0
DWIDTH 7 0
BBX 5 8 1 -2
BITMAP
F8
88
08
30
08
88
88
70
ENDCHAR
STARTCHAR 10F4
ENCODING 4340
SWIDTH 583 0
DWIDTH 7 0
BBX 5 11 1 -2
BITMAP
60
80
88
78
08
08
30
08
08
88
70
ENDCHAR
STARTCHAR 10F5
ENCODING 4341
SWIDTH 583 0
DWIDTH 7 0
BBX 6 9 1 0
BITMAP
F0
88
88
7C
08
FC
88
88
F0
ENDCHAR
STARTCHAR 10F6
ENCODING 4342
SWIDTH 583 0
DWIDTH 7 0
BBX 7 8 0 -2
BITMAP
6C
92
92
92
92
5C
10
30
ENDCHAR
STARTCHAR 10F7
ENCODING 4343
SWIDTH 583 0
DWIDTH 7 0
BBX 6 8 1 -2
BITMAP
70
D8
10
60
88
8C
88
78
ENDCHAR
STARTCHAR 10F8
ENCODING 4344
SWIDTH 583 0
DWIDTH 7 0
BBX 5 8 1 -2
BITMAP
98
88
88
88
F8
80
88
78
ENDCHAR
STARTCHAR 10F9
ENCODING 4345
SWIDTH 583 0
DWIDTH 7 0
BBX 6 8 1 -2
BITMAP
70
88
8C
88
70
40
48
70
ENDCHAR
STARTCHAR 10FA
ENCODING 4346
SWIDTH 583 0
DWIDTH 7 0
BBX 5 7 1 -1
BITMAP
78
88
88
88
C8
60
90
ENDCHAR
STARTCHAR 10FB
ENCODING 4347
SWIDTH 583 0
DWIDTH 7 0
BBX 4 6 2 0
BITMAP
80
00
00
30
00
80
ENDCHAR
STARTCHAR 10FC
ENCODING 4348
SWIDTH 583 0
DWIDTH 7 0
BBX 3 5 2 4
BITMAP
E0
C0
A0
A0
40
ENDCHAR
STARTCHAR 1E80
ENCODING 7808
SWIDTH 583 0
DWIDTH 7 0
BBX 7 11 0 0
BITMAP
30
00
82
82
92
5A
6A
6C
6C
6C
64
ENDCHAR
STARTCHAR 1E81
ENCODING 7809
SWIDTH 583 0
DWIDTH 7 0
BBX 7 10 0 0
BITMAP
60
10
00
82
82
52
54
6C
6C
64
ENDCHAR
STARTCHAR 1E82
ENCODING 7810
SWIDTH 583 0
DWIDTH 7 0
BBX 7 11 0 0
BITMAP
08
10
82
82
92
5A
6A
6C
6C
6C
64
ENDCHAR
STARTCHAR 1E83
ENCODING 7811
SWIDTH 583 0
DWIDTH 7 0
BBX 7 10 0 0
BITMAP
0C
18
00
82
82
52
54
6C
6C
64
ENDCHAR
STARTCHAR 1E84
ENCODING 7812
SWIDTH 583 0
DWIDTH 7 0
BBX 7 11 0 0
BITMAP
28
00
82
82
92
5A
6A
6C
6C
6C
64
ENDCHAR
STARTCHAR 1E85
ENCODING 7813
SWIDTH 583 0
DWIDTH 7 0
BBX 7 9 0 0
BITMAP
28
00
82
82
52
54
6C
6C
64
ENDCHAR
STARTCHAR 1EBC
ENCODING 7868
SWIDTH 583 0
DWIDTH 7 0
BBX 5 11 1 0
BITMAP
78
00
F8
80
80
80
F8
80
80
80
F8
ENDCHAR
STARTCHAR 1EBD
ENCODING 7869
SWIDTH 583 0
DWIDTH 7 0
BBX 6 10 1 0
BITMAP
68
50
00
70
88
88
FC
80
84
78
ENDCHAR
STARTCHAR 1EF2
ENCODING 7922
SWIDTH 583 0
DWIDTH 7 0
BBX 7 11 0 0
BITMAP
30
00
C6
44
2C
28
10
10
10
10
10
ENDCHAR
STARTCHAR 1EF3
ENCODING 7923
SWIDTH 583 0
DWIDTH 7 0
BBX 6 13 1 -3
BITMAP
80
40
20
8C
88
C8
58
50
30
20
20
20
C0
ENDCHAR
STARTCHAR 1EF8
ENCODING 7928
SWIDTH 583 0
DWIDTH 7 0
BBX 7 11 0 0
BITMAP
3C
00
C6
44
2C
28
10
10
10
10
10
ENDCHAR
STARTCHAR 1EF9
ENCODING 7929
SWIDTH 583 0
DWIDTH 7 0
BBX 6 13 1 -3
BITMAP
68
68
50
8C
88
C8
58
50
30
20
20
20
C0
ENDCHAR
STARTCHAR 2000
ENCODING 8192
SWIDTH 583 0
DWIDTH 7 0
BBX 0 0 0 0
BITMAP
ENDCHAR
STARTCHAR 2001
ENCODING 8193
SWIDTH 583 0
DWIDTH 7 0
BBX 0 0 0 0
BITMAP
ENDCHAR
STARTCHAR 2002
ENCODING 8194
SWIDTH 583 0
DWIDTH 7 0
BBX 0 0 0 0
BITMAP
ENDCHAR
STARTCHAR 2003
ENCODING 8195
SWIDTH 583 0
DWIDTH 7 0
BBX 0 0 0 0
BITMAP
ENDCHAR
STARTCHAR 2004
ENCODING 8196
SWIDTH 583 0
DWIDTH 7 0
BBX 0 0 0 0
BITMAP
ENDCHAR
STARTCHAR 2005
ENCODING 8197
SWIDTH 583 0
DWIDTH 7 0
BBX 0 0 0 0
BITMAP
ENDCHAR
STARTCHAR 2006
ENCODING 8198
SWIDTH 583 0
DWIDTH 7 0
BBX 0 0 0 0
BITMAP
ENDCHAR
STARTCHAR 2007
ENCODING 8199
SWIDTH 583 0
DWIDTH 7 0
BBX 0 0 0 0
BITMAP
ENDCHAR
STARTCHAR 2008
ENCODING 8200
SWIDTH 583 0
DWIDTH 7 0
BBX 0 0 0 0
BITMAP
ENDCHAR
STARTCHAR 2009
ENCODING 8201
SWIDTH 583 0
DWIDTH 7 0
BBX 0 0 0 0
BITMAP
ENDCHAR
STARTCHAR 200A
ENCODING 8202
SWIDTH 583 0
DWIDTH 7 0
BBX 0 0 0 0
BITMAP
ENDCHAR
STARTCHAR 2010
ENCODING 8208
SWIDTH 583 0
DWIDTH 7 0
BBX 3 1 2 3
BITMAP
E0
ENDCHAR
STARTCHAR 2011
ENCODING 8209
SWIDTH 583 0
DWIDTH 7 0
BBX 3 1 2 3
BITMAP
E0
ENDCHAR
STARTCHAR 2012
ENCODING 8210
SWIDTH 583 0
DWIDTH 7 0
BBX 5 1 1 3
BITMAP
F8
ENDCHAR
STARTCHAR 2013
ENCODING 8211
SWIDTH 583 0
DWIDTH 7 0
BBX 3 1 2 3
BITMAP
E0
ENDCHAR
STARTCHAR 2014
ENCODING 8212
SWIDTH 583 0
DWIDTH 7 0
BBX 7 1 0 3
BITMAP
FE
ENDCHAR
STARTCHAR 2015
ENCODING 8213
SWIDTH 583 0
DWIDTH 7 0
BBX 7 1 0 3
BITMAP
FE
ENDCHAR
STARTCHAR 2016
ENCODING 8214
SWIDTH 583 0
DWIDTH 7 0
BBX 4 13 2 -3
BITMAP
90
90
90
90
90
90
90
90
90
90
90
90
90
ENDCHAR
STARTCHAR 2017
ENCODING 8215
SWIDTH 583 0
DWIDTH 7 0
BBX 7 2 0 -3
BITMAP
FE
FE
ENDCHAR
STARTCHAR 2018
ENCODING 8216
SWIDTH 583 0
DWIDTH 7 0
BBX 2 4 3 6
BITMAP
40
80
80
80
ENDCHAR
STARTCHAR 2019
ENCODING 8217
SWIDTH 583 0
DWIDTH 7 0
BBX 2 4 3 6
BITMAP
C0
C0
80
80
ENDCHAR
STARTCHAR 201A
ENCODING 8218
SWIDTH 583 0
DWIDTH 7 0
BBX 2 4 2 -2
BITMAP
40
40
40
80
ENDCHAR
STARTCHAR 201B
ENCODING 8219
SWIDTH 583 0
DWIDTH 7 0
BBX 2 4 3 6
BITMAP
80
80
80
40
ENDCHAR
STARTCHAR 201C
ENCODING 8220
SWIDTH 583 0
DWIDTH 7 0
BBX 5 4 1 6
BITMAP
48
58
D0
D0
ENDCHAR
STARTCHAR 201D
ENCODING 8221
SWIDTH 583 0
DWIDTH 7 0
BBX 5 4 1 6
BITMAP
58
58
58
90
ENDCHAR
STARTCHAR 201E
ENCODING 8222
SWIDTH 583 0
DWIDTH 7 0
BBX 5 4 1 -2
BITMAP
58
58
58
90
ENDCHAR
STARTCHAR 201F
ENCODING 8223
SWIDTH 583 0
DWIDTH 7 0
BBX 5 4 1 6
BITMAP
D0
D0
58
48
ENDCHAR
STARTCHAR 2020
ENCODING 8224
SWIDTH 583 0
DWIDTH 7 0
BBX 5 10 1 -1
BITMAP
20
20
F8
20
20
20
20
20
20
20
ENDCHAR
STARTCHAR 2021
ENCODING 8225
SWIDTH 583 0
DWIDTH 7 0
BBX 5 10 1 -1
BITMAP
20
20
F8
20
20
20
F8
20
20
20
ENDCHAR
STARTCHAR 2022
ENCODING 8226
SWIDTH 583 0
DWIDTH 7 0
BBX 3 4 2 3
BITMAP
E0
E0
E0
E0
ENDCHAR
STARTCHAR 2023
ENCODING 8227
SWIDTH 583 0
DWIDTH 7 0
BBX 4 5 2 2
BITMAP
80
C0
F0
C0
80
ENDCHAR
STARTCHAR 2024
ENCODING 8228
SWIDTH 583 0
DWIDTH 7 0
BBX 1 2 3 0
BITMAP
80
80
ENDCHAR
STARTCHAR 2025
ENCODING 8229
SWIDTH 583 0
DWIDTH 7 0
BBX 5 2 1 0
BITMAP
D8
D8
ENDCHAR
STARTCHAR 2026
ENCODING 8230
SWIDTH 583 0
DWIDTH 7 0
BBX 7 2 0 0
BITMAP
D6
D6
ENDCHAR
STARTCHAR 2027
ENCODING 8231
SWIDTH 583 0
DWIDTH 7 0
BBX 2 2 3 4
BITMAP
C0
80
ENDCHAR
STARTCHAR 202F
ENCODING 8239
SWIDTH 583 0
DWIDTH 7 0
BBX 0 0 0 0
BITMAP
ENDCHAR
STARTCHAR 2030
ENCODING 8240
SWIDTH 583 0
DWIDTH 7 0
BBX 7 9 0 0
BITMAP
60
A0
A6
78
C0
6E
9A
9A
6E
ENDCHAR
STARTCHAR 2031
ENCODING 8241
SWIDTH 583 0
DWIDTH 7 0
BBX 7 9 0 0
BITMAP
60
A0
A6
78
C0
DE
AA
AA
DE
ENDCHAR
STARTCHAR 2032
ENCODING 8242
SWIDTH 583 0
DWIDTH 7 0
BBX 2 2 3 7
BITMAP
C0
80
ENDCHAR
STARTCHAR 2033
ENCODING 8243
SWIDTH 583 0
DWIDTH 7 0
BBX 4 2 2 7
BITMAP
F0
E0
ENDCHAR
STARTCHAR 2034
ENCODING 8244
SWIDTH 583 0
DWIDTH 7 0
BBX 5 2 1 7
BITMAP
78
B0
ENDCHAR
STARTCHAR 2035
ENCODING 8245
SWIDTH 583 0
DWIDTH 7 0
BBX 2 2 3 7
BITMAP
80
C0
ENDCHAR
STARTCHAR 2036
ENCODING 8246
SWIDTH 583 0
DWIDTH 7 0
BBX 4 2 2 7
BITMAP
E0
70
ENDCHAR
STARTCHAR 2037
ENCODING 8247
SWIDTH 583 0
DWIDTH 7 0
BBX 5 2 1 7
BITMAP
B8
58
ENDCHAR
STARTCHAR 2039
ENCODING 8249
SWIDTH 583 0
DWIDTH 7 0
BBX 3 5 1 1
BITMAP
20
60
C0
60
20
ENDCHAR
STARTCHAR 203A
ENCODING 8250
SWIDTH 583 0
DWIDTH 7 0
BBX 3 5 3 1
BITMAP
80
40
20
40
80
ENDCHAR
STARTCHAR 203C
ENCODING 8252
SWIDTH 583 0
DWIDTH 7 0
BBX 5 9 1 0
BITMAP
58
58
58
48
48
48
00
D8
58
ENDCHAR
STARTCHAR 203D
ENCODING 8253
SWIDTH 583 0
DWIDTH 7 0
BBX 5 9 1 0
BITMAP
70
A8
28
38
30
20
20
20
20
ENDCHAR
STARTCHAR 203E
ENCODING 8254
SWIDTH 583 0
DWIDTH 7 0
BBX 7 1 0 9
BITMAP
FE
ENDCHAR
STARTCHAR 203F
ENCODING 8255
SWIDTH 583 0
DWIDTH 7 0
BBX 8 2 0 -3
BITMAP
83
7C
ENDCHAR
STARTCHAR 2044
ENCODING 8260
SWIDTH 583 0
DWIDTH 7 0
BBX 5 10 1 1
BITMAP
08
08
10
10
20
20
20
40
40
80
ENDCHAR
STARTCHAR 2045
ENCODING 8261
SWIDTH 583 0
DWIDTH 7 0
BBX 2 11 3 -1
BITMAP
C0
80
80
80
80
C0
80
80
80
80
C0
ENDCHAR
STARTCHAR 2046
ENCODING 8262
SWIDTH 583 0
DWIDTH 7 0
BBX 3 11 2 -1
BITMAP
E0
60
60
60
60
E0
60
60
60
60
E0
ENDCHAR
STARTCHAR 2047
ENCODING 8263
SWIDTH 583 0
DWIDTH 7 0
BBX 7 9 0 0
BITMAP
EE
B2
22
26
44
44
00
4C
4C
ENDCHAR
STARTCHAR 2048
ENCODING 8264
SWIDTH 583 0
DWIDTH 7 0
BBX 6 9 0 0
BITMAP
E4
A4
24
24
44
44
00
44
4C
ENDCHAR
STARTCHAR 2049
ENCODING 8265
SWIDTH 583 0
DWIDTH 7 0
BBX 6 9 1 0
BITMAP
9C
A4
84
8C
88
88
00
D8
D8
ENDCHAR
STARTCHAR 204B
ENCODING 8267
SWIDTH 583 0
DWIDTH 7 0
BBX 6 10 1 -1
BITMAP
F8
B8
BC
BC
B8
A0
A0
A0
A0
A0
ENDCHAR
STARTCHAR 205F
ENCODING 8287
SWIDTH 583 0
DWIDTH 7 0
BBX 0 0 0 0
BITMAP
ENDCHAR
STARTCHAR 2070
ENCODING 8304
SWIDTH 583 0
DWIDTH 7 0
BBX 3 4 2 7
BITMAP
E0
E0
A0
E0
ENDCHAR
STARTCHAR 2074
ENCODING 8308
SWIDTH 583 0
DWIDTH 7 0
BBX 3 4 2 7
BITMAP
60
A0
E0
20
ENDCHAR
STARTCHAR 2075
ENCODING 8309
SWIDTH 583 0
DWIDTH 7 0
BBX 3 4 2 7
BITMAP
E0
20
20
E0
ENDCHAR
STARTCHAR 2076
ENCODING 8310
SWIDTH 583 0
DWIDTH 7 0
BBX 3 4 2 7
BITMAP
E0
A0
A0
E0
ENDCHAR
STARTCHAR 2077
ENCODING 8311
SWIDTH 583 0
DWIDTH 7 0
BBX 3 4 2 7
BITMAP
E0
20
40
40
ENDCHAR
STARTCHAR 2078
ENCODING 8312
SWIDTH 583 0
DWIDTH 7 0
BBX 3 4 2 7
BITMAP
E0
40
A0
E0
ENDCHAR
STARTCHAR 2079
ENCODING 8313
SWIDTH 583 0
DWIDTH 7 0
BBX 3 4 2 7
BITMAP
E0
E0
20
E0
ENDCHAR
STARTCHAR 207A
ENCODING 8314
SWIDTH 583 0
DWIDTH 7 0
BBX 4 3 2 4
BITMAP
40
F0
40
ENDCHAR
STARTCHAR 207B
ENCODING 8315
SWIDTH 583 0
DWIDTH 7 0
BBX 4 1 2 6
BITMAP
F0
ENDCHAR
STARTCHAR 207C
ENCODING 8316
SWIDTH 583 0
DWIDTH 7 0
BBX 4 3 2 5
BITMAP
F0
00
F0
ENDCHAR
STARTCHAR 207D
ENCODING 8317
SWIDTH 583 0
DWIDTH 7 0
BBX 1 6 3 3
BITMAP
80
80
80
80
80
80
ENDCHAR
STARTCHAR 207E
ENCODING 8318
SWIDTH 583 0
DWIDTH 7 0
BBX 1 6 3 3
BITMAP
80
80
80
80
80
80
ENDCHAR
STARTCHAR 208A
ENCODING 8330
SWIDTH 583 0
DWIDTH 7 0
BBX 4 4 2 0
BITMAP
40
40
F0
40
ENDCHAR
STARTCHAR 208B
ENCODING 8331
SWIDTH 583 0
DWIDTH 7 0
BBX 4 1 2 2
BITMAP
F0
ENDCHAR
STARTCHAR 208C
ENCODING 8332
SWIDTH 583 0
DWIDTH 7 0
BBX 4 2 2 1
BITMAP
F0
F0
ENDCHAR
STARTCHAR 208D
ENCODING 8333
SWIDTH 583 0
DWIDTH 7 0
BBX 1 6 3 -1
BITMAP
80
80
80
80
80
80
ENDCHAR
STARTCHAR 208E
ENCODING 8334
SWIDTH 583 0
DWIDTH 7 0
BBX 1 6 3 -1
BITMAP
80
80
80
80
80
80
ENDCHAR
STARTCHAR 20A0
ENCODING 8352
SWIDTH 583 0
DWIDTH 7 0
BBX 7 9 0 0
BITMAP
70
90
8E
88
88
8E
78
08
0E
ENDCHAR
STARTCHAR 20A1
ENCODING 8353
SWIDTH 583 0
DWIDTH 7 0
BBX 6 10 1 0
BITMAP
18
7C
EC
A8
B0
B0
D0
D0
E4
78
ENDCHAR
STARTCHAR 20A2
ENCODING 8354
SWIDTH 583 0
DWIDTH 7 0
BBX 6 9 1 0
BITMAP
78
C4
80
9C
90
90
90
D4
78
ENDCHAR
STARTCHAR 20A3
ENCODING 8355
SWIDTH 583 0
DWIDTH 7 0
BBX 6 9 0 0
BITMAP
7C
60
60
60
7C
60
F0
60
60
ENDCHAR
STARTCHAR 20A4
ENCODING 8356
SWIDTH 583 0
DWIDTH 7 0
BBX 6 9 1 0
BITMAP
3C
60
40
F8
40
F8
40
40
FC
ENDCHAR
STARTCHAR 20A5
ENCODING 8357
SWIDTH 583 0
DWIDTH 7 0
BBX 6 9 1 -1
BITMAP
10
F8
A4
A4
A4
A4
A4
E4
40
ENDCHAR
STARTCHAR 20A6
ENCODING 8358
SWIDTH 583 0
DWIDTH 7 0
BBX 7 9 0 0
BITMAP
64
64
74
FE
54
FE
4C
4C
4C
ENDCHAR
STARTCHAR 20A7
ENCODING 8359
SWIDTH 583 0
DWIDTH 7 0
BBX 7 9 0 0
BITMAP
D0
B0
BE
B4
D4
96
92
92
9E
ENDCHAR
STARTCHAR 20A8
ENCODING 8360
SWIDTH 583 0
DWIDTH 7 0
BBX 7 9 0 0
BITMAP
E0
90
9E
98
E8
A6
92
92
9E
ENDCHAR
STARTCHAR 20A9
ENCODING 8361
SWIDTH 583 0
DWIDTH 7 0
BBX 7 9 0 0
BITMAP
92
FE
92
FE
5A
6C
6C
6C
64
ENDCHAR
STARTCHAR 20AA
ENCODING 8362
SWIDTH 583 0
DWIDTH 7 0
BBX 7 9 0 0
BITMAP
F2
8A
8A
AA
AA
AA
A2
A2
9E
ENDCHAR
STARTCHAR 20AB
ENCODING 8363
SWIDTH 583 0
DWIDTH 7 0
BBX 7 12 1 -2
BITMAP
04
1E
04
34
4C
44
C4
44
4C
34
00
38
ENDCHAR
STARTCHAR 20AC
ENCODING 8364
SWIDTH 583 0
DWIDTH 7 0
BBX 6 9 0 0
BITMAP
1C
24
60
F8
40
F0
60
24
1C
ENDCHAR
STARTCHAR 20AD
ENCODING 8365
SWIDTH 583 0
DWIDTH 7 0
BBX 7 9 0 0
BITMAP
46
48
58
50
FC
50
58
4C
46
ENDCHAR
STARTCHAR 20AE
ENCODING 8366
SWIDTH 583 0
DWIDTH 7 0
BBX 7 9 0 0
BITMAP
FE
10
1C
10
3C
50
70
10
10
ENDCHAR
STARTCHAR 20AF
ENCODING 8367
SWIDTH 583 0
DWIDTH 7 0
BBX 7 12 0 -3
BITMAP
70
70
28
28
4A
4E
CE
D6
F6
04
08
08
ENDCHAR
STARTCHAR 20B0
ENCODING 8368
SWIDTH 583 0
DWIDTH 7 0
BBX 7 9 0 0
BITMAP
1C
14
14
1C
6C
9E
02
06
0C
ENDCHAR
STARTCHAR 20B1
ENCODING 8369
SWIDTH 583 0
DWIDTH 7 0
BBX 6 9 1 0
BITMAP
F8
FC
8C
FC
F8
80
80
80
80
ENDCHAR
STARTCHAR 20B2
ENCODING 8370
SWIDTH 583 0
DWIDTH 7 0
BBX 7 11 0 -1
BITMAP
10
3C
52
50
D0
D6
D2
52
52
3C
10
ENDCHAR
STARTCHAR 20B3
ENCODING 8371
SWIDTH 583 0
DWIDTH 7 0
BBX 7 9 0 0
BITMAP
10
18
28
FE
24
FE
44
46
C2
ENDCHAR
STARTCHAR 20B4
ENCODING 8372
SWIDTH 583 0
DWIDTH 7 0
BBX 7 9 0 0
BITMAP
78
44
04
FE
38
FE
40
42
3C
ENDCHAR
STARTCHAR 20B5
ENCODING 8373
SWIDTH 583 0
DWIDTH 7 0
BBX 5 11 1 -1
BITMAP
10
10
78
D8
90
90
90
90
D8
78
10
ENDCHAR
STARTCHAR 20B7
ENCODING 8375
SWIDTH 583 0
DWIDTH 7 0
BBX 7 10 0 -1
BITMAP
1E
22
20
20
1C
06
56
B4
F8
D0
ENDCHAR
STARTCHAR 20B8
ENCODING 8376
SWIDTH 583 0
DWIDTH 7 0
BBX 7 9 0 0
BITMAP
FE
00
FE
10
10
10
10
10
10
ENDCHAR
STARTCHAR 20B9
ENCODING 8377
SWIDTH 583 0
DWIDTH 7 0
BBX 6 9 1 0
BITMAP
FC
30
FC
10
E0
20
10
10
08
ENDCHAR
STARTCHAR 2116
ENCODING 8470
SWIDTH 583 0
DWIDTH 7 0
BBX 7 9 0 0
BITMAP
96
DA
DA
DA
D4
BE
B0
B0
B0
ENDCHAR
STARTCHAR 2122
ENCODING 8482
SWIDTH 583 0
DWIDTH 7 0
BBX 7 3 0 6
BITMAP
F6
5E
52
ENDCHAR
STARTCHAR 2126
ENCODING 8486
SWIDTH 583 0
DWIDTH 7 0
BBX 7 9 0 0
BITMAP
38
44
44
42
C2
46
44
64
EE
ENDCHAR
STARTCHAR 2150
ENCODING 8528
SWIDTH 583 0
DWIDTH 7 0
BBX 7 12 0 -1
BITMAP
60
A0
20
20
20
70
3E
DC
04
04
08
08
ENDCHAR
STARTCHAR 2151
ENCODING 8529
SWIDTH 583 0
DWIDTH 7 0
BBX 7 12 0 -2
BITMAP
E0
20
20
20
70
3E
DC
14
12
1C
04
1C
ENDCHAR
STARTCHAR 2153
ENCODING 8531
SWIDTH 583 0
DWIDTH 7 0
BBX 7 12 0 -2
BITMAP
E0
20
20
20
70
0E
70
9C
02
0C
02
1C
ENDCHAR
STARTCHAR 2154
ENCODING 8532
SWIDTH 583 0
DWIDTH 7 0
BBX 7 12 0 -2
BITMAP
E0
10
20
40
F0
0E
70
9C
02
0C
02
1C
ENDCHAR
STARTCHAR 2155
ENCODING 8533
SWIDTH 583 0
DWIDTH 7 0
BBX 7 12 0 -2
BITMAP
E0
20
20
20
70
0E
70
9C
1C
04
04
1C
ENDCHAR
STARTCHAR 2156
ENCODING 8534
SWIDTH 583 0
DWIDTH 7 0
BBX 7 12 0 -2
BITMAP
E0
10
20
40
F0
0E
70
9C
1C
04
04
1C
ENDCHAR
STARTCHAR 2157
ENCODING 8535
SWIDTH 583 0
DWIDTH 7 0
BBX 7 12 0 -2
BITMAP
60
10
60
10
E2
1C
60
9C
1C
04
04
1C
ENDCHAR
STARTCHAR 2158
ENCODING 8536
SWIDTH 583 0
DWIDTH 7 0
BBX 7 12 0 -2
BITMAP
20
60
A0
F0
20
3E
DC
10
1C
04
04
1C
ENDCHAR
STARTCHAR 2159
ENCODING 8537
SWIDTH 583 0
DWIDTH 7 0
BBX 7 12 0 -2
BITMAP
E0
20
20
20
70
3E
CC
10
1C
12
12
0C
ENDCHAR
STARTCHAR 215A
ENCODING 8538
SWIDTH 583 0
DWIDTH 7 0
BBX 7 12 0 -2
BITMAP
60
80
60
10
10
E6
DC
10
1C
12
12
0C
ENDCHAR
STARTCHAR 215B
ENCODING 8539
SWIDTH 583 0
DWIDTH 7 0
BBX 7 12 0 -2
BITMAP
E0
20
20
20
70
3E
CC
12
14
0C
12
1C
ENDCHAR
STARTCHAR 215C
ENCODING 8540
SWIDTH 583 0
DWIDTH 7 0
BBX 7 12 0 -2
BITMAP
60
10
60
10
E2
3C
CC
12
14
0C
12
1C
ENDCHAR
STARTCHAR 215D
ENCODING 8541
SWIDTH 583 0
DWIDTH 7 0
BBX 7 12 0 -2
BITMAP
60
80
60
10
10
E6
DC
12
14
0C
12
1C
ENDCHAR
STARTCHAR 215E
ENCODING 8542
SWIDTH 583 0
DWIDTH 7 0
BBX 7 12 0 -2
BITMAP
F0
20
20
20
42
3C
CC
12
14
0C
12
1C
ENDCHAR
STARTCHAR 215F
ENCODING 8543
SWIDTH 583 0
DWIDTH 7 0
BBX 7 7 0 3
BITMAP
E0
20
20
20
72
3C
C0
ENDCHAR
STARTCHAR 2190
ENCODING 8592
SWIDTH 583 0
DWIDTH 7 0
BBX 7 4 0 3
BITMAP
20
40
FE
60
ENDCHAR
STARTCHAR 2191
ENCODING 8593
SWIDTH 583 0
DWIDTH 7 0
BBX 4 7 2 0
BITMAP
40
F0
40
40
40
40
40
ENDCHAR
STARTCHAR 2192
ENCODING 8594
SWIDTH 583 0
DWIDTH 7 0
BBX 7 4 0 3
BITMAP
04
04
FE
04
ENDCHAR
STARTCHAR 2193
ENCODING 8595
SWIDTH 583 0
DWIDTH 7 0
BBX 4 7 2 0
BITMAP
40
40
40
40
40
F0
40
ENDCHAR
STARTCHAR 2194
ENCODING 8596
SWIDTH 583 0
DWIDTH 7 0
BBX 7 5 0 1
BITMAP
24
44
FE
44
24
ENDCHAR
STARTCHAR 2195
ENCODING 8597
SWIDTH 583 0
DWIDTH 7 0
BBX 4 7 2 0
BITMAP
40
F0
40
40
40
F0
40
ENDCHAR
STARTCHAR 2196
ENCODING 8598
SWIDTH 583 0
DWIDTH 7 0
BBX 5 5 1 0
BITMAP
E0
C0
A0
10
08
ENDCHAR
STARTCHAR 2197
ENCODING 8599
SWIDTH 583 0
DWIDTH 7 0
BBX 5 5 1 0
BITMAP
38
18
38
60
C0
ENDCHAR
STARTCHAR 2198
ENCODING 8600
SWIDTH 583 0
DWIDTH 7 0
BBX 5 5 1 0
BITMAP
C0
60
28
18
38
ENDCHAR
STARTCHAR 2199
ENCODING 8601
SWIDTH 583 0
DWIDTH 7 0
BBX 5 5 1 0
BITMAP
08
10
A0
C0
E0
ENDCHAR
STARTCHAR 219A
ENCODING 8602
SWIDTH 583 0
DWIDTH 7 0
BBX 7 5 0 1
BITMAP
24
44
FE
58
28
ENDCHAR
STARTCHAR 219B
ENCODING 8603
SWIDTH 583 0
DWIDTH 7 0
BBX 7 5 0 1
BITMAP
14
34
FE
44
44
ENDCHAR
STARTCHAR 219C
ENCODING 8604
SWIDTH 583 0
DWIDTH 7 0
BBX 6 3 1 2
BITMAP
D8
94
E0
ENDCHAR
STARTCHAR 219D
ENCODING 8605
SWIDTH 583 0
DWIDTH 7 0
BBX 6 3 1 2
BITMAP
DC
AC
34
ENDCHAR
STARTCHAR 219E
ENCODING 8606
SWIDTH 583 0
DWIDTH 7 0
BBX 7 5 0 1
BITMAP
28
50
FE
50
28
ENDCHAR
STARTCHAR 219F
ENCODING 8607
SWIDTH 583 0
DWIDTH 7 0
BBX 4 7 2 0
BITMAP
40
F0
40
E0
D0
40
40
ENDCHAR
STARTCHAR 21A0
ENCODING 8608
SWIDTH 583 0
DWIDTH 7 0
BBX 7 5 0 1
BITMAP
14
14
FE
14
14
ENDCHAR
STARTCHAR 21A1
ENCODING 8609
SWIDTH 583 0
DWIDTH 7 0
BBX 4 7 2 0
BITMAP
40
40
40
F0
40
F0
40
ENDCHAR
STARTCHAR 21A2
ENCODING 8610
SWIDTH 583 0
DWIDTH 7 0
BBX 7 5 0 1
BITMAP
22
44
F8
44
22
ENDCHAR
STARTCHAR 21A3
ENCODING 8611
SWIDTH 583 0
DWIDTH 7 0
BBX 7 5 0 1
BITMAP
84
44
3E
44
84
ENDCHAR
STARTCHAR 21A4
ENCODING 8612
SWIDTH 583 0
DWIDTH 7 0
BBX 7 4 0 1
BITMAP
62
FE
42
22
ENDCHAR
STARTCHAR 21A5
ENCODING 8613
SWIDTH 583 0
DWIDTH 7 0
BBX 4 7 2 0
BITMAP
40
F0
40
40
40
40
F0
ENDCHAR
STARTCHAR 21A6
ENCODING 8614
SWIDTH 583 0
DWIDTH 7 0
BBX 7 4 0 1
BITMAP
84
FE
84
84
ENDCHAR
STARTCHAR 21A7
ENCODING 8615
SWIDTH 583 0
DWIDTH 7 0
BBX 4 7 2 0
BITMAP
F0
40
40
40
40
F0
40
ENDCHAR
STARTCHAR 21A8
ENCODING 8616
SWIDTH 583 0
DWIDTH 7 0
BBX 4 7 2 0
BITMAP
40
F0
40
40
F0
60
F0
ENDCHAR
STARTCHAR 21A9
ENCODING 8617
SWIDTH 583 0
DWIDTH 7 0
BBX 7 6 0 1
BITMAP
04
22
42
FC
40
20
ENDCHAR
STARTCHAR 21AA
ENCODING 8618
SWIDTH 583 0
DWIDTH 7 0
BBX 7 6 0 1
BITMAP
40
84
84
7E
04
04
ENDCHAR
STARTCHAR 21AB
ENCODING 8619
SWIDTH 583 0
DWIDTH 7 0
BBX 7 6 0 1
BITMAP
0C
2A
52
FC
50
20
ENDCHAR
STARTCHAR 21AC
ENCODING 8620
SWIDTH 583 0
DWIDTH 7 0
BBX 7 6 0 1
BITMAP
60
94
94
7E
14
04
ENDCHAR
STARTCHAR 21AD
ENCODING 8621
SWIDTH 583 0
DWIDTH 7 0
BBX 7 4 0 1
BITMAP
24
D2
6E
24
ENDCHAR
STARTCHAR 21AE
ENCODING 8622
SWIDTH 583 0
DWIDTH 7 0
BBX 7 5 0 1
BITMAP
34
54
FE
54
34
ENDCHAR
STARTCHAR 21AF
ENCODING 8623
SWIDTH 583 0
DWIDTH 7 0
BBX 6 8 1 0
BITMAP
84
98
B8
C8
90
10
3C
10
ENDCHAR
STARTCHAR 21B0
ENCODING 8624
SWIDTH 583 0
DWIDTH 7 0
BBX 5 9 1 0
BITMAP
40
40
F8
48
48
08
08
08
08
ENDCHAR
STARTCHAR 21B1
ENCODING 8625
SWIDTH 583 0
DWIDTH 7 0
BBX 5 9 1 0
BITMAP
10
10
F8
90
90
80
80
80
80
ENDCHAR
STARTCHAR 21B2
ENCODING 8626
SWIDTH 583 0
DWIDTH 7 0
BBX 5 9 1 0
BITMAP
08
08
08
08
48
48
F8
40
40
ENDCHAR
STARTCHAR 21B3
ENCODING 8627
SWIDTH 583 0
DWIDTH 7 0
BBX 5 9 1 0
BITMAP
80
80
80
80
90
90
F8
10
10
ENDCHAR
STARTCHAR 21B4
ENCODING 8628
SWIDTH 583 0
DWIDTH 7 0
BBX 5 7 1 0
BITMAP
F0
10
10
10
10
78
30
ENDCHAR
STARTCHAR 21B5
ENCODING 8629
SWIDTH 583 0
DWIDTH 7 0
BBX 7 6 0 0
BITMAP
02
02
62
FE
40
20
ENDCHAR
STARTCHAR 21B6
ENCODING 8630
SWIDTH 583 0
DWIDTH 7 0
BBX 7 4 0 2
BITMAP
1C
22
F0
20
ENDCHAR
STARTCHAR 21B7
ENCODING 8631
SWIDTH 583 0
DWIDTH 7 0
BBX 7 4 0 2
BITMAP
70
48
9E
0C
ENDCHAR
STARTCHAR 21B8
ENCODING 8632
SWIDTH 583 0
DWIDTH 7 0
BBX 7 6 0 0
BITMAP
FE
70
60
50
08
04
ENDCHAR
STARTCHAR 21B9
ENCODING 8633
SWIDTH 583 0
DWIDTH 7 0
BBX 7 8 0 0
BITMAP
90
A0
FE
B0
0A
FE
0A
0A
ENDCHAR
STARTCHAR 21BA
ENCODING 8634
SWIDTH 583 0
DWIDTH 7 0
BBX 6 6 1 0
BITMAP
1C
98
98
88
88
70
ENDCHAR
STARTCHAR 21BB
ENCODING 8635
SWIDTH 583 0
DWIDTH 7 0
BBX 6 6 1 0
BITMAP
C0
C8
C4
84
88
70
ENDCHAR
STARTCHAR 21BC
ENCODING 8636
SWIDTH 583 0
DWIDTH 7 0
BBX 7 3 0 3
BITMAP
20
40
FE
ENDCHAR
STARTCHAR 21BD
ENCODING 8637
SWIDTH 583 0
DWIDTH 7 0
BBX 7 3 0 1
BITMAP
FE
40
20
ENDCHAR
STARTCHAR 21BE
ENCODING 8638
SWIDTH 583 0
DWIDTH 7 0
BBX 3 7 3 0
BITMAP
80
E0
80
80
80
80
80
ENDCHAR
STARTCHAR 21BF
ENCODING 8639
SWIDTH 583 0
DWIDTH 7 0
BBX 2 7 2 0
BITMAP
40
C0
40
40
40
40
40
ENDCHAR
STARTCHAR 21C0
ENCODING 8640
SWIDTH 583 0
DWIDTH 7 0
BBX 7 3 0 3
BITMAP
04
04
FE
ENDCHAR
STARTCHAR 21C1
ENCODING 8641
SWIDTH 583 0
DWIDTH 7 0
BBX 7 3 0 1
BITMAP
FE
04
04
ENDCHAR
STARTCHAR 21C2
ENCODING 8642
SWIDTH 583 0
DWIDTH 7 0
BBX 3 7 3 0
BITMAP
80
80
80
80
80
E0
80
ENDCHAR
STARTCHAR 21C3
ENCODING 8643
SWIDTH 583 0
DWIDTH 7 0
BBX 2 7 2 0
BITMAP
40
40
40
40
40
C0
40
ENDCHAR
STARTCHAR 21C4
ENCODING 8644
SWIDTH 583 0
DWIDTH 7 0
BBX 7 7 0 1
BITMAP
04
04
FE
24
44
FE
60
ENDCHAR
STARTCHAR 21C5
ENCODING 8645
SWIDTH 583 0
DWIDTH 7 0
BBX 7 7 0 0
BITMAP
24
F4
24
24
24
36
2C
ENDCHAR
STARTCHAR 21C6
ENCODING 8646
SWIDTH 583 0
DWIDTH 7 0
BBX 7 7 0 1
BITMAP
20
40
FE
44
24
FE
04
ENDCHAR
STARTCHAR 21C7
ENCODING 8647
SWIDTH 583 0
DWIDTH 7 0
BBX 7 7 0 1
BITMAP
20
40
FE
40
60
FE
60
ENDCHAR
STARTCHAR 21C8
ENCODING 8648
SWIDTH 583 0
DWIDTH 7 0
BBX 7 7 0 0
BITMAP
2C
FE
24
24
24
24
24
ENDCHAR
STARTCHAR 21C9
ENCODING 8649
SWIDTH 583 0
DWIDTH 7 0
BBX 7 7 0 1
BITMAP
04
04
FE
04
04
FE
04
ENDCHAR
STARTCHAR 21CA
ENCODING 8650
SWIDTH 583 0
DWIDTH 7 0
BBX 7 7 0 0
BITMAP
24
24
24
24
24
F6
6C
ENDCHAR
STARTCHAR 21CB
ENCODING 8651
SWIDTH 583 0
DWIDTH 7 0
BBX 7 6 0 1
BITMAP
20
40
FE
00
FE
04
ENDCHAR
STARTCHAR 21CC
ENCODING 8652
SWIDTH 583 0
DWIDTH 7 0
BBX 7 6 0 1
BITMAP
04
04
FE
00
FE
60
ENDCHAR
STARTCHAR 21CD
ENCODING 8653
SWIDTH 583 0
DWIDTH 7 0
BBX 7 4 0 1
BITMAP
24
7E
FE
30
ENDCHAR
STARTCHAR 21CE
ENCODING 8654
SWIDTH 583 0
DWIDTH 7 0
BBX 7 4 0 1
BITMAP
34
7E
FC
34
ENDCHAR
STARTCHAR 21CF
ENCODING 8655
SWIDTH 583 0
DWIDTH 7 0
BBX 7 4 0 1
BITMAP
14
FE
FC
44
ENDCHAR
STARTCHAR 21D0
ENCODING 8656
SWIDTH 583 0
DWIDTH 7 0
BBX 7 4 0 1
BITMAP
20
7E
FE
20
ENDCHAR
STARTCHAR 21D1
ENCODING 8657
SWIDTH 583 0
DWIDTH 7 0
BBX 4 7 2 0
BITMAP
40
B0
A0
A0
A0
A0
A0
ENDCHAR
STARTCHAR 21D2
ENCODING 8658
SWIDTH 583 0
DWIDTH 7 0
BBX 7 4 0 1
BITMAP
04
FE
FC
04
ENDCHAR
STARTCHAR 21D3
ENCODING 8659
SWIDTH 583 0
DWIDTH 7 0
BBX 4 7 2 0
BITMAP
A0
A0
A0
A0
A0
B0
40
ENDCHAR
STARTCHAR 21D4
ENCODING 8660
SWIDTH 583 0
DWIDTH 7 0
BBX 7 4 0 1
BITMAP
24
7E
FC
24
ENDCHAR
STARTCHAR 21D5
ENCODING 8661
SWIDTH 583 0
DWIDTH 7 0
BBX 4 7 2 0
BITMAP
40
B0
A0
A0
A0
B0
40
ENDCHAR
STARTCHAR 21D6
ENCODING 8662
SWIDTH 583 0
DWIDTH 7 0
BBX 5 6 1 -1
BITMAP
E0
A0
D0
28
18
10
ENDCHAR
STARTCHAR 21D7
ENCODING 8663
SWIDTH 583 0
DWIDTH 7 0
BBX 5 6 1 -1
BITMAP
18
18
28
50
A0
40
ENDCHAR
STARTCHAR 21D8
ENCODING 8664
SWIDTH 583 0
DWIDTH 7 0
BBX 5 6 1 0
BITMAP
40
A0
50
48
28
18
ENDCHAR
STARTCHAR 21D9
ENCODING 8665
SWIDTH 583 0
DWIDTH 7 0
BBX 5 6 1 0
BITMAP
10
18
28
D0
A0
E0
ENDCHAR
STARTCHAR 21DA
ENCODING 8666
SWIDTH 583 0
DWIDTH 7 0
BBX 7 5 0 1
BITMAP
20
7E
FE
7E
20
ENDCHAR
STARTCHAR 21DB
ENCODING 8667
SWIDTH 583 0
DWIDTH 7 0
BBX 7 5 0 1
BITMAP
04
FC
FE
FC
04
ENDCHAR
STARTCHAR 21DC
ENCODING 8668
SWIDTH 583 0
DWIDTH 7 0
BBX 7 5 0 1
BITMAP
20
54
FE
6A
20
ENDCHAR
STARTCHAR 21DD
ENCODING 8669
SWIDTH 583 0
DWIDTH 7 0
BBX 7 5 0 1
BITMAP
04
54
FE
AC
04
ENDCHAR
STARTCHAR 21E0
ENCODING 8672
SWIDTH 583 0
DWIDTH 7 0
BBX 7 5 0 1
BITMAP
20
40
EA
40
20
ENDCHAR
STARTCHAR 21E1
ENCODING 8673
SWIDTH 583 0
DWIDTH 7 0
BBX 4 7 2 0
BITMAP
40
F0
40
00
40
00
40
ENDCHAR
STARTCHAR 21E2
ENCODING 8674
SWIDTH 583 0
DWIDTH 7 0
BBX 7 5 0 1
BITMAP
04
04
AE
04
04
ENDCHAR
STARTCHAR 21E3
ENCODING 8675
SWIDTH 583 0
DWIDTH 7 0
BBX 4 7 2 0
BITMAP
40
00
40
00
40
F0
40
ENDCHAR
STARTCHAR 21E4
ENCODING 8676
SWIDTH 583 0
DWIDTH 7 0
BBX 7 4 0 1
BITMAP
B0
FE
A0
90
ENDCHAR
STARTCHAR 21E5
ENCODING 8677
SWIDTH 583 0
DWIDTH 7 0
BBX 7 4 0 1
BITMAP
0A
FE
0A
0A
ENDCHAR
STARTCHAR 21E6
ENCODING 8678
SWIDTH 583 0
DWIDTH 7 0
BBX 7 4 0 1
BITMAP
40
BE
BE
40
ENDCHAR
STARTCHAR 21E7
ENCODING 8679
SWIDTH 583 0
DWIDTH 7 0
BBX 5 7 1 0
BITMAP
20
50
D8
50
50
50
30
ENDCHAR
STARTCHAR 21E8
ENCODING 8680
SWIDTH 583 0
DWIDTH 7 0
BBX 7 4 0 1
BITMAP
04
FA
FA
04
ENDCHAR
STARTCHAR 21E9
ENCODING 8681
SWIDTH 583 0
DWIDTH 7 0
BBX 5 8 1 -1
BITMAP
30
50
50
50
50
D8
50
20
ENDCHAR
STARTCHAR 21EB
ENCODING 8683
SWIDTH 583 0
DWIDTH 7 0
BBX 5 7 1 0
BITMAP
20
50
D8
50
50
D8
F8
ENDCHAR
STARTCHAR 21EC
ENCODING 8684
SWIDTH 583 0
DWIDTH 7 0
BBX 5 7 1 0
BITMAP
20
30
D8
50
50
D8
F8
ENDCHAR
STARTCHAR 21ED
ENCODING 8685
SWIDTH 583 0
DWIDTH 7 0
BBX 5 7 1 0
BITMAP
20
30
F8
30
30
F8
F8
ENDCHAR
STARTCHAR 21EE
ENCODING 8686
SWIDTH 583 0
DWIDTH 7 0
BBX 5 7 1 0
BITMAP
20
70
50
D8
50
50
30
ENDCHAR
STARTCHAR 21EF
ENCODING 8687
SWIDTH 583 0
DWIDTH 7 0
BBX 5 7 1 0
BITMAP
20
70
50
D8
50
D8
F8
ENDCHAR
STARTCHAR 21F0
ENCODING 8688
SWIDTH 583 0
DWIDTH 7 0
BBX 7 5 0 1
BITMAP
C4
BC
82
BC
C4
ENDCHAR
STARTCHAR 21F1
ENCODING 8689
SWIDTH 583 0
DWIDTH 7 0
BBX 7 7 0 0
BITMAP
FE
80
B8
B0
B8
84
82
ENDCHAR
STARTCHAR 21F2
ENCODING 8690
SWIDTH 583 0
DWIDTH 7 0
BBX 7 7 0 0
BITMAP
C2
42
22
16
0A
1A
FE
ENDCHAR
STARTCHAR 21F3
ENCODING 8691
SWIDTH 583 0
DWIDTH 7 0
BBX 5 8 1 0
BITMAP
20
50
D8
50
50
D8
50
20
ENDCHAR
STARTCHAR 21F4
ENCODING 8692
SWIDTH 583 0
DWIDTH 7 0
BBX 7 4 0 2
BITMAP
24
54
FE
74
ENDCHAR
STARTCHAR 21F5
ENCODING 8693
SWIDTH 583 0
DWIDTH 7 0
BBX 7 7 0 0
BITMAP
2C
3E
24
24
24
F4
64
ENDCHAR
STARTCHAR 21F6
ENCODING 8694
SWIDTH 583 0
DWIDTH 7 0
BBX 7 11 0 -2
BITMAP
04
04
FE
04
04
FE
04
04
FE
04
04
ENDCHAR
STARTCHAR 21F7
ENCODING 8695
SWIDTH 583 0
DWIDTH 7 0
BBX 7 4 0 1
BITMAP
68
FE
48
28
ENDCHAR
STARTCHAR 21F8
ENCODING 8696
SWIDTH 583 0
DWIDTH 7 0
BBX 7 4 0 1
BITMAP
14
FE
14
14
ENDCHAR
STARTCHAR 21F9
ENCODING 8697
SWIDTH 583 0
DWIDTH 7 0
BBX 7 4 0 1
BITMAP
74
FE
54
34
ENDCHAR
STARTCHAR 21FA
ENCODING 8698
SWIDTH 583 0
DWIDTH 7 0
BBX 7 4 0 1
BITMAP
74
FE
54
34
ENDCHAR
STARTCHAR 21FB
ENCODING 8699
SWIDTH 583 0
DWIDTH 7 0
BBX 7 4 0 1
BITMAP
54
FE
54
54
ENDCHAR
STARTCHAR 21FC
ENCODING 8700
SWIDTH 583 0
DWIDTH 7 0
BBX 7 4 0 1
BITMAP
7C
FE
5C
2C
ENDCHAR
STARTCHAR 21FD
ENCODING 8701
SWIDTH 583 0
DWIDTH 7 0
BBX 7 5 0 1
BITMAP
20
40
BE
40
20
ENDCHAR
STARTCHAR 21FE
ENCODING 8702
SWIDTH 583 0
DWIDTH 7 0
BBX 7 5 0 1
BITMAP
04
04
FA
04
04
ENDCHAR
STARTCHAR 21FF
ENCODING 8703
SWIDTH 583 0
DWIDTH 7 0
BBX 7 5 0 1
BITMAP
24
44
BA
44
24
ENDCHAR
STARTCHAR 2200
ENCODING 8704
SWIDTH 583 0
DWIDTH 7 0
BBX 7 9 0 0
BITMAP
C2
46
7C
44
2C
28
28
38
10
ENDCHAR
STARTCHAR 2201
ENCODING 8705
SWIDTH 583 0
DWIDTH 7 0
BBX 6 9 1 0
BITMAP
70
C8
8C
80
80
80
8C
C8
70
ENDCHAR
STARTCHAR 2202
ENCODING 8706
SWIDTH 583 0
DWIDTH 7 0
BBX 5 8 1 0
BITMAP
30
48
08
78
C8
88
90
70
ENDCHAR
STARTCHAR 2203
ENCODING 8707
SWIDTH 583 0
DWIDTH 7 0
BBX 5 9 1 0
BITMAP
F8
08
08
08
F8
08
08
08
F8
ENDCHAR
STARTCHAR 2204
ENCODING 8708
SWIDTH 583 0
DWIDTH 7 0
BBX 5 11 1 -1
BITMAP
10
F8
18
28
28
F8
48
48
48
F8
80
ENDCHAR
STARTCHAR 2205
ENCODING 8709
SWIDTH 583 0
DWIDTH 7 0
BBX 7 7 0 0
BITMAP
3A
44
4A
92
62
44
F8
ENDCHAR
STARTCHAR 2206
ENCODING 8710
SWIDTH 583 0
DWIDTH 7 0
BBX 7 9 0 0
BITMAP
10
18
28
28
24
44
44
42
FE
ENDCHAR
STARTCHAR 2207
ENCODING 8711
SWIDTH 583 0
DWIDTH 7 0
BBX 7 9 0 0
BITMAP
FE
C2
44
44
64
28
28
38
10
ENDCHAR
STARTCHAR 2208
ENCODING 8712
SWIDTH 583 0
DWIDTH 7 0
BBX 5 9 1 0
BITMAP
78
40
80
80
F8
80
80
40
78
ENDCHAR
STARTCHAR 2209
ENCODING 8713
SWIDTH 583 0
DWIDTH 7 0
BBX 5 11 1 -1
BITMAP
08
78
50
90
90
F8
A0
A0
E0
78
40
ENDCHAR
STARTCHAR 220A
ENCODING 8714
SWIDTH 583 0
DWIDTH 7 0
BBX 5 6 1 1
BITMAP
78
80
F8
80
C0
78
ENDCHAR
STARTCHAR 220B
ENCODING 8715
SWIDTH 583 0
DWIDTH 7 0
BBX 5 9 1 0
BITMAP
F0
08
08
08
F8
08
08
08
F0
ENDCHAR
STARTCHAR 220C
ENCODING 8716
SWIDTH 583 0
DWIDTH 7 0
BBX 5 11 1 -1
BITMAP
10
F0
18
28
28
F8
68
48
48
F0
80
ENDCHAR
STARTCHAR 220D
ENCODING 8717
SWIDTH 583 0
DWIDTH 7 0
BBX 5 6 1 1
BITMAP
F0
08
F8
08
08
F0
ENDCHAR
STARTCHAR 220E
ENCODING 8718
SWIDTH 583 0
DWIDTH 7 0
BBX 5 8 1 0
BITMAP
F8
F8
F8
F8
F8
F8
F8
F8
ENDCHAR
STARTCHAR 220F
ENCODING 8719
SWIDTH 583 0
DWIDTH 7 0
BBX 5 12 1 -3
BITMAP
F8
88
88
88
88
88
88
88
88
88
88
88
ENDCHAR
STARTCHAR 2210
ENCODING 8720
SWIDTH 583 0
DWIDTH 7 0
BBX 5 12 1 -3
BITMAP
88
88
88
88
88
88
88
88
88
88
88
F8
ENDCHAR
STARTCHAR 2211
ENCODING 8721
SWIDTH 583 0
DWIDTH 7 0
BBX 5 12 1 -3
BITMAP
F8
80
40
20
20
10
10
20
40
40
80
F8
ENDCHAR
STARTCHAR 2212
ENCODING 8722
SWIDTH 583 0
DWIDTH 7 0
BBX 6 1 1 3
BITMAP
FC
ENDCHAR
STARTCHAR 2213
ENCODING 8723
SWIDTH 583 0
DWIDTH 7 0
BBX 6 7 1 0
BITMAP
FC
00
20
20
FC
20
20
ENDCHAR
STARTCHAR 2215
ENCODING 8725
SWIDTH 583 0
DWIDTH 7 0
BBX 5 10 1 -1
BITMAP
08
08
10
10
20
20
40
40
80
80
ENDCHAR
STARTCHAR 2217
ENCODING 8727
SWIDTH 583 0
DWIDTH 7 0
BBX 5 6 1 1
BITMAP
20
A8
70
70
A8
20
ENDCHAR
STARTCHAR 2218
ENCODING 8728
SWIDTH 583 0
DWIDTH 7 0
BBX 3 4 2 2
BITMAP
E0
A0
A0
E0
ENDCHAR
STARTCHAR 2219
ENCODING 8729
SWIDTH 583 0
DWIDTH 7 0
BBX 1 2 3 3
BITMAP
80
80
ENDCHAR
STARTCHAR 221A
ENCODING 8730
SWIDTH 583 0
DWIDTH 7 0
BBX 7 11 0 0
BITMAP
02
02
04
04
04
C8
28
28
28
10
10
ENDCHAR
STARTCHAR 221B
ENCODING 8731
SWIDTH 583 0
DWIDTH 7 0
BBX 7 11 0 0
BITMAP
72
32
14
1C
74
28
C8
28
28
30
10
ENDCHAR
STARTCHAR 221C
ENCODING 8732
SWIDTH 583 0
DWIDTH 7 0
BBX 7 11 0 0
BITMAP
32
52
74
14
04
C8
28
28
28
10
10
ENDCHAR
STARTCHAR 221D
ENCODING 8733
SWIDTH 583 0
DWIDTH 7 0
BBX 5 5 1 1
BITMAP
68
B0
90
90
68
ENDCHAR
STARTCHAR 221E
ENCODING 8734
SWIDTH 583 0
DWIDTH 7 0
BBX 7 5 0 1
BITMAP
6C
9A
92
9A
6C
ENDCHAR
STARTCHAR 221F
ENCODING 8735
SWIDTH 583 0
DWIDTH 7 0
BBX 6 6 1 2
BITMAP
80
80
80
80
80
FC
ENDCHAR
STARTCHAR 2220
ENCODING 8736
SWIDTH 583 0
DWIDTH 7 0
BBX 6 6 1 2
BITMAP
08
10
10
20
40
FC
ENDCHAR
STARTCHAR 2223
ENCODING 8739
SWIDTH 583 0
DWIDTH 7 0
BBX 1 13 3 -3
BITMAP
80
80
80
80
80
80
80
80
80
80
80
80
80
ENDCHAR
STARTCHAR 2227
ENCODING 8743
SWIDTH 583 0
DWIDTH 7 0
BBX 5 7 1 0
BITMAP
20
30
50
50
58
88
88
ENDCHAR
STARTCHAR 2228
ENCODING 8744
SWIDTH 583 0
DWIDTH 7 0
BBX 5 7 1 0
BITMAP
88
88
58
50
50
30
20
ENDCHAR
STARTCHAR 2229
ENCODING 8745
SWIDTH 583 0
DWIDTH 7 0
BBX 5 7 1 0
BITMAP
70
88
88
88
88
88
88
ENDCHAR
STARTCHAR 222A
ENCODING 8746
SWIDTH 583 0
DWIDTH 7 0
BBX 5 7 1 0
BITMAP
88
88
88
88
88
88
70
ENDCHAR
STARTCHAR 222B
ENCODING 8747
SWIDTH 583 0
DWIDTH 7 0
BBX 5 12 1 -2
BITMAP
18
18
20
20
20
20
20
20
20
20
A0
C0
ENDCHAR
STARTCHAR 222C
ENCODING 8748
SWIDTH 583 0
DWIDTH 7 0
BBX 7 13 0 -3
BITMAP
36
28
28
28
28
28
28
28
28
28
28
28
D8
ENDCHAR
STARTCHAR 222D
ENCODING 8749
SWIDTH 583 0
DWIDTH 7 0
BBX 7 13 0 -2
BITMAP
7E
54
54
54
54
54
54
54
54
54
54
54
FC
ENDCHAR
STARTCHAR 2234
ENCODING 8756
SWIDTH 583 0
DWIDTH 7 0
BBX 5 6 1 1
BITMAP
20
20
00
00
C8
C8
ENDCHAR
STARTCHAR 2235
ENCODING 8757
SWIDTH 583 0
DWIDTH 7 0
BBX 5 6 1 1
BITMAP
C8
C8
00
00
20
20
ENDCHAR
STARTCHAR 2236
ENCODING 8758
SWIDTH 583 0
DWIDTH 7 0
BBX 1 6 3 1
BITMAP
80
80
00
00
80
80
ENDCHAR
STARTCHAR 2237
ENCODING 8759
SWIDTH 583 0
DWIDTH 7 0
BBX 5 6 1 1
BITMAP
C8
C8
00
00
C8
C8
ENDCHAR
STARTCHAR 2238
ENCODING 8760
SWIDTH 583 0
DWIDTH 7 0
BBX 6 4 1 3
BITMAP
20
20
00
FC
ENDCHAR
STARTCHAR 2239
ENCODING 8761
SWIDTH 583 0
DWIDTH 7 0
BBX 7 6 0 1
BITMAP
06
06
00
F8
06
06
ENDCHAR
STARTCHAR 223A
ENCODING 8762
SWIDTH 583 0
DWIDTH 7 0
BBX 6 6 1 1
BITMAP
8C
8C
00
FC
8C
8C
ENDCHAR
STARTCHAR 223B
ENCODING 8763
SWIDTH 583 0
DWIDTH 7 0
BBX 6 6 1 1
BITMAP
20
20
E4
98
20
20
ENDCHAR
STARTCHAR 223C
ENCODING 8764
SWIDTH 583 0
DWIDTH 7 0
BBX 6 2 1 3
BITMAP
E4
98
ENDCHAR
STARTCHAR 223D
ENCODING 8765
SWIDTH 583 0
DWIDTH 7 0
BBX 6 2 1 3
BITMAP
B8
E4
ENDCHAR
STARTCHAR 2241
ENCODING 8769
SWIDTH 583 0
DWIDTH 7 0
BBX 6 6 1 1
BITMAP
10
20
E4
B8
20
20
ENDCHAR
STARTCHAR 2242
ENCODING 8770
SWIDTH 583 0
DWIDTH 7 0
BBX 6 4 1 2
BITMAP
FC
00
E4
98
ENDCHAR
STARTCHAR 2243
ENCODING 8771
SWIDTH 583 0
DWIDTH 7 0
BBX 6 4 1 2
BITMAP
E4
98
00
FC
ENDCHAR
STARTCHAR 2244
ENCODING 8772
SWIDTH 583 0
DWIDTH 7 0
BBX 6 8 1 0
BITMAP
08
10
F4
B8
20
FC
C0
40
ENDCHAR
STARTCHAR 2245
ENCODING 8773
SWIDTH 583 0
DWIDTH 7 0
BBX 6 6 1 1
BITMAP
E4
98
00
FC
00
FC
ENDCHAR
STARTCHAR 2246
ENCODING 8774
SWIDTH 583 0
DWIDTH 7 0
BBX 6 7 1 0
BITMAP
E4
98
10
FC
20
FC
40
ENDCHAR
STARTCHAR 2247
ENCODING 8775
SWIDTH 583 0
DWIDTH 7 0
BBX 6 8 1 0
BITMAP
10
F4
98
20
FC
20
FC
40
ENDCHAR
STARTCHAR 2248
ENCODING 8776
SWIDTH 583 0
DWIDTH 7 0
BBX 6 4 1 2
BITMAP
E4
98
E4
98
ENDCHAR
STARTCHAR 2249
ENCODING 8777
SWIDTH 583 0
DWIDTH 7 0
BBX 6 8 1 0
BITMAP
10
10
F4
B8
E4
B8
40
40
ENDCHAR
STARTCHAR 224A
ENCODING 8778
SWIDTH 583 0
DWIDTH 7 0
BBX 6 6 1 1
BITMAP
E4
98
E4
98
00
FC
ENDCHAR
STARTCHAR 224B
ENCODING 8779
SWIDTH 583 0
DWIDTH 7 0
BBX 6 6 1 1
BITMAP
E4
98
E4
98
E4
98
ENDCHAR
STARTCHAR 224C
ENCODING 8780
SWIDTH 583 0
DWIDTH 7 0
BBX 6 6 1 1
BITMAP
B8
E4
00
FC
00
FC
ENDCHAR
STARTCHAR 224D
ENCODING 8781
SWIDTH 583 0
DWIDTH 7 0
BBX 6 5 1 1
BITMAP
84
F8
00
F8
84
ENDCHAR
STARTCHAR 224E
ENCODING 8782
SWIDTH 583 0
DWIDTH 7 0
BBX 6 7 1 0
BITMAP
30
50
CC
00
CC
50
30
ENDCHAR
STARTCHAR 224F
ENCODING 8783
SWIDTH 583 0
DWIDTH 7 0
BBX 6 5 1 2
BITMAP
70
CC
00
00
FC
ENDCHAR
STARTCHAR 2250
ENCODING 8784
SWIDTH 583 0
DWIDTH 7 0
BBX 6 6 1 2
BITMAP
20
20
FC
00
00
FC
ENDCHAR
STARTCHAR 2251
ENCODING 8785
SWIDTH 583 0
DWIDTH 7 0
BBX 6 7 1 1
BITMAP
50
FC
00
00
FC
20
20
ENDCHAR
STARTCHAR 2252
ENCODING 8786
SWIDTH 583 0
DWIDTH 7 0
BBX 6 8 1 0
BITMAP
80
80
FC
00
00
FC
0C
0C
ENDCHAR
STARTCHAR 2253
ENCODING 8787
SWIDTH 583 0
DWIDTH 7 0
BBX 6 8 1 0
BITMAP
0C
0C
FC
00
00
FC
80
80
ENDCHAR
STARTCHAR 2254
ENCODING 8788
SWIDTH 583 0
DWIDTH 7 0
BBX 7 4 0 2
BITMAP
FE
C0
C0
FE
ENDCHAR
STARTCHAR 2255
ENCODING 8789
SWIDTH 583 0
DWIDTH 7 0
BBX 7 4 0 2
BITMAP
FE
06
06
FE
ENDCHAR
STARTCHAR 2256
ENCODING 8790
SWIDTH 583 0
DWIDTH 7 0
BBX 6 4 1 2
BITMAP
FC
50
50
FC
ENDCHAR
STARTCHAR 2257
ENCODING 8791
SWIDTH 583 0
DWIDTH 7 0
BBX 6 8 1 2
BITMAP
70
50
50
30
FC
00
00
FC
ENDCHAR
STARTCHAR 2258
ENCODING 8792
SWIDTH 583 0
DWIDTH 7 0
BBX 6 6 1 2
BITMAP
78
84
FC
00
00
FC
ENDCHAR
STARTCHAR 2259
ENCODING 8793
SWIDTH 583 0
DWIDTH 7 0
BBX 6 8 1 2
BITMAP
20
30
50
50
FC
00
00
FC
ENDCHAR
STARTCHAR 225A
ENCODING 8794
SWIDTH 583 0
DWIDTH 7 0
BBX 6 8 1 2
BITMAP
50
50
30
20
FC
00
00
FC
ENDCHAR
STARTCHAR 225B
ENCODING 8795
SWIDTH 583 0
DWIDTH 7 0
BBX 6 9 1 2
BITMAP
20
20
78
30
40
FC
00
00
FC
ENDCHAR
STARTCHAR 225C
ENCODING 8796
SWIDTH 583 0
DWIDTH 7 0
BBX 6 8 1 2
BITMAP
20
20
50
70
00
FC
00
FC
ENDCHAR
STARTCHAR 225D
ENCODING 8797
SWIDTH 583 0
DWIDTH 7 0
BBX 7 8 0 2
BITMAP
22
7E
BC
7C
00
7E
00
7E
ENDCHAR
STARTCHAR 225E
ENCODING 8798
SWIDTH 583 0
DWIDTH 7 0
BBX 6 7 1 3
BITMAP
F8
A8
A8
FC
00
00
FC
ENDCHAR
STARTCHAR 225F
ENCODING 8799
SWIDTH 583 0
DWIDTH 7 0
BBX 6 9 1 2
BITMAP
70
10
20
20
20
FC
00
00
FC
ENDCHAR
STARTCHAR 2260
ENCODING 8800
SWIDTH 583 0
DWIDTH 7 0
BBX 6 8 1 0
BITMAP
08
08
FC
20
20
FC
C0
80
ENDCHAR
STARTCHAR 2261
ENCODING 8801
SWIDTH 583 0
DWIDTH 7 0
BBX 6 5 1 2
BITMAP
FC
00
FC
00
FC
ENDCHAR
STARTCHAR 2262
ENCODING 8802
SWIDTH 583 0
DWIDTH 7 0
BBX 6 7 1 1
BITMAP
08
FC
10
FC
20
FC
40
ENDCHAR
STARTCHAR 2263
ENCODING 8803
SWIDTH 583 0
DWIDTH 7 0
BBX 6 8 1 0
BITMAP
FC
00
00
FC
00
FC
00
FC
ENDCHAR
STARTCHAR 2264
ENCODING 8804
SWIDTH 583 0
DWIDTH 7 0
BBX 7 7 0 0
BITMAP
02
1E
F0
70
0E
02
FE
ENDCHAR
STARTCHAR 2265
ENCODING 8805
SWIDTH 583 0
DWIDTH 7 0
BBX 6 7 1 0
BITMAP
80
E0
1C
1C
E0
80
FC
ENDCHAR
STARTCHAR 2266
ENCODING 8806
SWIDTH 583 0
DWIDTH 7 0
BBX 7 9 0 -1
BITMAP
02
1E
F0
70
0E
02
FE
00
FE
ENDCHAR
STARTCHAR 2267
ENCODING 8807
SWIDTH 583 0
DWIDTH 7 0
BBX 7 9 0 -1
BITMAP
80
F0
0E
1E
F0
80
FE
00
FE
ENDCHAR
STARTCHAR 2268
ENCODING 8808
SWIDTH 583 0
DWIDTH 7 0
BBX 7 10 0 -2
BITMAP
02
1E
F0
70
0E
06
FE
10
FE
20
ENDCHAR
STARTCHAR 2269
ENCODING 8809
SWIDTH 583 0
DWIDTH 7 0
BBX 7 10 0 -2
BITMAP
80
F0
0E
1E
F0
84
FE
10
FE
20
ENDCHAR
STARTCHAR 226D
ENCODING 8813
SWIDTH 583 0
DWIDTH 7 0
BBX 6 7 1 0
BITMAP
08
94
F8
20
78
C4
C0
ENDCHAR
STARTCHAR 226E
ENCODING 8814
SWIDTH 583 0
DWIDTH 7 0
BBX 6 8 1 0
BITMAP
10
14
18
E0
A0
70
2C
40
ENDCHAR
STARTCHAR 226F
ENCODING 8815
SWIDTH 583 0
DWIDTH 7 0
BBX 6 8 1 0
BITMAP
10
90
F0
38
2C
70
C0
40
ENDCHAR
STARTCHAR 2270
ENCODING 8816
SWIDTH 583 0
DWIDTH 7 0
BBX 6 9 1 -1
BITMAP
18
14
1C
F0
E0
3C
24
FC
40
ENDCHAR
STARTCHAR 2271
ENCODING 8817
SWIDTH 583 0
DWIDTH 7 0
BBX 6 9 1 -1
BITMAP
10
90
E0
3C
3C
E0
C0
FC
80
ENDCHAR
STARTCHAR 2272
ENCODING 8818
SWIDTH 583 0
DWIDTH 7 0
BBX 7 7 0 0
BITMAP
06
38
C0
3C
06
72
8C
ENDCHAR
STARTCHAR 2273
ENCODING 8819
SWIDTH 583 0
DWIDTH 7 0
BBX 7 7 0 0
BITMAP
C0
3C
06
38
C0
72
8C
ENDCHAR
STARTCHAR 2274
ENCODING 8820
SWIDTH 583 0
DWIDTH 7 0
BBX 7 9 0 -1
BITMAP
0C
0E
38
D0
3C
16
72
AC
20
ENDCHAR
STARTCHAR 2275
ENCODING 8821
SWIDTH 583 0
DWIDTH 7 0
BBX 7 9 0 -1
BITMAP
08
C8
78
16
1C
E0
62
BE
40
ENDCHAR
STARTCHAR 2276
ENCODING 8822
SWIDTH 583 0
DWIDTH 7 0
BBX 7 8 0 -1
BITMAP
0E
70
E0
9C
7A
06
3C
C0
ENDCHAR
STARTCHAR 2277
ENCODING 8823
SWIDTH 583 0
DWIDTH 7 0
BBX 7 8 0 -1
BITMAP
E0
1C
0E
72
9C
E0
38
06
ENDCHAR
STARTCHAR 2278
ENCODING 8824
SWIDTH 583 0
DWIDTH 7 0
BBX 7 11 0 -2
BITMAP
08
0C
0E
78
E8
9C
7A
16
3C
E0
20
ENDCHAR
STARTCHAR 2279
ENCODING 8825
SWIDTH 583 0
DWIDTH 7 0
BBX 7 11 0 -2
BITMAP
08
0C
E8
1C
0E
72
9C
F0
38
26
20
ENDCHAR
STARTCHAR 227A
ENCODING 8826
SWIDTH 583 0
DWIDTH 7 0
BBX 7 8 0 0
BITMAP
02
02
0C
30
E0
18
04
02
ENDCHAR
STARTCHAR 227B
ENCODING 8827
SWIDTH 583 0
DWIDTH 7 0
BBX 6 8 1 0
BITMAP
80
80
C0
38
1C
60
80
80
ENDCHAR
STARTCHAR 227C
ENCODING 8828
SWIDTH 583 0
DWIDTH 7 0
BBX 7 10 0 -1
BITMAP
02
02
0C
70
F0
0C
E6
1A
04
02
ENDCHAR
STARTCHAR 227D
ENCODING 8829
SWIDTH 583 0
DWIDTH 7 0
BBX 7 10 0 -1
BITMAP
80
C0
60
1C
1E
70
CE
B0
60
80
ENDCHAR
STARTCHAR 227E
ENCODING 8830
SWIDTH 583 0
DWIDTH 7 0
BBX 7 10 0 -1
BITMAP
02
06
0C
70
F0
0C
06
02
72
8C
ENDCHAR
STARTCHAR 227F
ENCODING 8831
SWIDTH 583 0
DWIDTH 7 0
BBX 7 10 0 -1
BITMAP
80
C0
60
1E
1E
70
C0
80
72
8C
ENDCHAR
STARTCHAR 2280
ENCODING 8832
SWIDTH 583 0
DWIDTH 7 0
BBX 7 9 0 -1
BITMAP
06
0A
0C
38
F0
18
14
22
20
ENDCHAR
STARTCHAR 2281
ENCODING 8833
SWIDTH 583 0
DWIDTH 7 0
BBX 7 9 0 -1
BITMAP
88
C8
70
1C
1E
30
60
A0
60
ENDCHAR
STARTCHAR 2282
ENCODING 8834
SWIDTH 583 0
DWIDTH 7 0
BBX 6 6 1 1
BITMAP
7C
80
80
80
80
7C
ENDCHAR
STARTCHAR 2283
ENCODING 8835
SWIDTH 583 0
DWIDTH 7 0
BBX 6 6 1 1
BITMAP
F0
08
04
04
08
F0
ENDCHAR
STARTCHAR 2284
ENCODING 8836
SWIDTH 583 0
DWIDTH 7 0
BBX 6 8 1 0
BITMAP
10
7C
90
A0
A0
A0
7C
40
ENDCHAR
STARTCHAR 2285
ENCODING 8837
SWIDTH 583 0
DWIDTH 7 0
BBX 6 8 1 0
BITMAP
10
F0
18
24
24
28
F0
40
ENDCHAR
STARTCHAR 2286
ENCODING 8838
SWIDTH 583 0
DWIDTH 7 0
BBX 6 8 1 0
BITMAP
7C
80
80
80
80
7C
00
FC
ENDCHAR
STARTCHAR 2287
ENCODING 8839
SWIDTH 583 0
DWIDTH 7 0
BBX 6 8 1 0
BITMAP
F0
08
04
04
08
F0
00
FC
ENDCHAR
STARTCHAR 2288
ENCODING 8840
SWIDTH 583 0
DWIDTH 7 0
BBX 6 10 1 -1
BITMAP
08
7C
90
90
A0
A0
7C
40
FC
40
ENDCHAR
STARTCHAR 2289
ENCODING 8841
SWIDTH 583 0
DWIDTH 7 0
BBX 6 10 1 -1
BITMAP
08
F0
18
14
24
28
F0
40
FC
40
ENDCHAR
STARTCHAR 228A
ENCODING 8842
SWIDTH 583 0
DWIDTH 7 0
BBX 6 9 1 -1
BITMAP
7C
80
80
80
80
7C
10
FC
40
ENDCHAR
STARTCHAR 228B
ENCODING 8843
SWIDTH 583 0
DWIDTH 7 0
BBX 6 9 1 -1
BITMAP
F0
08
04
04
08
F0
10
FC
40
ENDCHAR
STARTCHAR 228D
ENCODING 8845
SWIDTH 583 0
DWIDTH 7 0
BBX 5 8 1 0
BITMAP
88
88
88
88
A8
88
88
78
ENDCHAR
STARTCHAR 228E
ENCODING 8846
SWIDTH 583 0
DWIDTH 7 0
BBX 5 8 1 0
BITMAP
88
88
88
A8
F8
A8
88
78
ENDCHAR
STARTCHAR 228F
ENCODING 8847
SWIDTH 583 0
DWIDTH 7 0
BBX 6 6 1 1
BITMAP
FC
80
80
80
80
FC
ENDCHAR
STARTCHAR 2290
ENCODING 8848
SWIDTH 583 0
DWIDTH 7 0
BBX 6 6 1 1
BITMAP
FC
04
04
04
04
FC
ENDCHAR
STARTCHAR 2291
ENCODING 8849
SWIDTH 583 0
DWIDTH 7 0
BBX 6 8 1 0
BITMAP
FC
80
80
80
80
FC
00
FC
ENDCHAR
STARTCHAR 2292
ENCODING 8850
SWIDTH 583 0
DWIDTH 7 0
BBX 6 8 1 0
BITMAP
FC
04
04
04
04
FC
00
FC
ENDCHAR
STARTCHAR 2293
ENCODING 8851
SWIDTH 583 0
DWIDTH 7 0
BBX 6 8 1 0
BITMAP
FC
84
84
84
84
84
84
84
ENDCHAR
STARTCHAR 2294
ENCODING 8852
SWIDTH 583 0
DWIDTH 7 0
BBX 6 8 1 0
BITMAP
84
84
84
84
84
84
84
FC
ENDCHAR
STARTCHAR 2295
ENCODING 8853
SWIDTH 583 0
DWIDTH 7 0
BBX 7 7 0 0
BITMAP
38
54
52
BE
52
44
38
ENDCHAR
STARTCHAR 2296
ENCODING 8854
SWIDTH 583 0
DWIDTH 7 0
BBX 7 7 0 0
BITMAP
38
44
42
BE
42
44
38
ENDCHAR
STARTCHAR 2297
ENCODING 8855
SWIDTH 583 0
DWIDTH 7 0
BBX 7 7 0 0
BITMAP
38
44
6A
92
6A
44
38
ENDCHAR
STARTCHAR 2298
ENCODING 8856
SWIDTH 583 0
DWIDTH 7 0
BBX 7 7 0 0
BITMAP
38
44
4A
92
62
44
38
ENDCHAR
STARTCHAR 2299
ENCODING 8857
SWIDTH 583 0
DWIDTH 7 0
BBX 7 7 0 0
BITMAP
38
44
52
92
42
44
38
ENDCHAR
STARTCHAR 229A
ENCODING 8858
SWIDTH 583 0
DWIDTH 7 0
BBX 7 7 0 0
BITMAP
38
44
7A
AA
7A
44
38
ENDCHAR
STARTCHAR 229B
ENCODING 8859
SWIDTH 583 0
DWIDTH 7 0
BBX 7 6 0 1
BITMAP
38
54
BA
BA
54
38
ENDCHAR
STARTCHAR 229C
ENCODING 8860
SWIDTH 583 0
DWIDTH 7 0
BBX 7 7 0 0
BITMAP
38
44
7A
82
7A
44
38
ENDCHAR
STARTCHAR 229D
ENCODING 8861
SWIDTH 583 0
DWIDTH 7 0
BBX 7 7 0 0
BITMAP
38
44
42
BA
42
44
38
ENDCHAR
STARTCHAR 229E
ENCODING 8862
SWIDTH 583 0
DWIDTH 7 0
BBX 7 7 0 1
BITMAP
FE
92
92
FE
92
92
FE
ENDCHAR
STARTCHAR 229F
ENCODING 8863
SWIDTH 583 0
DWIDTH 7 0
BBX 7 7 0 1
BITMAP
FE
82
82
BE
82
82
FE
ENDCHAR
STARTCHAR 22A0
ENCODING 8864
SWIDTH 583 0
DWIDTH 7 0
BBX 7 7 0 1
BITMAP
FE
E6
AA
92
AA
E6
FE
ENDCHAR
STARTCHAR 22A1
ENCODING 8865
SWIDTH 583 0
DWIDTH 7 0
BBX 7 7 0 1
BITMAP
FE
82
82
92
92
82
FE
ENDCHAR
STARTCHAR 22A2
ENCODING 8866
SWIDTH 583 0
DWIDTH 7 0
BBX 6 8 1 0
BITMAP
80
80
80
80
FC
80
80
80
ENDCHAR
STARTCHAR 22A3
ENCODING 8867
SWIDTH 583 0
DWIDTH 7 0
BBX 6 8 1 0
BITMAP
04
04
04
04
FC
04
04
04
ENDCHAR
STARTCHAR 22A4
ENCODING 8868
SWIDTH 583 0
DWIDTH 7 0
BBX 6 8 1 0
BITMAP
FC
20
20
20
20
20
20
20
ENDCHAR
STARTCHAR 22B2
ENCODING 8882
SWIDTH 583 0
DWIDTH 7 0
BBX 6 6 1 1
BITMAP
04
1C
E4
84
74
0C
ENDCHAR
STARTCHAR 22B3
ENCODING 8883
SWIDTH 583 0
DWIDTH 7 0
BBX 6 6 1 1
BITMAP
80
E0
98
8C
F0
80
ENDCHAR
STARTCHAR 22B4
ENCODING 8884
SWIDTH 583 0
DWIDTH 7 0
BBX 6 7 1 0
BITMAP
04
3C
E4
E4
1C
04
FC
ENDCHAR
STARTCHAR 22B5
ENCODING 8885
SWIDTH 583 0
DWIDTH 7 0
BBX 6 7 1 0
BITMAP
80
E0
9C
9C
E0
80
FC
ENDCHAR
STARTCHAR 22B8
ENCODING 8888
SWIDTH 583 0
DWIDTH 7 0
BBX 7 4 0 2
BITMAP
0C
0A
FA
0E
ENDCHAR
STARTCHAR 22C2
ENCODING 8898
SWIDTH 583 0
DWIDTH 7 0
BBX 5 13 1 -3
BITMAP
78
88
88
88
88
88
88
88
88
88
88
88
88
ENDCHAR
STARTCHAR 22C3
ENCODING 8899
SWIDTH 583 0
DWIDTH 7 0
BBX 5 12 1 -3
BITMAP
88
88
88
88
88
88
88
88
88
88
88
78
ENDCHAR
STARTCHAR 22C4
ENCODING 8900
SWIDTH 583 0
DWIDTH 7 0
BBX 6 6 1 1
BITMAP
20
70
D8
8C
50
20
ENDCHAR
STARTCHAR 22C5
ENCODING 8901
SWIDTH 583 0
DWIDTH 7 0
BBX 1 2 3 3
BITMAP
80
80
ENDCHAR
STARTCHAR 22C6
ENCODING 8902
SWIDTH 583 0
DWIDTH 7 0
BBX 4 5 2 2
BITMAP
40
40
F0
60
A0
ENDCHAR
STARTCHAR 22CD
ENCODING 8909
SWIDTH 583 0
DWIDTH 7 0
BBX 6 4 1 2
BITMAP
98
E4
00
FC
ENDCHAR
STARTCHAR 22CE
ENCODING 8910
SWIDTH 583 0
DWIDTH 7 0
BBX 7 8 0 0
BITMAP
C6
6C
28
38
10
10
10
10
ENDCHAR
STARTCHAR 22CF
ENCODING 8911
SWIDTH 583 0
DWIDTH 7 0
BBX 7 8 0 0
BITMAP
10
10
10
10
38
28
6C
C6
ENDCHAR
STARTCHAR 22D0
ENCODING 8912
SWIDTH 583 0
DWIDTH 7 0
BBX 6 8 1 0
BITMAP
7C
C0
BC
A0
A0
BC
C0
7C
ENDCHAR
STARTCHAR 22D1
ENCODING 8913
SWIDTH 583 0
DWIDTH 7 0
BBX 6 8 1 0
BITMAP
F0
18
E8
14
14
E8
08
F0
ENDCHAR
STARTCHAR 22DA
ENCODING 8922
SWIDTH 583 0
DWIDTH 7 0
BBX 6 13 1 -3
BITMAP
04
3C
E0
E0
1C
04
FC
80
E0
1C
1C
E0
80
ENDCHAR
STARTCHAR 22DB
ENCODING 8923
SWIDTH 583 0
DWIDTH 7 0
BBX 6 13 1 -3
BITMAP
80
E0
1C
3C
E0
80
FC
04
1C
E0
E0
3C
04
ENDCHAR
STARTCHAR 22DC
ENCODING 8924
SWIDTH 583 0
DWIDTH 7 0
BBX 7 7 0 0
BITMAP
FE
02
0E
70
F0
1E
02
ENDCHAR
STARTCHAR 22DD
ENCODING 8925
SWIDTH 583 0
DWIDTH 7 0
BBX 6 7 1 0
BITMAP
FC
80
E0
1C
1C
E0
80
ENDCHAR
STARTCHAR 22DE
ENCODING 8926
SWIDTH 583 0
DWIDTH 7 0
BBX 7 10 0 -1
BITMAP
02
02
0C
1A
E6
1C
F0
78
0C
02
ENDCHAR
STARTCHAR 22DF
ENCODING 8927
SWIDTH 583 0
DWIDTH 7 0
BBX 7 10 0 -1
BITMAP
80
C0
60
B8
CE
30
1E
1C
60
C0
ENDCHAR
STARTCHAR 22E0
ENCODING 8928
SWIDTH 583 0
DWIDTH 7 0
BBX 7 11 0 -2
BITMAP
06
06
0C
78
F8
1C
F6
1A
24
22
20
ENDCHAR
STARTCHAR 22E1
ENCODING 8929
SWIDTH 583 0
DWIDTH 7 0
BBX 7 11 0 -2
BITMAP
8C
C8
68
1C
1E
30
DE
B0
60
A0
40
ENDCHAR
STARTCHAR 22E2
ENCODING 8930
SWIDTH 583 0
DWIDTH 7 0
BBX 6 10 1 -1
BITMAP
08
18
FC
90
A0
A0
E0
FC
40
C0
ENDCHAR
STARTCHAR 22E3
ENCODING 8931
SWIDTH 583 0
DWIDTH 7 0
BBX 6 10 1 -1
BITMAP
08
18
FC
14
24
24
64
FC
40
C0
ENDCHAR
STARTCHAR 22E4
ENCODING 8932
SWIDTH 583 0
DWIDTH 7 0
BBX 6 9 1 -1
BITMAP
FC
80
80
80
80
FC
10
FC
40
ENDCHAR
STARTCHAR 22E5
ENCODING 8933
SWIDTH 583 0
DWIDTH 7 0
BBX 6 9 1 -1
BITMAP
FC
04
04
04
04
FC
10
FC
40
ENDCHAR
STARTCHAR 22E6
ENCODING 8934
SWIDTH 583 0
DWIDTH 7 0
BBX 7 8 0 -1
BITMAP
06
38
C0
3C
16
72
9C
10
ENDCHAR
STARTCHAR 22E7
ENCODING 8935
SWIDTH 583 0
DWIDTH 7 0
BBX 7 8 0 -1
BITMAP
C0
3C
06
38
D0
72
9C
10
ENDCHAR
STARTCHAR 22E8
ENCODING 8936
SWIDTH 583 0
DWIDTH 7 0
BBX 7 12 0 -3
BITMAP
02
06
0C
70
F0
0C
0E
12
72
9C
10
10
ENDCHAR
STARTCHAR 22E9
ENCODING 8937
SWIDTH 583 0
DWIDTH 7 0
BBX 7 12 0 -3
BITMAP
80
C0
60
1E
1E
70
C8
90
72
9C
10
10
ENDCHAR
STARTCHAR 22EF
ENCODING 8943
SWIDTH 583 0
DWIDTH 7 0
BBX 7 2 0 3
BITMAP
D6
D6
ENDCHAR
STARTCHAR 2304
ENCODING 8964
SWIDTH 583 0
DWIDTH 7 0
BBX 5 4 1 -1
BITMAP
88
50
50
20
ENDCHAR
STARTCHAR 2308
ENCODING 8968
SWIDTH 583 0
DWIDTH 7 0
BBX 2 11 3 -1
BITMAP
C0
80
80
80
80
80
80
80
80
80
80
ENDCHAR
STARTCHAR 2309
ENCODING 8969
SWIDTH 583 0
DWIDTH 7 0
BBX 3 11 2 -1
BITMAP
E0
60
60
60
60
60
60
60
60
60
60
ENDCHAR
STARTCHAR 230A
ENCODING 8970
SWIDTH 583 0
DWIDTH 7 0
BBX 2 11 3 -1
BITMAP
80
80
80
80
80
80
80
80
80
80
C0
ENDCHAR
STARTCHAR 230B
ENCODING 8971
SWIDTH 583 0
DWIDTH 7 0
BBX 3 11 2 -1
BITMAP
60
60
60
60
60
60
60
60
60
60
E0
ENDCHAR
STARTCHAR 2310
ENCODING 8976
SWIDTH 583 0
DWIDTH 7 0
BBX 6 3 1 2
BITMAP
FC
80
80
ENDCHAR
STARTCHAR 2320
ENCODING 8992
SWIDTH 583 0
DWIDTH 7 0
BBX 3 14 3 -3
BITMAP
60
60
80
80
80
80
80
80
80
80
80
80
80
80
ENDCHAR
STARTCHAR 2321
ENCODING 8993
SWIDTH 583 0
DWIDTH 7 0
BBX 3 14 1 -3
BITMAP
20
20
20
20
20
20
20
20
20
20
20
20
A0
C0
ENDCHAR
STARTCHAR 239B
ENCODING 9115
SWIDTH 583 0
DWIDTH 7 0
BBX 4 14 2 -3
BITMAP
30
20
40
40
40
80
80
80
80
80
80
80
80
80
ENDCHAR
STARTCHAR 239C
ENCODING 9116
SWIDTH 583 0
DWIDTH 7 0
BBX 1 14 2 -3
BITMAP
80
80
80
80
80
80
80
80
80
80
80
80
80
80
ENDCHAR
STARTCHAR 239D
ENCODING 9117
SWIDTH 583 0
DWIDTH 7 0
BBX 4 14 2 -3
BITMAP
80
80
80
80
80
80
80
80
80
40
40
40
20
30
ENDCHAR
STARTCHAR 239E
ENCODING 9118
SWIDTH 583 0
DWIDTH 7 0
BBX 4 14 2 -3
BITMAP
80
80
40
40
20
20
20
20
20
20
30
30
30
30
ENDCHAR
STARTCHAR 239F
ENCODING 9119
SWIDTH 583 0
DWIDTH 7 0
BBX 2 14 4 -3
BITMAP
C0
C0
C0
C0
C0
C0
C0
C0
C0
C0
C0
C0
C0
C0
ENDCHAR
STARTCHAR 23A0
ENCODING 9120
SWIDTH 583 0
DWIDTH 7 0
BBX 4 14 2 -3
BITMAP
30
30
30
30
20
20
20
20
20
60
40
40
80
80
ENDCHAR
STARTCHAR 23A1
ENCODING 9121
SWIDTH 583 0
DWIDTH 7 0
BBX 4 14 2 -3
BITMAP
F0
80
80
80
80
80
80
80
80
80
80
80
80
80
ENDCHAR
STARTCHAR 23A2
ENCODING 9122
SWIDTH 583 0
DWIDTH 7 0
BBX 1 14 2 -3
BITMAP
80
80
80
80
80
80
80
80
80
80
80
80
80
80
ENDCHAR
STARTCHAR 23A3
ENCODING 9123
SWIDTH 583 0
DWIDTH 7 0
BBX 4 14 2 -3
BITMAP
80
80
80
80
80
80
80
80
80
80
80
80
80
F0
ENDCHAR
STARTCHAR 23A4
ENCODING 9124
SWIDTH 583 0
DWIDTH 7 0
BBX 4 14 2 -3
BITMAP
F0
30
30
30
30
30
30
30
30
30
30
30
30
30
ENDCHAR
STARTCHAR 23A5
ENCODING 9125
SWIDTH 583 0
DWIDTH 7 0
BBX 2 14 4 -3
BITMAP
C0
C0
C0
C0
C0
C0
C0
C0
C0
C0
C0
C0
C0
C0
ENDCHAR
STARTCHAR 23A6
ENCODING 9126
SWIDTH 583 0
DWIDTH 7 0
BBX 4 14 2 -3
BITMAP
30
30
30
30
30
30
30
30
30
30
30
30
30
F0
ENDCHAR
STARTCHAR 23A7
ENCODING 9127
SWIDTH 583 0
DWIDTH 7 0
BBX 4 15 3 -4
BITMAP
70
C0
80
80
80
80
80
80
80
80
80
80
80
80
80
ENDCHAR
STARTCHAR 23A8
ENCODING 9128
SWIDTH 583 0
DWIDTH 7 0
BBX 4 14 0 -3
BITMAP
10
10
10
10
10
10
E0
10
10
10
10
10
10
10
ENDCHAR
STARTCHAR 23A9
ENCODING 9129
SWIDTH 583 0
DWIDTH 7 0
BBX 4 14 3 -3
BITMAP
80
80
80
80
80
80
80
80
80
80
80
80
C0
70
ENDCHAR
STARTCHAR 23AA
ENCODING 9130
SWIDTH 583 0
DWIDTH 7 0
BBX 1 14 3 -3
BITMAP
80
80
80
80
80
80
80
80
80
80
80
80
80
80
ENDCHAR
STARTCHAR 23AB
ENCODING 9131
SWIDTH 583 0
DWIDTH 7 0
BBX 4 15 0 -4
BITMAP
E0
10
10
10
10
10
10
10
10
10
10
10
10
10
10
ENDCHAR
STARTCHAR 23AC
ENCODING 9132
SWIDTH 583 0
DWIDTH 7 0
BBX 4 14 3 -3
BITMAP
80
80
80
80
80
C0
70
C0
80
80
80
80
80
80
ENDCHAR
STARTCHAR 23AD
ENCODING 9133
SWIDTH 583 0
DWIDTH 7 0
BBX 4 14 0 -3
BITMAP
10
10
10
10
10
10
10
10
10
10
10
10
10
E0
ENDCHAR
STARTCHAR 23AE
ENCODING 9134
SWIDTH 583 0
DWIDTH 7 0
BBX 1 14 3 -3
BITMAP
80
80
80
80
80
80
80
80
80
80
80
80
80
80
ENDCHAR
STARTCHAR 23FB
ENCODING 9211
SWIDTH 583 0
DWIDTH 7 0
BBX 10 12 0 -2
BITMAP
0C00
0C00
0C00
6D80
CCC0
CCC0
CCC0
C0C0
C0C0
6180
3F00
0C00
ENDCHAR
STARTCHAR 23FC
ENCODING 9212
SWIDTH 583 0
DWIDTH 7 0
BBX 11 11 0 -1
BITMAP
0E00
3F80
71C0
64E0
C660
C660
C660
C660
64C0
7FC0
1F80
ENDCHAR
STARTCHAR 23FD
ENCODING 9213
SWIDTH 583 0
DWIDTH 7 0
BBX 2 11 3 -1
BITMAP
80
C0
C0
C0
C0
C0
C0
C0
C0
C0
C0
ENDCHAR
STARTCHAR 23FE
ENCODING 9214
SWIDTH 583 0
DWIDTH 7 0
BBX 8 11 0 -1
BITMAP
10
20
60
C0
C0
E0
E0
E0
70
38
1F
ENDCHAR
STARTCHAR 2500
ENCODING 9472
SWIDTH 583 0
DWIDTH 7 0
BBX 7 1 0 4
BITMAP
FE
ENDCHAR
STARTCHAR 2501
ENCODING 9473
SWIDTH 583 0
DWIDTH 7 0
BBX 7 2 0 3
BITMAP
FE
FE
ENDCHAR
STARTCHAR 2502
ENCODING 9474
SWIDTH 583 0
DWIDTH 7 0
BBX 1 14 3 -3
BITMAP
80
80
80
80
80
80
80
80
80
80
80
80
80
80
ENDCHAR
STARTCHAR 2503
ENCODING 9475
SWIDTH 583 0
DWIDTH 7 0
BBX 2 14 3 -3
BITMAP
C0
C0
C0
C0
C0
C0
C0
C0
C0
C0
C0
C0
C0
C0
ENDCHAR
STARTCHAR 2504
ENCODING 9476
SWIDTH 583 0
DWIDTH 7 0
BBX 7 1 0 4
BITMAP
D6
ENDCHAR
STARTCHAR 2505
ENCODING 9477
SWIDTH 583 0
DWIDTH 7 0
BBX 7 2 0 3
BITMAP
D6
D6
ENDCHAR
STARTCHAR 2506
ENCODING 9478
SWIDTH 583 0
DWIDTH 7 0
BBX 1 14 3 -3
BITMAP
80
80
80
80
00
80
80
80
80
00
80
80
80
80
ENDCHAR
STARTCHAR 2507
ENCODING 9479
SWIDTH 583 0
DWIDTH 7 0
BBX 2 14 3 -3
BITMAP
C0
C0
C0
C0
00
C0
C0
C0
C0
00
C0
C0
C0
C0
ENDCHAR
STARTCHAR 2508
ENCODING 9480
SWIDTH 583 0
DWIDTH 7 0
BBX 7 1 0 4
BITMAP
AA
ENDCHAR
STARTCHAR 2509
ENCODING 9481
SWIDTH 583 0
DWIDTH 7 0
BBX 7 2 0 3
BITMAP
AA
AA
ENDCHAR
STARTCHAR 250A
ENCODING 9482
SWIDTH 583 0
DWIDTH 7 0
BBX 1 14 3 -3
BITMAP
80
80
80
00
80
80
80
00
80
80
80
80
80
80
ENDCHAR
STARTCHAR 250B
ENCODING 9483
SWIDTH 583 0
DWIDTH 7 0
BBX 2 14 3 -3
BITMAP
C0
C0
C0
00
C0
C0
C0
00
C0
C0
C0
C0
C0
C0
ENDCHAR
STARTCHAR 250C
ENCODING 9484
SWIDTH 583 0
DWIDTH 7 0
BBX 4 8 3 -3
BITMAP
F0
80
80
80
80
80
80
80
ENDCHAR
STARTCHAR 250D
ENCODING 9485
SWIDTH 583 0
DWIDTH 7 0
BBX 4 9 3 -3
BITMAP
F0
F0
80
80
80
80
80
80
80
ENDCHAR
STARTCHAR 250E
ENCODING 9486
SWIDTH 583 0
DWIDTH 7 0
BBX 4 8 3 -3
BITMAP
F0
C0
C0
C0
C0
C0
C0
C0
ENDCHAR
STARTCHAR 250F
ENCODING 9487
SWIDTH 583 0
DWIDTH 7 0
BBX 4 9 3 -3
BITMAP
F0
F0
C0
C0
C0
C0
C0
C0
C0
ENDCHAR
STARTCHAR 2510
ENCODING 9488
SWIDTH 583 0
DWIDTH 7 0
BBX 4 8 0 -3
BITMAP
F0
10
10
10
10
10
10
10
ENDCHAR
STARTCHAR 2511
ENCODING 9489
SWIDTH 583 0
DWIDTH 7 0
BBX 4 9 0 -3
BITMAP
F0
F0
10
10
10
10
10
10
10
ENDCHAR
STARTCHAR 2512
ENCODING 9490
SWIDTH 583 0
DWIDTH 7 0
BBX 5 8 0 -3
BITMAP
F8
18
18
18
18
18
18
18
ENDCHAR
STARTCHAR 2513
ENCODING 9491
SWIDTH 583 0
DWIDTH 7 0
BBX 5 9 0 -3
BITMAP
F8
F8
18
18
18
18
18
18
18
ENDCHAR
STARTCHAR 2514
ENCODING 9492
SWIDTH 583 0
DWIDTH 7 0
BBX 4 8 3 3
BITMAP
80
80
80
80
80
80
80
F0
ENDCHAR
STARTCHAR 2515
ENCODING 9493
SWIDTH 583 0
DWIDTH 7 0
BBX 4 9 3 2
BITMAP
80
80
80
80
80
80
80
F0
F0
ENDCHAR
STARTCHAR 2516
ENCODING 9494
SWIDTH 583 0
DWIDTH 7 0
BBX 4 8 3 3
BITMAP
C0
C0
C0
C0
C0
C0
C0
F0
ENDCHAR
STARTCHAR 2517
ENCODING 9495
SWIDTH 583 0
DWIDTH 7 0
BBX 4 9 3 2
BITMAP
C0
C0
C0
C0
C0
C0
C0
F0
F0
ENDCHAR
STARTCHAR 2518
ENCODING 9496
SWIDTH 583 0
DWIDTH 7 0
BBX 4 8 0 3
BITMAP
10
10
10
10
10
10
10
F0
ENDCHAR
STARTCHAR 2519
ENCODING 9497
SWIDTH 583 0
DWIDTH 7 0
BBX 4 9 0 2
BITMAP
10
10
10
10
10
10
10
F0
F0
ENDCHAR
STARTCHAR 251A
ENCODING 9498
SWIDTH 583 0
DWIDTH 7 0
BBX 5 8 0 3
BITMAP
18
18
18
18
18
18
18
F8
ENDCHAR
STARTCHAR 251B
ENCODING 9499
SWIDTH 583 0
DWIDTH 7 0
BBX 5 9 0 2
BITMAP
18
18
18
18
18
18
18
F8
F8
ENDCHAR
STARTCHAR 251C
ENCODING 9500
SWIDTH 583 0
DWIDTH 7 0
BBX 4 14 3 -3
BITMAP
80
80
80
80
80
80
F0
80
80
80
80
80
80
80
ENDCHAR
STARTCHAR 251D
ENCODING 9501
SWIDTH 583 0
DWIDTH 7 0
BBX 4 14 3 -3
BITMAP
80
80
80
80
80
F0
F0
80
80
80
80
80
80
80
ENDCHAR
STARTCHAR 251E
ENCODING 9502
SWIDTH 583 0
DWIDTH 7 0
BBX 4 14 3 -3
BITMAP
C0
C0
C0
C0
C0
C0
F0
80
80
80
80
80
80
80
ENDCHAR
STARTCHAR 251F
ENCODING 9503
SWIDTH 583 0
DWIDTH 7 0
BBX 4 14 3 -3
BITMAP
80
80
80
80
80
80
F0
C0
C0
C0
C0
C0
C0
C0
ENDCHAR
STARTCHAR 2520
ENCODING 9504
SWIDTH 583 0
DWIDTH 7 0
BBX 4 14 3 -3
BITMAP
C0
C0
C0
C0
C0
C0
F0
C0
C0
C0
C0
C0
C0
C0
ENDCHAR
STARTCHAR 2521
ENCODING 9505
SWIDTH 583 0
DWIDTH 7 0
BBX 4 14 3 -3
BITMAP
C0
C0
C0
C0
C0
C0
F0
F0
80
80
80
80
80
80
ENDCHAR
STARTCHAR 2522
ENCODING 9506
SWIDTH 583 0
DWIDTH 7 0
BBX 4 14 3 -3
BITMAP
80
80
80
80
80
80
F0
F0
C0
C0
C0
C0
C0
C0
ENDCHAR
STARTCHAR 2523
ENCODING 9507
SWIDTH 583 0
DWIDTH 7 0
BBX 4 14 3 -3
BITMAP
C0
C0
C0
C0
C0
F0
F0
C0
C0
C0
C0
C0
C0
C0
ENDCHAR
STARTCHAR 2524
ENCODING 9508
SWIDTH 583 0
DWIDTH 7 0
BBX 4 14 0 -3
BITMAP
10
10
10
10
10
10
F0
10
10
10
10
10
10
10
ENDCHAR
STARTCHAR 2525
ENCODING 9509
SWIDTH 583 0
DWIDTH 7 0
BBX 4 14 0 -3
BITMAP
10
10
10
10
10
F0
F0
10
10
10
10
10
10
10
ENDCHAR
STARTCHAR 2526
ENCODING 9510
SWIDTH 583 0
DWIDTH 7 0
BBX 5 14 0 -3
BITMAP
18
18
18
18
18
18
F8
10
10
10
10
10
10
10
ENDCHAR
STARTCHAR 2527
ENCODING 9511
SWIDTH 583 0
DWIDTH 7 0
BBX 5 14 0 -3
BITMAP
10
10
10
10
10
10
F8
18
18
18
18
18
18
18
ENDCHAR
STARTCHAR 2528
ENCODING 9512
SWIDTH 583 0
DWIDTH 7 0
BBX 5 14 0 -3
BITMAP
18
18
18
18
18
18
F8
18
18
18
18
18
18
18
ENDCHAR
STARTCHAR 2529
ENCODING 9513
SWIDTH 583 0
DWIDTH 7 0
BBX 5 14 0 -3
BITMAP
18
18
18
18
18
F8
F8
10
10
10
10
10
10
10
ENDCHAR
STARTCHAR 252A
ENCODING 9514
SWIDTH 583 0
DWIDTH 7 0
BBX 5 14 0 -3
BITMAP
10
10
10
10
10
F8
F8
18
18
18
18
18
18
18
ENDCHAR
STARTCHAR 252B
ENCODING 9515
SWIDTH 583 0
DWIDTH 7 0
BBX 5 14 0 -3
BITMAP
18
18
18
18
18
F8
F8
18
18
18
18
18
18
18
ENDCHAR
STARTCHAR 252C
ENCODING 9516
SWIDTH 583 0
DWIDTH 7 0
BBX 7 8 0 -3
BITMAP
FE
10
10
10
10
10
10
10
ENDCHAR
STARTCHAR 252D
ENCODING 9517
SWIDTH 583 0
DWIDTH 7 0
BBX 7 9 0 -3
BITMAP
F0
FE
10
10
10
10
10
10
10
ENDCHAR
STARTCHAR 252E
ENCODING 9518
SWIDTH 583 0
DWIDTH 7 0
BBX 7 9 0 -3
BITMAP
1E
FE
10
10
10
10
10
10
10
ENDCHAR
STARTCHAR 252F
ENCODING 9519
SWIDTH 583 0
DWIDTH 7 0
BBX 7 9 0 -3
BITMAP
FE
FE
10
10
10
10
10
10
10
ENDCHAR
STARTCHAR 2530
ENCODING 9520
SWIDTH 583 0
DWIDTH 7 0
BBX 7 8 0 -3
BITMAP
FE
18
18
18
18
18
18
18
ENDCHAR
STARTCHAR 2531
ENCODING 9521
SWIDTH 583 0
DWIDTH 7 0
BBX 7 9 0 -3
BITMAP
F8
FE
18
18
18
18
18
18
18
ENDCHAR
STARTCHAR 2532
ENCODING 9522
SWIDTH 583 0
DWIDTH 7 0
BBX 7 9 0 -3
BITMAP
1E
FE
18
18
18
18
18
18
18
ENDCHAR
STARTCHAR 2533
ENCODING 9523
SWIDTH 583 0
DWIDTH 7 0
BBX 7 9 0 -3
BITMAP
FE
FE
18
18
18
18
18
18
18
ENDCHAR
STARTCHAR 2534
ENCODING 9524
SWIDTH 583 0
DWIDTH 7 0
BBX 7 8 0 3
BITMAP
10
10
10
10
10
10
10
FE
ENDCHAR
STARTCHAR 2535
ENCODING 9525
SWIDTH 583 0
DWIDTH 7 0
BBX 7 9 0 2
BITMAP
10
10
10
10
10
10
10
FE
F0
ENDCHAR
STARTCHAR 2536
ENCODING 9526
SWIDTH 583 0
DWIDTH 7 0
BBX 7 9 0 2
BITMAP
10
10
10
10
10
10
10
FE
1E
ENDCHAR
STARTCHAR 2537
ENCODING 9527
SWIDTH 583 0
DWIDTH 7 0
BBX 7 9 0 2
BITMAP
10
10
10
10
10
10
10
FE
FE
ENDCHAR
STARTCHAR 2538
ENCODING 9528
SWIDTH 583 0
DWIDTH 7 0
BBX 7 8 0 3
BITMAP
18
18
18
18
18
18
18
FE
ENDCHAR
STARTCHAR 2539
ENCODING 9529
SWIDTH 583 0
DWIDTH 7 0
BBX 7 9 0 2
BITMAP
18
18
18
18
18
18
18
FE
F8
ENDCHAR
STARTCHAR 253A
ENCODING 9530
SWIDTH 583 0
DWIDTH 7 0
BBX 7 9 0 2
BITMAP
18
18
18
18
18
18
18
FE
1E
ENDCHAR
STARTCHAR 253B
ENCODING 9531
SWIDTH 583 0
DWIDTH 7 0
BBX 7 9 0 2
BITMAP
18
18
18
18
18
18
18
FE
FE
ENDCHAR
STARTCHAR 253C
ENCODING 9532
SWIDTH 583 0
DWIDTH 7 0
BBX 7 14 0 -3
BITMAP
10
10
10
10
10
10
FE
10
10
10
10
10
10
10
ENDCHAR
STARTCHAR 253D
ENCODING 9533
SWIDTH 583 0
DWIDTH 7 0
BBX 7 14 0 -3
BITMAP
10
10
10
10
10
F0
FE
10
10
10
10
10
10
10
ENDCHAR
STARTCHAR 253E
ENCODING 9534
SWIDTH 583 0
DWIDTH 7 0
BBX 7 14 0 -3
BITMAP
10
10
10
10
10
1E
FE
10
10
10
10
10
10
10
ENDCHAR
STARTCHAR 253F
ENCODING 9535
SWIDTH 583 0
DWIDTH 7 0
BBX 7 14 0 -3
BITMAP
10
10
10
10
10
FE
FE
10
10
10
10
10
10
10
ENDCHAR
STARTCHAR 2540
ENCODING 9536
SWIDTH 583 0
DWIDTH 7 0
BBX 7 14 0 -3
BITMAP
18
18
18
18
18
18
FE
10
10
10
10
10
10
10
ENDCHAR
STARTCHAR 2541
ENCODING 9537
SWIDTH 583 0
DWIDTH 7 0
BBX 7 14 0 -3
BITMAP
10
10
10
10
10
10
FE
18
18
18
18
18
18
18
ENDCHAR
STARTCHAR 2542
ENCODING 9538
SWIDTH 583 0
DWIDTH 7 0
BBX 7 14 0 -3
BITMAP
18
18
18
18
18
18
FE
18
18
18
18
18
18
18
ENDCHAR
STARTCHAR 2543
ENCODING 9539
SWIDTH 583 0
DWIDTH 7 0
BBX 7 14 0 -3
BITMAP
18
18
18
18
18
F8
FE
10
10
10
10
10
10
10
ENDCHAR
STARTCHAR 2544
ENCODING 9540
SWIDTH 583 0
DWIDTH 7 0
BBX 7 14 0 -3
BITMAP
18
18
18
18
18
18
FE
1E
10
10
10
10
10
10
ENDCHAR
STARTCHAR 2545
ENCODING 9541
SWIDTH 583 0
DWIDTH 7 0
BBX 7 14 0 -3
BITMAP
10
10
10
10
10
F8
FE
18
18
18
18
18
18
18
ENDCHAR
STARTCHAR 2546
ENCODING 9542
SWIDTH 583 0
DWIDTH 7 0
BBX 7 14 0 -3
BITMAP
10
10
10
10
10
10
FE
1E
18
18
18
18
18
18
ENDCHAR
STARTCHAR 2547
ENCODING 9543
SWIDTH 583 0
DWIDTH 7 0
BBX 7 14 0 -3
BITMAP
18
18
18
18
18
FE
FE
10
10
10
10
10
10
10
ENDCHAR
STARTCHAR 2548
ENCODING 9544
SWIDTH 583 0
DWIDTH 7 0
BBX 7 14 0 -3
BITMAP
10
10
10
10
10
FE
FE
18
18
18
18
18
18
18
ENDCHAR
STARTCHAR 2549
ENCODING 9545
SWIDTH 583 0
DWIDTH 7 0
BBX 7 14 0 -3
BITMAP
18
18
18
18
18
F8
FE
18
18
18
18
18
18
18
ENDCHAR
STARTCHAR 254A
ENCODING 9546
SWIDTH 583 0
DWIDTH 7 0
BBX 7 14 0 -3
BITMAP
18
18
18
18
18
1E
FE
18
18
18
18
18
18
18
ENDCHAR
STARTCHAR 254B
ENCODING 9547
SWIDTH 583 0
DWIDTH 7 0
BBX 7 14 0 -3
BITMAP
18
18
18
18
18
FE
FE
18
18
18
18
18
18
18
ENDCHAR
STARTCHAR 254C
ENCODING 9548
SWIDTH 583 0
DWIDTH 7 0
BBX 7 1 0 4
BITMAP
EE
ENDCHAR
STARTCHAR 254D
ENCODING 9549
SWIDTH 583 0
DWIDTH 7 0
BBX 7 2 0 3
BITMAP
EE
EE
ENDCHAR
STARTCHAR 254E
ENCODING 9550
SWIDTH 583 0
DWIDTH 7 0
BBX 1 12 3 -2
BITMAP
80
80
80
80
80
00
00
80
80
80
80
80
ENDCHAR
STARTCHAR 254F
ENCODING 9551
SWIDTH 583 0
DWIDTH 7 0
BBX 2 12 3 -2
BITMAP
C0
C0
C0
C0
C0
00
00
C0
C0
C0
C0
C0
ENDCHAR
STARTCHAR 2550
ENCODING 9552
SWIDTH 583 0
DWIDTH 7 0
BBX 7 3 0 3
BITMAP
FE
00
FE
ENDCHAR
STARTCHAR 2551
ENCODING 9553
SWIDTH 583 0
DWIDTH 7 0
BBX 3 14 2 -3
BITMAP
A0
A0
A0
A0
A0
A0
A0
A0
A0
A0
A0
A0
A0
A0
ENDCHAR
STARTCHAR 2552
ENCODING 9554
SWIDTH 583 0
DWIDTH 7 0
BBX 4 9 3 -3
BITMAP
F0
80
F0
80
80
80
80
80
80
ENDCHAR
STARTCHAR 2553
ENCODING 9555
SWIDTH 583 0
DWIDTH 7 0
BBX 5 8 2 -3
BITMAP
F8
A0
A0
A0
A0
A0
A0
A0
ENDCHAR
STARTCHAR 2554
ENCODING 9556
SWIDTH 583 0
DWIDTH 7 0
BBX 5 9 2 -3
BITMAP
F8
80
B8
A0
A0
A0
A0
A0
A0
ENDCHAR
STARTCHAR 2555
ENCODING 9557
SWIDTH 583 0
DWIDTH 7 0
BBX 4 9 0 -3
BITMAP
F0
10
F0
10
10
10
10
10
10
ENDCHAR
STARTCHAR 2556
ENCODING 9558
SWIDTH 583 0
DWIDTH 7 0
BBX 5 8 0 -3
BITMAP
F8
28
28
28
28
28
28
28
ENDCHAR
STARTCHAR 2557
ENCODING 9559
SWIDTH 583 0
DWIDTH 7 0
BBX 5 9 0 -3
BITMAP
F8
08
E8
28
28
28
28
28
28
ENDCHAR
STARTCHAR 2558
ENCODING 9560
SWIDTH 583 0
DWIDTH 7 0
BBX 4 9 3 2
BITMAP
80
80
80
80
80
80
F0
80
F0
ENDCHAR
STARTCHAR 2559
ENCODING 9561
SWIDTH 583 0
DWIDTH 7 0
BBX 5 8 2 3
BITMAP
A0
A0
A0
A0
A0
A0
A0
F8
ENDCHAR
STARTCHAR 255A
ENCODING 9562
SWIDTH 583 0
DWIDTH 7 0
BBX 5 9 2 2
BITMAP
A0
A0
A0
A0
A0
A0
B8
80
F8
ENDCHAR
STARTCHAR 255B
ENCODING 9563
SWIDTH 583 0
DWIDTH 7 0
BBX 4 9 0 2
BITMAP
10
10
10
10
10
10
F0
10
F0
ENDCHAR
STARTCHAR 255C
ENCODING 9564
SWIDTH 583 0
DWIDTH 7 0
BBX 5 8 0 3
BITMAP
28
28
28
28
28
28
28
F8
ENDCHAR
STARTCHAR 255D
ENCODING 9565
SWIDTH 583 0
DWIDTH 7 0
BBX 5 9 0 2
BITMAP
28
28
28
28
28
28
E8
08
F8
ENDCHAR
STARTCHAR 255E
ENCODING 9566
SWIDTH 583 0
DWIDTH 7 0
BBX 4 14 3 -3
BITMAP
80
80
80
80
80
F0
80
F0
80
80
80
80
80
80
ENDCHAR
STARTCHAR 255F
ENCODING 9567
SWIDTH 583 0
DWIDTH 7 0
BBX 5 14 2 -3
BITMAP
A0
A0
A0
A0
A0
A0
B8
A0
A0
A0
A0
A0
A0
A0
ENDCHAR
STARTCHAR 2560
ENCODING 9568
SWIDTH 583 0
DWIDTH 7 0
BBX 5 14 2 -3
BITMAP
A0
A0
A0
A0
A0
B8
80
B8
A0
A0
A0
A0
A0
A0
ENDCHAR
STARTCHAR 2561
ENCODING 9569
SWIDTH 583 0
DWIDTH 7 0
BBX 4 14 0 -3
BITMAP
10
10
10
10
10
F0
10
F0
10
10
10
10
10
10
ENDCHAR
STARTCHAR 2562
ENCODING 9570
SWIDTH 583 0
DWIDTH 7 0
BBX 5 14 0 -3
BITMAP
28
28
28
28
28
28
E8
28
28
28
28
28
28
28
ENDCHAR
STARTCHAR 2563
ENCODING 9571
SWIDTH 583 0
DWIDTH 7 0
BBX 5 14 0 -3
BITMAP
28
28
28
28
28
E8
08
E8
28
28
28
28
28
28
ENDCHAR
STARTCHAR 2564
ENCODING 9572
SWIDTH 583 0
DWIDTH 7 0
BBX 7 9 0 -3
BITMAP
FE
00
FE
10
10
10
10
10
10
ENDCHAR
STARTCHAR 2565
ENCODING 9573
SWIDTH 583 0
DWIDTH 7 0
BBX 7 8 0 -3
BITMAP
FE
28
28
28
28
28
28
28
ENDCHAR
STARTCHAR 2566
ENCODING 9574
SWIDTH 583 0
DWIDTH 7 0
BBX 7 9 0 -3
BITMAP
FE
00
EE
28
28
28
28
28
28
ENDCHAR
STARTCHAR 2567
ENCODING 9575
SWIDTH 583 0
DWIDTH 7 0
BBX 7 9 0 2
BITMAP
10
10
10
10
10
10
FE
00
FE
ENDCHAR
STARTCHAR 2568
ENCODING 9576
SWIDTH 583 0
DWIDTH 7 0
BBX 7 8 0 3
BITMAP
28
28
28
28
28
28
28
FE
ENDCHAR
STARTCHAR 2569
ENCODING 9577
SWIDTH 583 0
DWIDTH 7 0
BBX 7 9 0 2
BITMAP
28
28
28
28
28
28
EE
00
FE
ENDCHAR
STARTCHAR 256A
ENCODING 9578
SWIDTH 583 0
DWIDTH 7 0
BBX 7 14 0 -3
BITMAP
10
10
10
10
10
FE
10
FE
10
10
10
10
10
10
ENDCHAR
STARTCHAR 256B
ENCODING 9579
SWIDTH 583 0
DWIDTH 7 0
BBX 7 14 0 -3
BITMAP
28
28
28
28
28
28
FE
28
28
28
28
28
28
28
ENDCHAR
STARTCHAR 256C
ENCODING 9580
SWIDTH 583 0
DWIDTH 7 0
BBX 7 14 0 -3
BITMAP
28
28
28
28
28
EE
00
EE
28
28
28
28
28
28
ENDCHAR
STARTCHAR 256D
ENCODING 9581
SWIDTH 583 0
DWIDTH 7 0
BBX 4 8 3 -3
BITMAP
70
80
80
80
80
80
80
80
ENDCHAR
STARTCHAR 256E
ENCODING 9582
SWIDTH 583 0
DWIDTH 7 0
BBX 4 8 0 -3
BITMAP
E0
10
10
10
10
10
10
10
ENDCHAR
STARTCHAR 256F
ENCODING 9583
SWIDTH 583 0
DWIDTH 7 0
BBX 4 8 0 3
BITMAP
10
10
10
10
10
10
10
E0
ENDCHAR
STARTCHAR 2570
ENCODING 9584
SWIDTH 583 0
DWIDTH 7 0
BBX 4 8 3 3
BITMAP
80
80
80
80
80
80
80
70
ENDCHAR
STARTCHAR 2571
ENCODING 9585
SWIDTH 583 0
DWIDTH 7 0
BBX 9 14 -1 -3
BITMAP
0180
0100
0200
0200
0400
0400
0800
0800
1000
1000
2000
2000
4000
C000
ENDCHAR
STARTCHAR 2572
ENCODING 9586
SWIDTH 583 0
DWIDTH 7 0
BBX 9 14 -1 -3
BITMAP
C000
4000
2000
2000
1000
1000
0800
0800
0400
0400
0200
0200
0100
0180
ENDCHAR
STARTCHAR 2573
ENCODING 9587
SWIDTH 583 0
DWIDTH 7 0
BBX 9 14 -1 -3
BITMAP
C180
4100
2200
2200
1400
1400
0800
0800
1400
1400
2200
2200
4100
C180
ENDCHAR
STARTCHAR 2574
ENCODING 9588
SWIDTH 583 0
DWIDTH 7 0
BBX 4 1 0 4
BITMAP
F0
ENDCHAR
STARTCHAR 2575
ENCODING 9589
SWIDTH 583 0
DWIDTH 7 0
BBX 1 7 3 4
BITMAP
80
80
80
80
80
80
80
ENDCHAR
STARTCHAR 2576
ENCODING 9590
SWIDTH 583 0
DWIDTH 7 0
BBX 3 1 4 4
BITMAP
E0
ENDCHAR
STARTCHAR 2577
ENCODING 9591
SWIDTH 583 0
DWIDTH 7 0
BBX 1 7 3 -3
BITMAP
80
80
80
80
80
80
80
ENDCHAR
STARTCHAR 2578
ENCODING 9592
SWIDTH 583 0
DWIDTH 7 0
BBX 4 2 0 3
BITMAP
F0
F0
ENDCHAR
STARTCHAR 2579
ENCODING 9593
SWIDTH 583 0
DWIDTH 7 0
BBX 2 7 3 4
BITMAP
C0
C0
C0
C0
C0
C0
C0
ENDCHAR
STARTCHAR 257A
ENCODING 9594
SWIDTH 583 0
DWIDTH 7 0
BBX 3 2 4 3
BITMAP
E0
E0
ENDCHAR
STARTCHAR 257B
ENCODING 9595
SWIDTH 583 0
DWIDTH 7 0
BBX 2 7 3 -3
BITMAP
C0
C0
C0
C0
C0
C0
C0
ENDCHAR
STARTCHAR 257C
ENCODING 9596
SWIDTH 583 0
DWIDTH 7 0
BBX 7 2 0 3
BITMAP
FE
0E
ENDCHAR
STARTCHAR 257D
ENCODING 9597
SWIDTH 583 0
DWIDTH 7 0
BBX 2 14 3 -3
BITMAP
80
80
80
80
80
80
80
C0
C0
C0
C0
C0
C0
C0
ENDCHAR
STARTCHAR 257E
ENCODING 9598
SWIDTH 583 0
DWIDTH 7 0
BBX 7 2 0 3
BITMAP
FE
F0
ENDCHAR
STARTCHAR 257F
ENCODING 9599
SWIDTH 583 0
DWIDTH 7 0
BBX 2 14 3 -3
BITMAP
C0
C0
C0
C0
C0
C0
C0
80
80
80
80
80
80
80
ENDCHAR
STARTCHAR 2580
ENCODING 9600
SWIDTH 583 0
DWIDTH 7 0
BBX 7 7 0 4
BITMAP
FE
FE
FE
FE
FE
FE
FE
ENDCHAR
STARTCHAR 2581
ENCODING 9601
SWIDTH 583 0
DWIDTH 7 0
BBX 7 2 0 -3
BITMAP
FE
FE
ENDCHAR
STARTCHAR 2582
ENCODING 9602
SWIDTH 583 0
DWIDTH 7 0
BBX 7 4 0 -3
BITMAP
FE
FE
FE
FE
ENDCHAR
STARTCHAR 2583
ENCODING 9603
SWIDTH 583 0
DWIDTH 7 0
BBX 7 5 0 -3
BITMAP
FE
FE
FE
FE
FE
ENDCHAR
STARTCHAR 2584
ENCODING 9604
SWIDTH 583 0
DWIDTH 7 0
BBX 7 7 0 -3
BITMAP
FE
FE
FE
FE
FE
FE
FE
ENDCHAR
STARTCHAR 2585
ENCODING 9605
SWIDTH 583 0
DWIDTH 7 0
BBX 7 9 0 -3
BITMAP
FE
FE
FE
FE
FE
FE
FE
FE
FE
ENDCHAR
STARTCHAR 2586
ENCODING 9606
SWIDTH 583 0
DWIDTH 7 0
BBX 7 11 0 -3
BITMAP
FE
FE
FE
FE
FE
FE
FE
FE
FE
FE
FE
ENDCHAR
STARTCHAR 2587
ENCODING 9607
SWIDTH 583 0
DWIDTH 7 0
BBX 7 13 0 -3
BITMAP
FE
FE
FE
FE
FE
FE
FE
FE
FE
FE
FE
FE
FE
ENDCHAR
STARTCHAR 2588
ENCODING 9608
SWIDTH 583 0
DWIDTH 7 0
BBX 7 14 0 -3
BITMAP
FE
FE
FE
FE
FE
FE
FE
FE
FE
FE
FE
FE
FE
FE
ENDCHAR
STARTCHAR 2589
ENCODING 9609
SWIDTH 583 0
DWIDTH 7 0
BBX 6 14 0 -3
BITMAP
FC
FC
FC
FC
FC
FC
FC
FC
FC
FC
FC
FC
FC
FC
ENDCHAR
STARTCHAR 258A
ENCODING 9610
SWIDTH 583 0
DWIDTH 7 0
BBX 5 14 0 -3
BITMAP
F8
F8
F8
F8
F8
F8
F8
F8
F8
F8
F8
F8
F8
F8
ENDCHAR
STARTCHAR 258B
ENCODING 9611
SWIDTH 583 0
DWIDTH 7 0
BBX 5 14 0 -3
BITMAP
F8
F8
F8
F8
F8
F8
F8
F8
F8
F8
F8
F8
F8
F8
ENDCHAR
STARTCHAR 258C
ENCODING 9612
SWIDTH 583 0
DWIDTH 7 0
BBX 4 14 0 -3
BITMAP
F0
F0
F0
F0
F0
F0
F0
F0
F0
F0
F0
F0
F0
F0
ENDCHAR
STARTCHAR 258D
ENCODING 9613
SWIDTH 583 0
DWIDTH 7 0
BBX 3 14 0 -3
BITMAP
E0
E0
E0
E0
E0
E0
E0
E0
E0
E0
E0
E0
E0
E0
ENDCHAR
STARTCHAR 258E
ENCODING 9614
SWIDTH 583 0
DWIDTH 7 0
BBX 2 14 0 -3
BITMAP
C0
C0
C0
C0
C0
C0
C0
C0
C0
C0
C0
C0
C0
C0
ENDCHAR
STARTCHAR 258F
ENCODING 9615
SWIDTH 583 0
DWIDTH 7 0
BBX 1 14 0 -3
BITMAP
80
80
80
80
80
80
80
80
80
80
80
80
80
80
ENDCHAR
STARTCHAR 2590
ENCODING 9616
SWIDTH 583 0
DWIDTH 7 0
BBX 3 14 4 -3
BITMAP
E0
E0
E0
E0
E0
E0
E0
E0
E0
E0
E0
E0
E0
E0
ENDCHAR
STARTCHAR 2591
ENCODING 9617
SWIDTH 583 0
DWIDTH 7 0
BBX 6 14 0 -3
BITMAP
88
24
00
88
00
24
00
88
00
24
00
88
00
24
ENDCHAR
STARTCHAR 2592
ENCODING 9618
SWIDTH 583 0
DWIDTH 7 0
BBX 7 14 0 -3
BITMAP
B4
4A
00
B4
4A
B4
00
4A
B4
00
4A
B4
00
4A
ENDCHAR
STARTCHAR 2593
ENCODING 9619
SWIDTH 583 0
DWIDTH 7 0
BBX 7 14 0 -3
BITMAP
76
FE
DA
76
76
DA
DA
76
76
DA
FE
76
DA
DA
ENDCHAR
STARTCHAR 2594
ENCODING 9620
SWIDTH 583 0
DWIDTH 7 0
BBX 7 2 0 9
BITMAP
FE
FE
ENDCHAR
STARTCHAR 2595
ENCODING 9621
SWIDTH 583 0
DWIDTH 7 0
BBX 1 14 6 -3
BITMAP
80
80
80
80
80
80
80
80
80
80
80
80
80
80
ENDCHAR
STARTCHAR 2596
ENCODING 9622
SWIDTH 583 0
DWIDTH 7 0
BBX 4 7 0 -3
BITMAP
F0
F0
F0
F0
F0
F0
F0
ENDCHAR
STARTCHAR 2597
ENCODING 9623
SWIDTH 583 0
DWIDTH 7 0
BBX 3 7 4 -3
BITMAP
E0
E0
E0
E0
E0
E0
E0
ENDCHAR
STARTCHAR 2598
ENCODING 9624
SWIDTH 583 0
DWIDTH 7 0
BBX 4 7 0 4
BITMAP
F0
F0
F0
F0
F0
F0
F0
ENDCHAR
STARTCHAR 2599
ENCODING 9625
SWIDTH 583 0
DWIDTH 7 0
BBX 7 14 0 -3
BITMAP
F0
F0
F0
F0
F0
F0
F0
FE
FE
FE
FE
FE
FE
FE
ENDCHAR
STARTCHAR 259A
ENCODING 9626
SWIDTH 583 0
DWIDTH 7 0
BBX 7 14 0 -3
BITMAP
F0
F0
F0
F0
F0
F0
F0
0E
0E
0E
0E
0E
0E
0E
ENDCHAR
STARTCHAR 259B
ENCODING 9627
SWIDTH 583 0
DWIDTH 7 0
BBX 7 14 0 -3
BITMAP
FE
FE
FE
FE
FE
FE
FE
F0
F0
F0
F0
F0
F0
F0
ENDCHAR
STARTCHAR 259C
ENCODING 9628
SWIDTH 583 0
DWIDTH 7 0
BBX 7 14 0 -3
BITMAP
FE
FE
FE
FE
FE
FE
FE
0E
0E
0E
0E
0E
0E
0E
ENDCHAR
STARTCHAR 259D
ENCODING 9629
SWIDTH 583 0
DWIDTH 7 0
BBX 3 7 4 4
BITMAP
E0
E0
E0
E0
E0
E0
E0
ENDCHAR
STARTCHAR 259E
ENCODING 9630
SWIDTH 583 0
DWIDTH 7 0
BBX 7 14 0 -3
BITMAP
0E
0E
0E
0E
0E
0E
0E
F0
F0
F0
F0
F0
F0
F0
ENDCHAR
STARTCHAR 259F
ENCODING 9631
SWIDTH 583 0
DWIDTH 7 0
BBX 7 14 0 -3
BITMAP
0E
0E
0E
0E
0E
0E
0E
FE
FE
FE
FE
FE
FE
FE
ENDCHAR
STARTCHAR 25A0
ENCODING 9632
SWIDTH 583 0
DWIDTH 7 0
BBX 7 7 0 0
BITMAP
FE
FE
FE
FE
FE
FE
FE
ENDCHAR
STARTCHAR 25A1
ENCODING 9633
SWIDTH 583 0
DWIDTH 7 0
BBX 7 8 0 -1
BITMAP
FE
82
82
82
82
82
82
FE
ENDCHAR
STARTCHAR 25A2
ENCODING 9634
SWIDTH 583 0
DWIDTH 7 0
BBX 7 8 0 -1
BITMAP
7E
82
82
82
82
82
82
7E
ENDCHAR
STARTCHAR 25A3
ENCODING 9635
SWIDTH 583 0
DWIDTH 7 0
BBX 7 8 0 -1
BITMAP
FE
82
FE
FE
FE
FE
FE
FE
ENDCHAR
STARTCHAR 25A4
ENCODING 9636
SWIDTH 583 0
DWIDTH 7 0
BBX 7 8 0 -1
BITMAP
FE
FE
82
FE
FE
FE
82
FE
ENDCHAR
STARTCHAR 25A5
ENCODING 9637
SWIDTH 583 0
DWIDTH 7 0
BBX 7 8 0 -1
BITMAP
FE
EE
EE
EE
EE
EE
EE
FE
ENDCHAR
STARTCHAR 25A6
ENCODING 9638
SWIDTH 583 0
DWIDTH 7 0
BBX 7 8 0 -1
BITMAP
FE
FE
EE
FE
FE
FE
EE
FE
ENDCHAR
STARTCHAR 25A7
ENCODING 9639
SWIDTH 583 0
DWIDTH 7 0
BBX 7 8 0 -1
BITMAP
FE
B6
DA
AE
D6
AE
D6
FE
ENDCHAR
STARTCHAR 25A8
ENCODING 9640
SWIDTH 583 0
DWIDTH 7 0
BBX 7 8 0 -1
BITMAP
FE
D6
AE
DA
AE
DA
B6
FE
ENDCHAR
STARTCHAR 25A9
ENCODING 9641
SWIDTH 583 0
DWIDTH 7 0
BBX 7 8 0 -1
BITMAP
FE
F6
FE
FE
FE
FE
F6
FE
ENDCHAR
STARTCHAR 25AA
ENCODING 9642
SWIDTH 583 0
DWIDTH 7 0
BBX 5 5 1 1
BITMAP
F8
F8
F8
F8
F8
ENDCHAR
STARTCHAR 25AB
ENCODING 9643
SWIDTH 583 0
DWIDTH 7 0
BBX 5 5 1 1
BITMAP
F8
88
88
88
F8
ENDCHAR
STARTCHAR 25AC
ENCODING 9644
SWIDTH 583 0
DWIDTH 7 0
BBX 7 4 0 1
BITMAP
FE
FE
FE
FE
ENDCHAR
STARTCHAR 25AD
ENCODING 9645
SWIDTH 583 0
DWIDTH 7 0
BBX 7 4 0 1
BITMAP
FE
82
82
FE
ENDCHAR
STARTCHAR 25AE
ENCODING 9646
SWIDTH 583 0
DWIDTH 7 0
BBX 3 7 2 0
BITMAP
E0
E0
E0
E0
E0
E0
E0
ENDCHAR
STARTCHAR 25AF
ENCODING 9647
SWIDTH 583 0
DWIDTH 7 0
BBX 3 8 2 -1
BITMAP
E0
A0
A0
A0
A0
A0
A0
E0
ENDCHAR
STARTCHAR 25B0
ENCODING 9648
SWIDTH 583 0
DWIDTH 7 0
BBX 7 4 0 1
BITMAP
3E
7E
7C
FC
ENDCHAR
STARTCHAR 25B1
ENCODING 9649
SWIDTH 583 0
DWIDTH 7 0
BBX 7 4 0 1
BITMAP
3E
42
44
FC
ENDCHAR
STARTCHAR 25B2
ENCODING 9650
SWIDTH 583 0
DWIDTH 7 0
BBX 7 7 0 0
BITMAP
10
10
38
38
7C
7C
FE
ENDCHAR
STARTCHAR 25B3
ENCODING 9651
SWIDTH 583 0
DWIDTH 7 0
BBX 7 7 0 -1
BITMAP
10
28
28
44
44
42
FE
ENDCHAR
STARTCHAR 25B4
ENCODING 9652
SWIDTH 583 0
DWIDTH 7 0
BBX 5 5 1 1
BITMAP
20
20
30
70
F8
ENDCHAR
STARTCHAR 25B5
ENCODING 9653
SWIDTH 583 0
DWIDTH 7 0
BBX 5 5 1 1
BITMAP
20
20
50
50
F8
ENDCHAR
STARTCHAR 25B6
ENCODING 9654
SWIDTH 583 0
DWIDTH 7 0
BBX 7 7 0 0
BITMAP
80
C0
F0
FE
FC
F0
C0
ENDCHAR
STARTCHAR 25B7
ENCODING 9655
SWIDTH 583 0
DWIDTH 7 0
BBX 7 7 0 0
BITMAP
80
E0
98
86
8C
B0
C0
ENDCHAR
STARTCHAR 25B8
ENCODING 9656
SWIDTH 583 0
DWIDTH 7 0
BBX 5 4 1 1
BITMAP
C0
F8
F0
C0
ENDCHAR
STARTCHAR 25B9
ENCODING 9657
SWIDTH 583 0
DWIDTH 7 0
BBX 5 4 1 1
BITMAP
C0
B8
B0
C0
ENDCHAR
STARTCHAR 25BA
ENCODING 9658
SWIDTH 583 0
DWIDTH 7 0
BBX 7 4 0 1
BITMAP
E0
FE
F8
C0
ENDCHAR
STARTCHAR 25BB
ENCODING 9659
SWIDTH 583 0
DWIDTH 7 0
BBX 7 4 0 1
BITMAP
E0
9E
98
E0
ENDCHAR
STARTCHAR 25BC
ENCODING 9660
SWIDTH 583 0
DWIDTH 7 0
BBX 7 7 0 0
BITMAP
FE
7C
7C
3C
38
18
10
ENDCHAR
STARTCHAR 25BD
ENCODING 9661
SWIDTH 583 0
DWIDTH 7 0
BBX 7 8 0 -1
BITMAP
FE
42
44
24
28
18
10
10
ENDCHAR
STARTCHAR 25BE
ENCODING 9662
SWIDTH 583 0
DWIDTH 7 0
BBX 5 5 1 1
BITMAP
F8
70
70
20
20
ENDCHAR
STARTCHAR 25BF
ENCODING 9663
SWIDTH 583 0
DWIDTH 7 0
BBX 5 5 1 1
BITMAP
F8
50
50
20
20
ENDCHAR
STARTCHAR 25C0
ENCODING 9664
SWIDTH 583 0
DWIDTH 7 0
BBX 7 7 0 0
BITMAP
02
06
1E
FE
7E
1E
06
ENDCHAR
STARTCHAR 25C1
ENCODING 9665
SWIDTH 583 0
DWIDTH 7 0
BBX 7 7 0 0
BITMAP
02
0E
32
C2
62
1A
06
ENDCHAR
STARTCHAR 25C2
ENCODING 9666
SWIDTH 583 0
DWIDTH 7 0
BBX 5 4 1 1
BITMAP
18
F8
38
08
ENDCHAR
STARTCHAR 25C3
ENCODING 9667
SWIDTH 583 0
DWIDTH 7 0
BBX 5 4 1 1
BITMAP
18
E8
28
18
ENDCHAR
STARTCHAR 25C4
ENCODING 9668
SWIDTH 583 0
DWIDTH 7 0
BBX 7 4 0 1
BITMAP
0E
FE
3E
06
ENDCHAR
STARTCHAR 25C5
ENCODING 9669
SWIDTH 583 0
DWIDTH 7 0
BBX 7 4 0 1
BITMAP
0E
F2
3A
06
ENDCHAR
STARTCHAR 25C6
ENCODING 9670
SWIDTH 583 0
DWIDTH 7 0
BBX 7 7 0 0
BITMAP
10
38
7C
FE
7E
3C
18
ENDCHAR
STARTCHAR 25C7
ENCODING 9671
SWIDTH 583 0
DWIDTH 7 0
BBX 7 7 0 0
BITMAP
10
38
64
C2
46
2C
18
ENDCHAR
STARTCHAR 25C8
ENCODING 9672
SWIDTH 583 0
DWIDTH 7 0
BBX 7 7 0 0
BITMAP
10
28
54
BE
7A
34
18
ENDCHAR
STARTCHAR 25C9
ENCODING 9673
SWIDTH 583 0
DWIDTH 7 0
BBX 7 8 0 -1
BITMAP
38
7C
FE
FE
FE
BA
44
38
ENDCHAR
STARTCHAR 25CA
ENCODING 9674
SWIDTH 583 0
DWIDTH 7 0
BBX 6 13 1 -3
BITMAP
20
20
50
50
88
88
84
88
88
50
50
20
20
ENDCHAR
STARTCHAR 25CB
ENCODING 9675
SWIDTH 583 0
DWIDTH 7 0
BBX 7 8 0 -1
BITMAP
38
44
82
82
82
82
44
38
ENDCHAR
STARTCHAR 25CC
ENCODING 9676
SWIDTH 583 0
DWIDTH 7 0
BBX 7 8 0 -1
BITMAP
10
46
00
82
82
00
46
10
ENDCHAR
STARTCHAR 25CD
ENCODING 9677
SWIDTH 583 0
DWIDTH 7 0
BBX 7 8 0 -1
BITMAP
38
6C
EE
EE
EE
EE
6C
38
ENDCHAR
STARTCHAR 25CE
ENCODING 9678
SWIDTH 583 0
DWIDTH 7 0
BBX 7 8 0 -1
BITMAP
38
44
9A
AA
AA
9A
44
38
ENDCHAR
STARTCHAR 25CF
ENCODING 9679
SWIDTH 583 0
DWIDTH 7 0
BBX 7 8 0 -1
BITMAP
38
7C
FE
FE
FE
FE
7C
38
ENDCHAR
STARTCHAR 25D0
ENCODING 9680
SWIDTH 583 0
DWIDTH 7 0
BBX 7 8 0 -1
BITMAP
38
74
F2
F2
F2
F2
74
38
ENDCHAR
STARTCHAR 25D1
ENCODING 9681
SWIDTH 583 0
DWIDTH 7 0
BBX 7 8 0 -1
BITMAP
38
4C
8E
8E
8E
8E
4C
38
ENDCHAR
STARTCHAR 25D2
ENCODING 9682
SWIDTH 583 0
DWIDTH 7 0
BBX 7 8 0 -1
BITMAP
38
44
82
82
FE
FE
7C
38
ENDCHAR
STARTCHAR 25D3
ENCODING 9683
SWIDTH 583 0
DWIDTH 7 0
BBX 7 8 0 -1
BITMAP
38
7C
FE
FE
82
82
44
38
ENDCHAR
STARTCHAR 25D4
ENCODING 9684
SWIDTH 583 0
DWIDTH 7 0
BBX 7 8 0 -1
BITMAP
38
4C
8E
8E
82
82
44
38
ENDCHAR
STARTCHAR 25D5
ENCODING 9685
SWIDTH 583 0
DWIDTH 7 0
BBX 7 8 0 -1
BITMAP
38
4C
8E
8E
FE
FE
7C
38
ENDCHAR
STARTCHAR 25D6
ENCODING 9686
SWIDTH 583 0
DWIDTH 7 0
BBX 3 8 2 -1
BITMAP
20
60
E0
E0
E0
E0
60
20
ENDCHAR
STARTCHAR 25D7
ENCODING 9687
SWIDTH 583 0
DWIDTH 7 0
BBX 3 8 2 -1
BITMAP
80
E0
E0
E0
E0
E0
E0
80
ENDCHAR
STARTCHAR 25D8
ENCODING 9688
SWIDTH 583 0
DWIDTH 7 0
BBX 7 10 0 0
BITMAP
FE
FE
FE
C6
C6
C6
C6
FE
FE
FE
ENDCHAR
STARTCHAR 25D9
ENCODING 9689
SWIDTH 583 0
DWIDTH 7 0
BBX 7 13 0 -3
BITMAP
FE
FE
FE
C2
BA
FE
FE
FE
FE
FA
FE
FE
FE
ENDCHAR
STARTCHAR 25DA
ENCODING 9690
SWIDTH 583 0
DWIDTH 7 0
BBX 7 7 0 3
BITMAP
FE
FE
FE
C2
BA
FE
FE
ENDCHAR
STARTCHAR 25DB
ENCODING 9691
SWIDTH 583 0
DWIDTH 7 0
BBX 7 6 0 -3
BITMAP
FE
FE
BA
FE
FE
FE
ENDCHAR
STARTCHAR 25DC
ENCODING 9692
SWIDTH 583 0
DWIDTH 7 0
BBX 3 4 2 3
BITMAP
20
40
80
80
ENDCHAR
STARTCHAR 25DD
ENCODING 9693
SWIDTH 583 0
DWIDTH 7 0
BBX 3 4 2 3
BITMAP
C0
60
20
20
ENDCHAR
STARTCHAR 25DE
ENCODING 9694
SWIDTH 583 0
DWIDTH 7 0
BBX 3 4 2 -1
BITMAP
20
20
60
80
ENDCHAR
STARTCHAR 25DF
ENCODING 9695
SWIDTH 583 0
DWIDTH 7 0
BBX 3 4 2 -1
BITMAP
80
80
40
20
ENDCHAR
STARTCHAR 25E0
ENCODING 9696
SWIDTH 583 0
DWIDTH 7 0
BBX 7 4 0 3
BITMAP
38
44
82
82
ENDCHAR
STARTCHAR 25E1
ENCODING 9697
SWIDTH 583 0
DWIDTH 7 0
BBX 7 4 0 -1
BITMAP
82
82
44
38
ENDCHAR
STARTCHAR 25E2
ENCODING 9698
SWIDTH 583 0
DWIDTH 7 0
BBX 7 7 0 0
BITMAP
02
06
0E
1E
3E
7E
FE
ENDCHAR
STARTCHAR 25E3
ENCODING 9699
SWIDTH 583 0
DWIDTH 7 0
BBX 7 7 0 0
BITMAP
80
C0
E0
F0
F8
FC
FE
ENDCHAR
STARTCHAR 25E4
ENCODING 9700
SWIDTH 583 0
DWIDTH 7 0
BBX 7 7 0 0
BITMAP
FE
FC
F8
F0
E0
C0
80
ENDCHAR
STARTCHAR 25E5
ENCODING 9701
SWIDTH 583 0
DWIDTH 7 0
BBX 7 7 0 0
BITMAP
FE
7E
3E
1E
0E
06
02
ENDCHAR
STARTCHAR 25E6
ENCODING 9702
SWIDTH 583 0
DWIDTH 7 0
BBX 3 4 2 3
BITMAP
E0
A0
A0
E0
ENDCHAR
STARTCHAR 25E7
ENCODING 9703
SWIDTH 583 0
DWIDTH 7 0
BBX 7 8 0 -1
BITMAP
FE
F2
F2
F2
F2
F2
F2
FE
ENDCHAR
STARTCHAR 25E8
ENCODING 9704
SWIDTH 583 0
DWIDTH 7 0
BBX 7 8 0 -1
BITMAP
FE
8E
8E
8E
8E
8E
8E
FE
ENDCHAR
STARTCHAR 25E9
ENCODING 9705
SWIDTH 583 0
DWIDTH 7 0
BBX 7 8 0 -1
BITMAP
FE
FE
FA
F2
E2
C2
82
FE
ENDCHAR
STARTCHAR 25EA
ENCODING 9706
SWIDTH 583 0
DWIDTH 7 0
BBX 7 7 0 0
BITMAP
FE
82
86
8E
9E
BE
FE
ENDCHAR
STARTCHAR 25EB
ENCODING 9707
SWIDTH 583 0
DWIDTH 7 0
BBX 7 8 0 -1
BITMAP
FE
92
92
92
92
92
92
FE
ENDCHAR
STARTCHAR 25EC
ENCODING 9708
SWIDTH 583 0
DWIDTH 7 0
BBX 7 7 0 -1
BITMAP
10
28
28
54
54
42
FE
ENDCHAR
STARTCHAR 25ED
ENCODING 9709
SWIDTH 583 0
DWIDTH 7 0
BBX 7 7 0 -1
BITMAP
10
10
38
34
74
72
FE
ENDCHAR
STARTCHAR 25EE
ENCODING 9710
SWIDTH 583 0
DWIDTH 7 0
BBX 7 7 0 -1
BITMAP
10
28
28
48
4C
4C
FE
ENDCHAR
STARTCHAR 25EF
ENCODING 9711
SWIDTH 583 0
DWIDTH 7 0
BBX 7 8 0 -1
BITMAP
38
46
82
82
82
82
46
38
ENDCHAR
STARTCHAR 25F0
ENCODING 9712
SWIDTH 583 0
DWIDTH 7 0
BBX 7 8 0 -1
BITMAP
FE
92
92
F2
82
82
82
FE
ENDCHAR
STARTCHAR 25F1
ENCODING 9713
SWIDTH 583 0
DWIDTH 7 0
BBX 7 8 0 -1
BITMAP
FE
82
82
F2
92
92
92
FE
ENDCHAR
STARTCHAR 25F2
ENCODING 9714
SWIDTH 583 0
DWIDTH 7 0
BBX 7 8 0 -1
BITMAP
FE
82
82
9E
92
92
92
FE
ENDCHAR
STARTCHAR 25F3
ENCODING 9715
SWIDTH 583 0
DWIDTH 7 0
BBX 7 8 0 -1
BITMAP
FE
92
92
9E
82
82
82
FE
ENDCHAR
STARTCHAR 25F4
ENCODING 9716
SWIDTH 583 0
DWIDTH 7 0
BBX 7 8 0 -1
BITMAP
38
54
92
F2
82
82
44
38
ENDCHAR
STARTCHAR 25F5
ENCODING 9717
SWIDTH 583 0
DWIDTH 7 0
BBX 7 7 0 0
BITMAP
38
46
82
F2
92
92
7C
ENDCHAR
STARTCHAR 25F6
ENCODING 9718
SWIDTH 583 0
DWIDTH 7 0
BBX 7 7 0 0
BITMAP
38
46
82
9E
92
92
7C
ENDCHAR
STARTCHAR 25F7
ENCODING 9719
SWIDTH 583 0
DWIDTH 7 0
BBX 7 8 0 -1
BITMAP
38
56
92
9E
82
82
44
38
ENDCHAR
STARTCHAR 25F8
ENCODING 9720
SWIDTH 583 0
DWIDTH 7 0
BBX 7 8 0 -1
BITMAP
FE
84
88
90
A0
C0
80
80
ENDCHAR
STARTCHAR 25F9
ENCODING 9721
SWIDTH 583 0
DWIDTH 7 0
BBX 7 8 0 -1
BITMAP
FE
42
22
12
0A
06
02
02
ENDCHAR
STARTCHAR 25FA
ENCODING 9722
SWIDTH 583 0
DWIDTH 7 0
BBX 7 8 0 -1
BITMAP
80
80
C0
A0
90
88
84
FE
ENDCHAR
STARTCHAR 25FB
ENCODING 9723
SWIDTH 583 0
DWIDTH 7 0
BBX 6 6 1 0
BITMAP
FC
84
84
84
84
FC
ENDCHAR
STARTCHAR 25FC
ENCODING 9724
SWIDTH 583 0
DWIDTH 7 0
BBX 6 6 1 0
BITMAP
FC
FC
FC
FC
FC
FC
ENDCHAR
STARTCHAR 25FD
ENCODING 9725
SWIDTH 583 0
DWIDTH 7 0
BBX 5 6 1 0
BITMAP
F8
88
88
88
88
F8
ENDCHAR
STARTCHAR 25FE
ENCODING 9726
SWIDTH 583 0
DWIDTH 7 0
BBX 5 5 1 1
BITMAP
F8
F8
F8
F8
F8
ENDCHAR
STARTCHAR 25FF
ENCODING 9727
SWIDTH 583 0
DWIDTH 7 0
BBX 7 8 0 -1
BITMAP
02
02
06
0A
12
22
42
FE
ENDCHAR
STARTCHAR 2630
ENCODING 9776
SWIDTH 583 0
DWIDTH 7 0
BBX 7 6 0 1
BITMAP
FE
00
FE
00
00
FE
ENDCHAR
STARTCHAR 2665
ENCODING 9829
SWIDTH 583 0
DWIDTH 7 0
BBX 12 10 0 -1
BITMAP
79E0
C630
8610
8010
8010
4020
6060
30C0
1980
0600
ENDCHAR
STARTCHAR 266A
ENCODING 9834
SWIDTH 583 0
DWIDTH 7 0
BBX 7 11 0 -2
BITMAP
08
0C
0A
0A
0A
0A
08
08
78
F8
70
ENDCHAR
STARTCHAR 26A1
ENCODING 9889
SWIDTH 583 0
DWIDTH 7 0
BBX 9 12 0 -2
BITMAP
0300
0F00
1A00
3200
6780
C080
8180
7300
1600
2C00
3800
3000
ENDCHAR
STARTCHAR 2756
ENCODING 10070
SWIDTH 583 0
DWIDTH 7 0
BBX 7 7 0 0
BITMAP
10
38
54
EE
54
38
10
ENDCHAR
STARTCHAR 2768
ENCODING 10088
SWIDTH 583 0
DWIDTH 7 0
BBX 5 10 1 -1
BITMAP
18
30
60
40
C0
C0
40
60
30
18
ENDCHAR
STARTCHAR 2769
ENCODING 10089
SWIDTH 583 0
DWIDTH 7 0
BBX 5 9 1 0
BITMAP
C0
30
10
18
18
18
10
30
E0
ENDCHAR
STARTCHAR 276A
ENCODING 10090
SWIDTH 583 0
DWIDTH 7 0
BBX 3 9 2 -1
BITMAP
60
40
C0
C0
C0
C0
C0
40
60
ENDCHAR
STARTCHAR 276B
ENCODING 10091
SWIDTH 583 0
DWIDTH 7 0
BBX 3 9 2 -1
BITMAP
C0
40
60
60
60
60
60
40
C0
ENDCHAR
STARTCHAR 276C
ENCODING 10092
SWIDTH 583 0
DWIDTH 7 0
BBX 3 9 2 -1
BITMAP
20
60
40
C0
80
C0
40
60
20
ENDCHAR
STARTCHAR 276D
ENCODING 10093
SWIDTH 583 0
DWIDTH 7 0
BBX 3 9 2 -1
BITMAP
80
40
40
20
20
20
40
40
80
ENDCHAR
STARTCHAR 276E
ENCODING 10094
SWIDTH 583 0
DWIDTH 7 0
BBX 5 9 1 -1
BITMAP
18
30
60
60
C0
60
60
30
18
ENDCHAR
STARTCHAR 276F
ENCODING 10095
SWIDTH 583 0
DWIDTH 7 0
BBX 5 9 1 -1
BITMAP
C0
60
30
30
18
30
30
60
C0
ENDCHAR
STARTCHAR 2770
ENCODING 10096
SWIDTH 583 0
DWIDTH 7 0
BBX 5 10 1 -1
BITMAP
38
30
70
60
E0
E0
60
70
30
38
ENDCHAR
STARTCHAR 2771
ENCODING 10097
SWIDTH 583 0
DWIDTH 7 0
BBX 5 10 1 -1
BITMAP
E0
60
70
30
38
38
30
70
60
E0
ENDCHAR
STARTCHAR 2772
ENCODING 10098
SWIDTH 583 0
DWIDTH 7 0
BBX 2 10 3 -2
BITMAP
C0
80
80
80
80
80
80
80
80
40
ENDCHAR
STARTCHAR 2773
ENCODING 10099
SWIDTH 583 0
DWIDTH 7 0
BBX 2 10 3 -2
BITMAP
80
40
40
40
40
40
40
40
80
80
ENDCHAR
STARTCHAR 2774
ENCODING 10100
SWIDTH 583 0
DWIDTH 7 0
BBX 4 11 2 -2
BITMAP
70
40
40
40
40
C0
40
40
40
40
70
ENDCHAR
STARTCHAR 2775
ENCODING 10101
SWIDTH 583 0
DWIDTH 7 0
BBX 5 11 1 -2
BITMAP
E0
20
20
20
20
18
20
20
20
20
E0
ENDCHAR
STARTCHAR 2794
ENCODING 10132
SWIDTH 583 0
DWIDTH 7 0
BBX 7 4 0 2
BITMAP
1C
FE
04
18
ENDCHAR
STARTCHAR 2798
ENCODING 10136
SWIDTH 583 0
DWIDTH 7 0
BBX 6 6 1 1
BITMAP
80
C0
60
28
18
3C
ENDCHAR
STARTCHAR 2799
ENCODING 10137
SWIDTH 583 0
DWIDTH 7 0
BBX 7 3 0 3
BITMAP
0C
FE
0C
ENDCHAR
STARTCHAR 279A
ENCODING 10138
SWIDTH 583 0
DWIDTH 7 0
BBX 6 6 1 1
BITMAP
3C
08
38
64
C0
80
ENDCHAR
STARTCHAR 279B
ENCODING 10139
SWIDTH 583 0
DWIDTH 7 0
BBX 7 3 0 3
BITMAP
10
FE
10
ENDCHAR
STARTCHAR 279C
ENCODING 10140
SWIDTH 583 0
DWIDTH 7 0
BBX 7 5 0 2
BITMAP
08
0C
FE
04
08
ENDCHAR
STARTCHAR 279D
ENCODING 10141
SWIDTH 583 0
DWIDTH 7 0
BBX 7 5 0 2
BITMAP
08
04
FE
04
08
ENDCHAR
STARTCHAR 279E
ENCODING 10142
SWIDTH 583 0
DWIDTH 7 0
BBX 7 5 0 2
BITMAP
08
04
FE
04
08
ENDCHAR
STARTCHAR 279F
ENCODING 10143
SWIDTH 583 0
DWIDTH 7 0
BBX 7 4 0 2
BITMAP
04
BC
BE
04
ENDCHAR
STARTCHAR 27A0
ENCODING 10144
SWIDTH 583 0
DWIDTH 7 0
BBX 7 4 0 2
BITMAP
FC
FE
FC
08
ENDCHAR
STARTCHAR 27A1
ENCODING 10145
SWIDTH 583 0
DWIDTH 7 0
BBX 7 4 0 2
BITMAP
04
FC
FE
04
ENDCHAR
STARTCHAR 27A2
ENCODING 10146
SWIDTH 583 0
DWIDTH 7 0
BBX 6 4 1 2
BITMAP
80
70
7C
80
ENDCHAR
STARTCHAR 27A3
ENCODING 10147
SWIDTH 583 0
DWIDTH 7 0
BBX 6 4 1 3
BITMAP
80
70
7C
80
ENDCHAR
STARTCHAR 27A4
ENCODING 10148
SWIDTH 583 0
DWIDTH 7 0
BBX 6 5 1 2
BITMAP
80
60
7C
70
80
ENDCHAR
STARTCHAR 27A5
ENCODING 10149
SWIDTH 583 0
DWIDTH 7 0
BBX 7 4 0 2
BITMAP
84
FE
FC
04
ENDCHAR
STARTCHAR 27A6
ENCODING 10150
SWIDTH 583 0
DWIDTH 7 0
BBX 7 4 0 3
BITMAP
04
FE
FC
84
ENDCHAR
STARTCHAR 27A7
ENCODING 10151
SWIDTH 583 0
DWIDTH 7 0
BBX 3 6 2 1
BITMAP
40
E0
E0
E0
40
40
ENDCHAR
STARTCHAR 27A8
ENCODING 10152
SWIDTH 583 0
DWIDTH 7 0
BBX 7 5 0 2
BITMAP
08
F8
FE
F8
08
ENDCHAR
STARTCHAR 27A9
ENCODING 10153
SWIDTH 583 0
DWIDTH 7 0
BBX 6 5 1 2
BITMAP
10
E8
8C
E8
10
ENDCHAR
STARTCHAR 27AA
ENCODING 10154
SWIDTH 583 0
DWIDTH 7 0
BBX 6 5 1 2
BITMAP
10
F8
84
F8
10
ENDCHAR
STARTCHAR 27AB
ENCODING 10155
SWIDTH 583 0
DWIDTH 7 0
BBX 7 5 0 1
BITMAP
04
7A
82
FC
18
ENDCHAR
STARTCHAR 27AC
ENCODING 10156
SWIDTH 583 0
DWIDTH 7 0
BBX 6 5 1 1
BITMAP
20
F8
84
F4
08
ENDCHAR
STARTCHAR 27AD
ENCODING 10157
SWIDTH 583 0
DWIDTH 7 0
BBX 5 5 1 2
BITMAP
E0
90
88
88
F8
ENDCHAR
STARTCHAR 27AE
ENCODING 10158
SWIDTH 583 0
DWIDTH 7 0
BBX 7 5 0 2
BITMAP
08
7C
86
84
F8
ENDCHAR
STARTCHAR 27AF
ENCODING 10159
SWIDTH 583 0
DWIDTH 7 0
BBX 7 5 0 2
BITMAP
F8
84
82
F4
08
ENDCHAR
STARTCHAR 27B1
ENCODING 10161
SWIDTH 583 0
DWIDTH 7 0
BBX 7 6 0 1
BITMAP
08
F4
82
82
F4
08
ENDCHAR
STARTCHAR 27B2
ENCODING 10162
SWIDTH 583 0
DWIDTH 7 0
BBX 5 7 1 0
BITMAP
70
F8
08
08
08
F8
70
ENDCHAR
STARTCHAR 27B3
ENCODING 10163
SWIDTH 583 0
DWIDTH 7 0
BBX 6 3 1 2
BITMAP
C8
FC
C8
ENDCHAR
STARTCHAR 27B4
ENCODING 10164
SWIDTH 583 0
DWIDTH 7 0
BBX 6 6 1 1
BITMAP
40
40
E0
60
14
1C
ENDCHAR
STARTCHAR 27B5
ENCODING 10165
SWIDTH 583 0
DWIDTH 7 0
BBX 7 2 0 3
BITMAP
FE
F4
ENDCHAR
STARTCHAR 27B6
ENCODING 10166
SWIDTH 583 0
DWIDTH 7 0
BBX 6 6 1 1
BITMAP
1C
14
60
E0
40
40
ENDCHAR
STARTCHAR 27B7
ENCODING 10167
SWIDTH 583 0
DWIDTH 7 0
BBX 7 6 0 1
BITMAP
20
F0
70
38
06
0E
ENDCHAR
STARTCHAR 27B8
ENCODING 10168
SWIDTH 583 0
DWIDTH 7 0
BBX 7 2 0 2
BITMAP
FE
E4
ENDCHAR
STARTCHAR 27B9
ENCODING 10169
SWIDTH 583 0
DWIDTH 7 0
BBX 6 6 1 1
BITMAP
1C
08
50
60
E0
40
ENDCHAR
STARTCHAR 27BA
ENCODING 10170
SWIDTH 583 0
DWIDTH 7 0
BBX 7 4 0 2
BITMAP
08
44
FE
08
ENDCHAR
STARTCHAR 27BB
ENCODING 10171
SWIDTH 583 0
DWIDTH 7 0
BBX 7 4 0 2
BITMAP
04
FE
64
04
ENDCHAR
STARTCHAR 27BC
ENCODING 10172
SWIDTH 583 0
DWIDTH 7 0
BBX 7 3 0 3
BITMAP
F4
7E
F4
ENDCHAR
STARTCHAR 27BD
ENCODING 10173
SWIDTH 583 0
DWIDTH 7 0
BBX 7 5 0 1
BITMAP
F8
74
7E
F4
08
ENDCHAR
STARTCHAR 27BE
ENCODING 10174
SWIDTH 583 0
DWIDTH 7 0
BBX 7 4 0 2
BITMAP
18
FE
F4
14
ENDCHAR
STARTCHAR 27C2
ENCODING 10178
SWIDTH 583 0
DWIDTH 7 0
BBX 6 8 1 0
BITMAP
20
20
20
20
20
20
20
FC
ENDCHAR
STARTCHAR 27C5
ENCODING 10181
SWIDTH 583 0
DWIDTH 7 0
BBX 3 12 2 -2
BITMAP
E0
A0
20
40
40
40
80
80
80
80
80
60
ENDCHAR
STARTCHAR 27C6
ENCODING 10182
SWIDTH 583 0
DWIDTH 7 0
BBX 3 12 2 -2
BITMAP
60
A0
40
40
40
40
20
20
20
20
20
C0
ENDCHAR
STARTCHAR 27DC
ENCODING 10204
SWIDTH 583 0
DWIDTH 7 0
BBX 7 4 0 2
BITMAP
60
A0
9E
60
ENDCHAR
STARTCHAR 27E0
ENCODING 10208
SWIDTH 583 0
DWIDTH 7 0
BBX 6 13 1 -3
BITMAP
20
20
50
50
88
88
FC
88
88
50
50
20
20
ENDCHAR
STARTCHAR 27E6
ENCODING 10214
SWIDTH 583 0
DWIDTH 7 0
BBX 3 12 2 -2
BITMAP
E0
C0
C0
C0
C0
C0
C0
C0
C0
C0
C0
E0
ENDCHAR
STARTCHAR 27E7
ENCODING 10215
SWIDTH 583 0
DWIDTH 7 0
BBX 3 12 2 -2
BITMAP
E0
60
60
60
60
60
60
60
60
60
60
E0
ENDCHAR
STARTCHAR 27E8
ENCODING 10216
SWIDTH 583 0
DWIDTH 7 0
BBX 3 11 2 -1
BITMAP
20
40
40
40
40
80
40
40
40
40
20
ENDCHAR
STARTCHAR 27E9
ENCODING 10217
SWIDTH 583 0
DWIDTH 7 0
BBX 3 11 2 -1
BITMAP
80
40
40
40
20
20
20
40
40
40
80
ENDCHAR
STARTCHAR 27EA
ENCODING 10218
SWIDTH 583 0
DWIDTH 7 0
BBX 5 11 1 -1
BITMAP
28
48
50
50
90
A0
90
50
50
48
28
ENDCHAR
STARTCHAR 27EB
ENCODING 10219
SWIDTH 583 0
DWIDTH 7 0
BBX 5 11 1 -1
BITMAP
B0
50
50
48
48
28
48
48
50
50
B0
ENDCHAR
STARTCHAR 27F5
ENCODING 10229
SWIDTH 583 0
DWIDTH 7 0
BBX 9 5 -1 1
BITMAP
2000
4000
FF80
4000
2000
ENDCHAR
STARTCHAR 27F6
ENCODING 10230
SWIDTH 583 0
DWIDTH 7 0
BBX 9 5 -1 1
BITMAP
0100
0100
FF80
0100
0100
ENDCHAR
STARTCHAR 27F7
ENCODING 10231
SWIDTH 583 0
DWIDTH 7 0
BBX 9 5 -1 1
BITMAP
2100
4100
FF80
4100
2100
ENDCHAR
STARTCHAR 2987
ENCODING 10631
SWIDTH 583 0
DWIDTH 7 0
BBX 3 11 2 -2
BITMAP
20
60
A0
A0
A0
A0
A0
A0
60
60
20
ENDCHAR
STARTCHAR 2988
ENCODING 10632
SWIDTH 583 0
DWIDTH 7 0
BBX 3 11 2 -2
BITMAP
80
C0
A0
A0
A0
A0
A0
A0
A0
C0
80
ENDCHAR
STARTCHAR 2997
ENCODING 10647
SWIDTH 583 0
DWIDTH 7 0
BBX 4 11 2 -2
BITMAP
30
40
C0
C0
C0
C0
C0
C0
40
20
10
ENDCHAR
STARTCHAR 2998
ENCODING 10648
SWIDTH 583 0
DWIDTH 7 0
BBX 4 11 1 -2
BITMAP
C0
20
30
30
30
30
30
30
20
40
C0
ENDCHAR
STARTCHAR 29EB
ENCODING 10731
SWIDTH 583 0
DWIDTH 7 0
BBX 6 13 1 -3
BITMAP
20
20
30
70
78
F8
FC
F8
78
70
30
20
20
ENDCHAR
STARTCHAR 29FA
ENCODING 10746
SWIDTH 583 0
DWIDTH 7 0
BBX 6 6 1 1
BITMAP
50
50
FC
50
50
50
ENDCHAR
STARTCHAR 29FB
ENCODING 10747
SWIDTH 583 0
DWIDTH 7 0
BBX 6 6 1 1
BITMAP
A8
A8
FC
A8
A8
A8
ENDCHAR
STARTCHAR 2A00
ENCODING 10752
SWIDTH 583 0
DWIDTH 7 0
BBX 7 13 0 -3
BITMAP
38
44
44
42
82
82
92
92
82
42
44
44
38
ENDCHAR
STARTCHAR 2A2F
ENCODING 10799
SWIDTH 583 0
DWIDTH 7 0
BBX 5 6 1 1
BITMAP
88
C8
70
30
58
88
ENDCHAR
STARTCHAR 2A6A
ENCODING 10858
SWIDTH 583 0
DWIDTH 7 0
BBX 6 4 1 3
BITMAP
20
20
E4
98
ENDCHAR
STARTCHAR 2A6B
ENCODING 10859
SWIDTH 583 0
DWIDTH 7 0
BBX 6 6 1 1
BITMAP
18
18
E4
98
C0
C0
ENDCHAR
STARTCHAR 2B05
ENCODING 11013
SWIDTH 583 0
DWIDTH 7 0
BBX 7 4 0 2
BITMAP
20
7E
FE
20
ENDCHAR
STARTCHAR 2B06
ENCODING 11014
SWIDTH 583 0
DWIDTH 7 0
BBX 3 6 2 1
BITMAP
40
E0
40
40
40
40
ENDCHAR
STARTCHAR 2B07
ENCODING 11015
SWIDTH 583 0
DWIDTH 7 0
BBX 3 7 2 1
BITMAP
40
40
40
40
40
E0
40
ENDCHAR
STARTCHAR 2B08
ENCODING 11016
SWIDTH 583 0
DWIDTH 7 0
BBX 5 5 1 2
BITMAP
38
38
78
E0
C0
ENDCHAR
STARTCHAR 2B09
ENCODING 11017
SWIDTH 583 0
DWIDTH 7 0
BBX 5 5 1 2
BITMAP
E0
E0
B0
18
08
ENDCHAR
STARTCHAR 2B0A
ENCODING 11018
SWIDTH 583 0
DWIDTH 7 0
BBX 5 5 1 1
BITMAP
40
E0
38
18
18
ENDCHAR
STARTCHAR 2B0B
ENCODING 11019
SWIDTH 583 0
DWIDTH 7 0
BBX 5 5 1 1
BITMAP
10
38
E0
C0
C0
ENDCHAR
STARTCHAR 2B0C
ENCODING 11020
SWIDTH 583 0
DWIDTH 7 0
BBX 7 4 0 2
BITMAP
24
7C
FE
24
ENDCHAR
STARTCHAR 2B0D
ENCODING 11021
SWIDTH 583 0
DWIDTH 7 0
BBX 3 6 2 1
BITMAP
40
E0
40
40
E0
40
ENDCHAR
STARTCHAR 2B16
ENCODING 11030
SWIDTH 583 0
DWIDTH 7 0
BBX 7 7 0 0
BITMAP
10
38
74
F2
72
34
18
ENDCHAR
STARTCHAR 2B17
ENCODING 11031
SWIDTH 583 0
DWIDTH 7 0
BBX 7 7 0 0
BITMAP
10
28
4C
8E
4E
2C
18
ENDCHAR
STARTCHAR 2B18
ENCODING 11032
SWIDTH 583 0
DWIDTH 7 0
BBX 7 8 0 -1
BITMAP
10
38
7C
7E
82
44
28
10
ENDCHAR
STARTCHAR 2B19
ENCODING 11033
SWIDTH 583 0
DWIDTH 7 0
BBX 7 8 0 -1
BITMAP
10
28
44
82
FE
7C
38
10
ENDCHAR
STARTCHAR 2B1A
ENCODING 11034
SWIDTH 583 0
DWIDTH 7 0
BBX 7 8 0 -1
BITMAP
AA
82
82
00
82
00
00
AA
ENDCHAR
STARTCHAR 2B58
ENCODING 11096
SWIDTH 583 0
DWIDTH 7 0
BBX 11 11 0 -1
BITMAP
0400
3F80
71C0
60C0
C060
C060
C060
C040
60C0
7F80
1F00
ENDCHAR
STARTCHAR 2E18
ENCODING 11800
SWIDTH 583 0
DWIDTH 7 0
BBX 5 10 1 -3
BITMAP
30
20
00
20
20
60
60
A0
E8
70
ENDCHAR
STARTCHAR 2E1F
ENCODING 11807
SWIDTH 583 0
DWIDTH 7 0
BBX 6 4 1 1
BITMAP
E4
98
20
20
ENDCHAR
STARTCHAR 2E22
ENCODING 11810
SWIDTH 583 0
DWIDTH 7 0
BBX 2 4 3 6
BITMAP
C0
80
80
80
ENDCHAR
STARTCHAR 2E23
ENCODING 11811
SWIDTH 583 0
DWIDTH 7 0
BBX 3 4 2 6
BITMAP
E0
60
60
60
ENDCHAR
STARTCHAR 2E24
ENCODING 11812
SWIDTH 583 0
DWIDTH 7 0
BBX 2 5 3 -2
BITMAP
80
80
80
80
C0
ENDCHAR
STARTCHAR 2E25
ENCODING 11813
SWIDTH 583 0
DWIDTH 7 0
BBX 3 5 2 -2
BITMAP
60
60
60
60
E0
ENDCHAR
STARTCHAR 2E2E
ENCODING 11822
SWIDTH 583 0
DWIDTH 7 0
BBX 5 9 1 0
BITMAP
78
C8
C0
40
20
20
00
30
30
ENDCHAR
STARTCHAR E000
ENCODING 57344
SWIDTH 583 0
DWIDTH 7 0
BBX 9 8 0 0
BITMAP
FF80
FF80
2900
F780
2100
2100
2100
2100
ENDCHAR
STARTCHAR E001
ENCODING 57345
SWIDTH 583 0
DWIDTH 7 0
BBX 9 10 0 -1
BITMAP
1000
FF00
3E00
FD80
FC80
FE80
FF80
7F00
7F00
0800
ENDCHAR
STARTCHAR E002
ENCODING 57346
SWIDTH 583 0
DWIDTH 7 0
BBX 9 10 0 -1
BITMAP
1000
FF00
3E00
C980
8080
8080
8080
4100
6300
1C00
ENDCHAR
STARTCHAR E003
ENCODING 57347
SWIDTH 583 0
DWIDTH 7 0
BBX 9 10 0 -1
BITMAP
1000
FF00
3E00
FF80
CF80
F780
F780
7700
7F00
0800
ENDCHAR
STARTCHAR E004
ENCODING 57348
SWIDTH 583 0
DWIDTH 7 0
BBX 9 10 0 -1
BITMAP
1000
FF00
3E00
C980
8080
8080
FF80
7F00
7F00
0800
ENDCHAR
STARTCHAR E005
ENCODING 57349
SWIDTH 583 0
DWIDTH 7 0
BBX 9 10 0 -1
BITMAP
0800
2800
1000
2000
FF00
FF80
FF80
FC00
7C00
1000
ENDCHAR
STARTCHAR E006
ENCODING 57350
SWIDTH 583 0
DWIDTH 7 0
BBX 9 10 0 -1
BITMAP
3800
5F80
3F00
4F80
0A80
1A00
1800
7E00
FF00
1000
ENDCHAR
STARTCHAR E007
ENCODING 57351
SWIDTH 583 0
DWIDTH 7 0
BBX 9 10 0 -1
BITMAP
6000
F000
B000
B800
FF80
7F00
7F00
3E00
3C00
0800
ENDCHAR
STARTCHAR E008
ENCODING 57352
SWIDTH 583 0
DWIDTH 7 0
BBX 9 10 0 -1
BITMAP
0800
FB80
3B00
7B80
E780
DF80
DF80
EB00
7B00
1C00
ENDCHAR
STARTCHAR E009
ENCODING 57353
SWIDTH 583 0
DWIDTH 7 0
BBX 3 9 2 0
BITMAP
E0
E0
E0
E0
60
60
00
40
60
ENDCHAR
STARTCHAR E00A
ENCODING 57354
SWIDTH 583 0
DWIDTH 7 0
BBX 5 9 1 0
BITMAP
70
60
E0
F8
F0
B0
20
20
40
ENDCHAR
STARTCHAR E0A0
ENCODING 57504
SWIDTH 583 0
DWIDTH 7 0
BBX 5 14 1 -3
BITMAP
80
80
90
B8
90
90
90
B0
60
C0
80
80
80
80
ENDCHAR
STARTCHAR E0A1
ENCODING 57505
SWIDTH 583 0
DWIDTH 7 0
BBX 4 11 2 -1
BITMAP
80
80
80
80
80
E0
90
D0
D0
B0
B0
ENDCHAR
STARTCHAR E0A2
ENCODING 57506
SWIDTH 583 0
DWIDTH 7 0
BBX 5 10 1 -1
BITMAP
30
50
50
50
F8
D8
D8
D8
F8
70
ENDCHAR
STARTCHAR E0A3
ENCODING 57507
SWIDTH 583 0
DWIDTH 7 0
BBX 5 12 1 -2
BITMAP
F0
80
80
80
80
F0
48
68
68
58
58
48
ENDCHAR
STARTCHAR E0B0
ENCODING 57520
SWIDTH 583 0
DWIDTH 7 0
BBX 7 14 0 -3
BITMAP
80
C0
E0
F0
F8
FC
FE
FE
FC
F8
F0
E0
C0
80
ENDCHAR
STARTCHAR E0B1
ENCODING 57521
SWIDTH 583 0
DWIDTH 7 0
BBX 7 14 0 -3
BITMAP
80
40
20
10
08
04
02
06
0C
08
10
20
40
80
ENDCHAR
STARTCHAR E0B2
ENCODING 57522
SWIDTH 583 0
DWIDTH 7 0
BBX 8 14 0 -3
BITMAP
03
07
0F
1F
3F
7F
FF
7F
3F
1F
0F
07
03
01
ENDCHAR
STARTCHAR E0B3
ENCODING 57523
SWIDTH 583 0
DWIDTH 7 0
BBX 7 14 0 -3
BITMAP
02
04
08
10
20
40
C0
40
20
10
18
0C
06
02
ENDCHAR
STARTCHAR E0B4
ENCODING 57524
SWIDTH 583 0
DWIDTH 7 0
BBX 7 14 0 -3
BITMAP
E0
F8
FC
FC
FE
FE
FE
FE
FE
FE
FC
F8
F0
C0
ENDCHAR
STARTCHAR E0B5
ENCODING 57525
SWIDTH 583 0
DWIDTH 7 0
BBX 7 14 0 -3
BITMAP
E0
10
08
04
06
06
02
02
06
04
0C
08
30
C0
ENDCHAR
STARTCHAR E0B6
ENCODING 57526
SWIDTH 583 0
DWIDTH 7 0
BBX 7 14 0 -3
BITMAP
0E
1E
3E
7E
FE
FE
FE
FE
FE
FE
7E
3E
1E
06
ENDCHAR
STARTCHAR E0B7
ENCODING 57527
SWIDTH 583 0
DWIDTH 7 0
BBX 7 14 0 -3
BITMAP
0E
10
20
60
40
C0
C0
C0
C0
40
60
30
18
06
ENDCHAR
STARTCHAR E0B8
ENCODING 57528
SWIDTH 583 0
DWIDTH 7 0
BBX 7 14 0 -3
BITMAP
80
80
80
C0
C0
E0
E0
F0
F0
F8
F8
FC
FC
FE
ENDCHAR
STARTCHAR E0B9
ENCODING 57529
SWIDTH 583 0
DWIDTH 7 0
BBX 7 14 0 -3
BITMAP
80
80
40
40
20
20
10
10
08
08
04
04
02
02
ENDCHAR
STARTCHAR E0BA
ENCODING 57530
SWIDTH 583 0
DWIDTH 7 0
BBX 7 14 0 -3
BITMAP
02
02
02
06
06
0E
0E
1E
1E
3E
3E
7E
7E
FE
ENDCHAR
STARTCHAR E0BB
ENCODING 57531
SWIDTH 583 0
DWIDTH 7 0
BBX 7 14 0 -3
BITMAP
02
02
04
04
08
08
10
10
20
20
40
40
80
80
ENDCHAR
STARTCHAR E0BC
ENCODING 57532
SWIDTH 583 0
DWIDTH 7 0
BBX 7 14 0 -3
BITMAP
FE
FC
FC
F8
F8
F0
F0
E0
E0
C0
C0
80
80
80
ENDCHAR
STARTCHAR E0BD
ENCODING 57533
SWIDTH 583 0
DWIDTH 7 0
BBX 7 14 0 -3
BITMAP
02
02
04
04
08
08
10
10
20
20
40
40
80
80
ENDCHAR
STARTCHAR E0BE
ENCODING 57534
SWIDTH 583 0
DWIDTH 7 0
BBX 7 14 0 -3
BITMAP
FE
7E
7E
3E
3E
1E
0E
0E
06
06
02
02
02
02
ENDCHAR
STARTCHAR E0BF
ENCODING 57535
SWIDTH 583 0
DWIDTH 7 0
BBX 7 14 0 -3
BITMAP
80
80
40
40
20
20
10
10
08
08
04
04
02
02
ENDCHAR
STARTCHAR E0C0
ENCODING 57536
SWIDTH 583 0
DWIDTH 7 0
BBX 14 14 0 -3
BITMAP
B000
CE00
F860
F9FC
FF80
FF00
FFC0
FE00
FFB0
F8C0
CF00
C000
F000
8000
ENDCHAR
STARTCHAR E0C1
ENCODING 57537
SWIDTH 583 0
DWIDTH 7 0
BBX 15 14 0 -3
BITMAP
F000
2F00
74E0
071E
0078
0080
01C0
0300
02F0
0580
3E00
3800
7000
8000
ENDCHAR
STARTCHAR E0C2
ENCODING 57538
SWIDTH 583 0
DWIDTH 7 0
BBX 15 14 0 -3
BITMAP
001A
01E6
0C7C
FF7C
07FC
03FC
0DFC
01FC
1BFC
047C
01CC
0004
003E
0002
ENDCHAR
STARTCHAR E0C3
ENCODING 57539
SWIDTH 583 0
DWIDTH 7 0
BBX 14 14 0 -3
BITMAP
003C
01F0
1C58
E3C0
7C00
0A00
0600
0100
1F80
0640
01F8
0038
0018
0004
ENDCHAR
STARTCHAR E0C4
ENCODING 57540
SWIDTH 583 0
DWIDTH 7 0
BBX 12 14 0 -3
BITMAP
BEB0
0400
B4B0
B700
B300
0400
BF80
B600
A340
0000
BD80
B000
0000
AC00
ENDCHAR
STARTCHAR E0C5
ENCODING 57541
SWIDTH 583 0
DWIDTH 7 0
BBX 11 14 3 -3
BITMAP
BF60
0000
BF60
1760
1D60
0E00
3F60
0F60
5460
0800
3760
0160
0000
0660
ENDCHAR
STARTCHAR E0C6
ENCODING 57542
SWIDTH 583 0
DWIDTH 7 0
BBX 11 14 0 -3
BITMAP
DF80
DA80
D580
D580
DA60
DA60
C400
C400
D180
D580
DA00
D400
D060
0060
ENDCHAR
STARTCHAR E0C7
ENCODING 57543
SWIDTH 583 0
DWIDTH 7 0
BBX 10 14 4 -3
BITMAP
7F40
5340
7F40
7F40
CB40
CB40
0C40
0C40
7340
3740
0B40
0F40
C340
8000
ENDCHAR
STARTCHAR E0C8
ENCODING 57544
SWIDTH 583 0
DWIDTH 7 0
BBX 14 14 0 -3
BITMAP
F800
FF00
FCC0
FA00
F500
E000
FE00
F800
FFFC
F000
FC00
FF00
E000
F000
ENDCHAR
STARTCHAR E0CA
ENCODING 57546
SWIDTH 583 0
DWIDTH 7 0
BBX 15 14 0 -3
BITMAP
003E
04FE
0BBE
003E
03FE
000E
00FE
007E
FFFE
001E
00FE
01FE
000E
003E
ENDCHAR
STARTCHAR E0CC
ENCODING 57548
SWIDTH 583 0
DWIDTH 7 0
BBX 12 14 0 -3
BITMAP
F000
F000
F800
F000
F1C0
E3E0
07F0
03F0
E3E0
F1C0
F000
F800
F000
E000
ENDCHAR
STARTCHAR E0CD
ENCODING 57549
SWIDTH 583 0
DWIDTH 7 0
BBX 12 14 0 -3
BITMAP
F000
8800
8800
8800
93E0
F210
0410
0410
F220
8BE0
8800
8800
8800
F000
ENDCHAR
STARTCHAR E0CE
ENCODING 57550
SWIDTH 583 0
DWIDTH 7 0
BBX 14 14 0 -3
BITMAP
1FA0
1F20
3F58
3E58
7ED8
FD74
0174
FD74
7CB4
7ED8
3E58
3F50
1FA0
1FA0
ENDCHAR
STARTCHAR E0CF
ENCODING 57551
SWIDTH 583 0
DWIDTH 7 0
BBX 13 14 0 -3
BITMAP
0700
0880
3FF0
C708
3FF0
98C8
E738
F878
FDF8
FDF8
FDF8
3DE0
0DC0
0500
ENDCHAR
STARTCHAR E0D0
ENCODING 57552
SWIDTH 583 0
DWIDTH 7 0
BBX 10 11 0 -1
BITMAP
6380
9440
8C40
8C40
73C0
0000
6100
92C0
9440
8C40
73C0
ENDCHAR
STARTCHAR E0D1
ENCODING 57553
SWIDTH 583 0
DWIDTH 7 0
BBX 10 14 0 -3
BITMAP
FF00
FFC0
FF40
FFC0
FFC0
FF00
FF00
FF00
FFC0
FFC0
FFC0
FFC0
FF00
FF00
ENDCHAR
STARTCHAR E0D2
ENCODING 57554
SWIDTH 583 0
DWIDTH 7 0
BBX 7 14 0 -3
BITMAP
FE
FC
F8
F0
F0
E0
00
C0
E0
F0
F8
F8
FC
FE
ENDCHAR
STARTCHAR E0D4
ENCODING 57556
SWIDTH 583 0
DWIDTH 7 0
BBX 7 14 0 -3
BITMAP
FE
7E
3E
1E
0E
0E
00
06
0E
1E
1E
3E
7E
FE
ENDCHAR
STARTCHAR E200
ENCODING 57856
SWIDTH 583 0
DWIDTH 7 0
BBX 7 12 0 -2
BITMAP
06
0E
1C
38
70
E0
F0
78
3C
1E
0E
04
ENDCHAR
STARTCHAR E201
ENCODING 57857
SWIDTH 583 0
DWIDTH 7 0
BBX 11 10 0 -1
BITMAP
0E00
1F00
1FE0
3FE0
FFE0
FFE0
0100
0000
1B00
0200
ENDCHAR
STARTCHAR E202
ENCODING 57858
SWIDTH 583 0
DWIDTH 7 0
BBX 3 12 2 -2
BITMAP
40
40
60
E0
E0
E0
E0
E0
E0
E0
E0
60
ENDCHAR
STARTCHAR E203
ENCODING 57859
SWIDTH 583 0
DWIDTH 7 0
BBX 11 6 0 1
BITMAP
7FC0
7FC0
BFE0
C020
FFA0
FFA0
ENDCHAR
STARTCHAR E204
ENCODING 57860
SWIDTH 583 0
DWIDTH 7 0
BBX 11 12 0 -2
BITMAP
0A00
0E00
1400
0000
FFE0
FFE0
FFE0
7FC0
3F80
0F00
0000
FFE0
ENDCHAR
STARTCHAR E205
ENCODING 57861
SWIDTH 583 0
DWIDTH 7 0
BBX 10 12 0 -2
BITMAP
C000
E000
6000
1000
1000
0800
0400
0200
0100
0080
0080
0040
ENDCHAR
STARTCHAR E206
ENCODING 57862
SWIDTH 583 0
DWIDTH 7 0
BBX 11 12 0 -2
BITMAP
0F80
3040
4020
C020
8020
8020
8020
8020
8020
4040
2180
1E00
ENDCHAR
STARTCHAR E207
ENCODING 57863
SWIDTH 583 0
DWIDTH 7 0
BBX 9 12 0 -2
BITMAP
0F00
5F80
7F80
3F80
0F80
0F80
0F80
1F00
FE00
8800
C000
4000
ENDCHAR
STARTCHAR E208
ENCODING 57864
SWIDTH 583 0
DWIDTH 7 0
BBX 11 12 0 -2
BITMAP
0E00
1F00
1FC0
3FC0
FFE0
FFC0
0000
0C00
1C00
0800
1000
1000
ENDCHAR
STARTCHAR E209
ENCODING 57865
SWIDTH 583 0
DWIDTH 7 0
BBX 11 12 0 -2
BITMAP
6000
B000
BE00
FFC0
0FC0
0EE0
0680
0700
0A80
0A80
1240
0200
ENDCHAR
STARTCHAR E20A
ENCODING 57866
SWIDTH 583 0
DWIDTH 7 0
BBX 4 12 2 -2
BITMAP
40
A0
A0
A0
E0
E0
E0
E0
E0
F0
D0
60
ENDCHAR
STARTCHAR E20B
ENCODING 57867
SWIDTH 583 0
DWIDTH 7 0
BBX 4 12 2 -2
BITMAP
40
A0
E0
E0
E0
E0
E0
E0
E0
F0
D0
60
ENDCHAR
STARTCHAR E20C
ENCODING 57868
SWIDTH 583 0
DWIDTH 7 0
BBX 4 12 2 -2
BITMAP
60
A0
A0
A0
A0
A0
A0
E0
E0
F0
D0
60
ENDCHAR
STARTCHAR E20D
ENCODING 57869
SWIDTH 583 0
DWIDTH 7 0
BBX 11 12 0 -2
BITMAP
8020
4060
20C0
1180
0B00
0600
0E00
1900
3080
6040
C020
8020
ENDCHAR
STARTCHAR E20E
ENCODING 57870
SWIDTH 583 0
DWIDTH 7 0
BBX 9 12 0 -2
BITMAP
3E00
3E00
3E00
3E00
0000
FF80
FF80
7F00
3E00
1C00
3E00
3E00
ENDCHAR
STARTCHAR E20F
ENCODING 57871
SWIDTH 583 0
DWIDTH 7 0
BBX 11 12 0 -2
BITMAP
3020
1860
98C0
FD80
7F00
1F00
1F80
37C0
7BE0
F1E0
E0E0
4040
ENDCHAR
STARTCHAR E210
ENCODING 57872
SWIDTH 583 0
DWIDTH 7 0
BBX 9 12 0 -2
BITMAP
2300
7F80
FF80
FF80
FF80
FF80
7F00
7380
6380
6300
6300
2200
ENDCHAR
STARTCHAR E211
ENCODING 57873
SWIDTH 583 0
DWIDTH 7 0
BBX 11 9 0 0
BITMAP
6040
9FA0
CB60
6AE0
0600
0400
0A00
0A00
0400
ENDCHAR
STARTCHAR E212
ENCODING 57874
SWIDTH 583 0
DWIDTH 7 0
BBX 11 11 0 -1
BITMAP
FFE0
FFE0
FFE0
B520
B560
ADE0
E920
FFE0
FFE0
7FE0
1F00
ENDCHAR
STARTCHAR E213
ENCODING 57875
SWIDTH 583 0
DWIDTH 7 0
BBX 6 12 1 -2
BITMAP
20
60
20
70
F0
EC
E0
70
50
D0
98
80
ENDCHAR
STARTCHAR E214
ENCODING 57876
SWIDTH 583 0
DWIDTH 7 0
BBX 11 12 0 -2
BITMAP
0400
0600
3FC0
3F80
3FC0
FFE0
7FC0
3FC0
3F80
3FC0
0400
0400
ENDCHAR
STARTCHAR E215
ENCODING 57877
SWIDTH 583 0
DWIDTH 7 0
BBX 11 11 0 -1
BITMAP
0E00
3F80
7FC0
7FE0
FBE0
C4E0
F8E0
F0E0
7FE0
7FC0
1F80
ENDCHAR
STARTCHAR E216
ENCODING 57878
SWIDTH 583 0
DWIDTH 7 0
BBX 7 12 0 -2
BITMAP
02
06
04
0C
18
18
30
30
60
60
C0
40
ENDCHAR
STARTCHAR E217
ENCODING 57879
SWIDTH 583 0
DWIDTH 7 0
BBX 11 10 0 -1
BITMAP
0060
01E0
0F60
3EE0
F9E0
23C0
1FC0
1FC0
09C0
00C0
ENDCHAR
STARTCHAR E218
ENCODING 57880
SWIDTH 583 0
DWIDTH 7 0
BBX 11 9 0 0
BITMAP
1900
FFE0
FFE0
FFE0
3F80
3F80
3F80
3F80
3F80
ENDCHAR
STARTCHAR E219
ENCODING 57881
SWIDTH 583 0
DWIDTH 7 0
BBX 12 6 0 1
BITMAP
3C00
43C0
BFA0
7FE0
FB70
FFF0
ENDCHAR
STARTCHAR E21A
ENCODING 57882
SWIDTH 583 0
DWIDTH 7 0
BBX 11 11 0 -1
BITMAP
2000
F000
5000
2800
1C00
0C00
0600
03C0
05E0
0F60
1FC0
ENDCHAR
STARTCHAR E21B
ENCODING 57883
SWIDTH 583 0
DWIDTH 7 0
BBX 11 12 0 -2
BITMAP
8000
C000
E000
7000
F800
7C00
DE00
4F00
C780
7FC0
FFE0
FFE0
ENDCHAR
STARTCHAR E21C
ENCODING 57884
SWIDTH 583 0
DWIDTH 7 0
BBX 10 12 0 -2
BITMAP
1C00
3F00
7F80
7FC0
FFC0
BFC0
FF80
7C00
0C00
0C00
0C00
0C00
ENDCHAR
STARTCHAR E21D
ENCODING 57885
SWIDTH 583 0
DWIDTH 7 0
BBX 11 10 0 -1
BITMAP
0800
3E00
2200
CF80
4F00
5FC0
FFE0
7FE0
FFE0
7FC0
ENDCHAR
STARTCHAR E21E
ENCODING 57886
SWIDTH 583 0
DWIDTH 7 0
BBX 11 10 0 -1
BITMAP
3F80
6AC0
59A0
FFE0
4920
2940
1A80
0B00
0600
0400
ENDCHAR
STARTCHAR E21F
ENCODING 57887
SWIDTH 583 0
DWIDTH 7 0
BBX 11 12 0 -2
BITMAP
0080
01C0
03E0
03E0
05C0
1F80
3F00
7E00
BC00
7800
3000
2000
ENDCHAR
STARTCHAR E220
ENCODING 57888
SWIDTH 583 0
DWIDTH 7 0
BBX 11 11 0 -1
BITMAP
0400
1F00
3FC0
7FE0
FFE0
9520
0400
0400
0400
2400
3C00
ENDCHAR
STARTCHAR E221
ENCODING 57889
SWIDTH 583 0
DWIDTH 7 0
BBX 6 12 1 -2
BITMAP
70
98
BC
BC
BC
FC
84
84
84
88
D8
20
ENDCHAR
STARTCHAR E222
ENCODING 57890
SWIDTH 583 0
DWIDTH 7 0
BBX 8 12 0 -2
BITMAP
18
18
18
7C
4C
8C
80
C0
4F
7E
7E
7E
ENDCHAR
STARTCHAR E223
ENCODING 57891
SWIDTH 583 0
DWIDTH 7 0
BBX 5 12 1 -2
BITMAP
20
20
70
00
F8
70
70
70
30
70
70
70
ENDCHAR
STARTCHAR E224
ENCODING 57892
SWIDTH 583 0
DWIDTH 7 0
BBX 11 2 0 3
BITMAP
FFE0
FFE0
ENDCHAR
STARTCHAR E225
ENCODING 57893
SWIDTH 583 0
DWIDTH 7 0
BBX 12 10 0 -1
BITMAP
0E00
0E00
0400
0400
0F00
0F00
0F00
7EE0
E070
E060
ENDCHAR
STARTCHAR E226
ENCODING 57894
SWIDTH 583 0
DWIDTH 7 0
BBX 11 8 0 0
BITMAP
7000
A000
AF00
9F00
9FE0
7FE0
FFE0
FFE0
ENDCHAR
STARTCHAR E227
ENCODING 57895
SWIDTH 583 0
DWIDTH 7 0
BBX 11 12 0 -2
BITMAP
1F00
7FC0
FFC0
FFE0
FFE0
7FC0
0E00
0E00
0E00
1F00
1F00
0400
ENDCHAR
STARTCHAR E228
ENCODING 57896
SWIDTH 583 0
DWIDTH 7 0
BBX 11 3 0 3
BITMAP
1900
3F80
FBE0
ENDCHAR
STARTCHAR E229
ENCODING 57897
SWIDTH 583 0
DWIDTH 7 0
BBX 11 6 0 1
BITMAP
0180
0140
D0A0
2120
EE80
19E0
ENDCHAR
STARTCHAR E22A
ENCODING 57898
SWIDTH 583 0
DWIDTH 7 0
BBX 11 3 0 3
BITMAP
7FC0
E8A0
FFE0
ENDCHAR
STARTCHAR E22B
ENCODING 57899
SWIDTH 583 0
DWIDTH 7 0
BBX 11 12 0 -2
BITMAP
0F00
3EC0
64C0
FFE0
9F20
9F20
FFE0
FFC0
7E00
7C00
3E00
0400
ENDCHAR
STARTCHAR E22C
ENCODING 57900
SWIDTH 583 0
DWIDTH 7 0
BBX 12 11 0 -2
BITMAP
1FE0
7FE0
FFE0
1900
1900
1B00
1B00
1B00
3910
39E0
31E0
ENDCHAR
STARTCHAR E22D
ENCODING 57901
SWIDTH 583 0
DWIDTH 7 0
BBX 12 12 0 -2
BITMAP
1800
1E00
1300
2580
20C0
3360
3020
4620
5BF0
BE00
F000
8000
ENDCHAR
STARTCHAR E22E
ENCODING 57902
SWIDTH 583 0
DWIDTH 7 0
BBX 11 7 0 1
BITMAP
0400
1FC0
7FA0
BFE0
DBC0
7F80
0F00
ENDCHAR
STARTCHAR E22F
ENCODING 57903
SWIDTH 583 0
DWIDTH 7 0
BBX 11 12 0 -2
BITMAP
C000
F000
F820
7CE0
79E0
3560
0780
0600
0200
0200
0200
0200
ENDCHAR
STARTCHAR E230
ENCODING 57904
SWIDTH 583 0
DWIDTH 7 0
BBX 11 9 0 0
BITMAP
0800
0F00
0D80
0D80
0D80
0D00
7FE0
FCE0
0F00
ENDCHAR
STARTCHAR E231
ENCODING 57905
SWIDTH 583 0
DWIDTH 7 0
BBX 10 12 0 -2
BITMAP
0E00
3F00
3F00
2D80
2C80
3B00
FF40
ECC0
1F00
BB40
C0C0
4040
ENDCHAR
STARTCHAR E232
ENCODING 57906
SWIDTH 583 0
DWIDTH 7 0
BBX 11 10 0 -1
BITMAP
1F00
3F00
7F80
7FC0
3F00
5D20
F300
3F60
3F40
3F00
ENDCHAR
STARTCHAR E233
ENCODING 57907
SWIDTH 583 0
DWIDTH 7 0
BBX 5 12 1 -2
BITMAP
70
F8
F8
F8
F8
F8
F8
00
20
20
20
20
ENDCHAR
STARTCHAR E234
ENCODING 57908
SWIDTH 583 0
DWIDTH 7 0
BBX 11 10 0 -1
BITMAP
0400
0400
2500
2B80
FBE0
1B00
1B00
1300
0300
0200
ENDCHAR
STARTCHAR E235
ENCODING 57909
SWIDTH 583 0
DWIDTH 7 0
BBX 11 12 0 -2
BITMAP
1F00
1700
1F00
7F60
FF60
FFE0
FFE0
FFE0
7FC0
1F00
1F00
0400
ENDCHAR
STARTCHAR E236
ENCODING 57910
SWIDTH 583 0
DWIDTH 7 0
BBX 12 12 0 -2
BITMAP
0F00
3FC0
79E0
E6E0
EE60
EF70
EF70
E560
70E0
7EC0
3F80
0E00
ENDCHAR
STARTCHAR E237
ENCODING 57911
SWIDTH 583 0
DWIDTH 7 0
BBX 11 12 0 -2
BITMAP
FFE0
FFE0
FFE0
F0E0
EEE0
EE60
EE60
EEE0
F1E0
FEE0
FFE0
7FE0
ENDCHAR
STARTCHAR E238
ENCODING 57912
SWIDTH 583 0
DWIDTH 7 0
BBX 11 11 0 -1
BITMAP
2080
20C0
71E0
F9E0
FEE0
0E00
0600
0A00
0E00
1F00
1F80
ENDCHAR
STARTCHAR E239
ENCODING 57913
SWIDTH 583 0
DWIDTH 7 0
BBX 11 10 0 -1
BITMAP
0F00
1F00
1FE0
3FE0
FFE0
FFE0
0000
3B80
3D00
5700
ENDCHAR
STARTCHAR E23A
ENCODING 57914
SWIDTH 583 0
DWIDTH 7 0
BBX 8 12 0 -2
BITMAP
08
2E
2C
7E
DE
EF
F5
F7
7A
7E
3C
08
ENDCHAR
STARTCHAR E23B
ENCODING 57915
SWIDTH 583 0
DWIDTH 7 0
BBX 5 12 1 -2
BITMAP
F8
F8
F8
F8
F8
F8
F8
F8
F8
F8
F8
F8
ENDCHAR
STARTCHAR E23C
ENCODING 57916
SWIDTH 583 0
DWIDTH 7 0
BBX 11 11 0 -1
BITMAP
3FE0
3FE0
FFE0
8060
8060
8060
8060
8060
8060
8060
FFC0
ENDCHAR
STARTCHAR E23D
ENCODING 57917
SWIDTH 583 0
DWIDTH 7 0
BBX 10 12 0 -2
BITMAP
1E00
1E00
2E00
7100
4080
80C0
8040
8040
8080
4180
3F00
0C00
ENDCHAR
STARTCHAR E23E
ENCODING 57918
SWIDTH 583 0
DWIDTH 7 0
BBX 11 10 0 -1
BITMAP
3B80
54C0
DEE0
2100
EF60
6EC0
3680
1700
0D00
0400
ENDCHAR
STARTCHAR E23F
ENCODING 57919
SWIDTH 583 0
DWIDTH 7 0
BBX 9 12 0 -2
BITMAP
3C00
5F00
7D00
BE80
EB80
B780
6F80
B780
EF00
5780
3600
0800
ENDCHAR
STARTCHAR E240
ENCODING 57920
SWIDTH 583 0
DWIDTH 7 0
BBX 11 12 0 -2
BITMAP
FF80
C6C0
C6E0
C6E0
C0E0
FFE0
FFE0
C060
C060
C060
C060
FFE0
ENDCHAR
STARTCHAR E241
ENCODING 57921
SWIDTH 583 0
DWIDTH 7 0
BBX 10 12 0 -2
BITMAP
0100
01C0
21C0
63C0
F1C0
F1C0
7180
7380
3B80
3B00
1800
1000
ENDCHAR
STARTCHAR E242
ENCODING 57922
SWIDTH 583 0
DWIDTH 7 0
BBX 12 8 0 0
BITMAP
4440
8420
8520
8F10
8910
8A20
5FA0
4040
ENDCHAR
STARTCHAR E243
ENCODING 57923
SWIDTH 583 0
DWIDTH 7 0
BBX 11 4 0 2
BITMAP
0F80
FF60
7FE0
0400
ENDCHAR
STARTCHAR E244
ENCODING 57924
SWIDTH 583 0
DWIDTH 7 0
BBX 11 11 0 -1
BITMAP
3FE0
7FA0
8060
8060
8260
8360
8060
8360
BF60
FFE0
FFC0
ENDCHAR
STARTCHAR E245
ENCODING 57925
SWIDTH 583 0
DWIDTH 7 0
BBX 11 6 0 1
BITMAP
3980
4040
FFE0
8620
8A20
71C0
ENDCHAR
STARTCHAR E246
ENCODING 57926
SWIDTH 583 0
DWIDTH 7 0
BBX 11 10 0 -1
BITMAP
0F00
1F80
3B80
3FC0
79C0
71E0
F000
7FE0
5FC0
3FC0
ENDCHAR
STARTCHAR E247
ENCODING 57927
SWIDTH 583 0
DWIDTH 7 0
BBX 11 12 0 -2
BITMAP
8000
E000
F800
FE00
FF80
FDE0
FBC0
F700
EC00
D000
A000
C000
ENDCHAR
STARTCHAR E248
ENCODING 57928
SWIDTH 583 0
DWIDTH 7 0
BBX 11 12 0 -2
BITMAP
0400
0400
0F00
1080
2E80
EF60
2F40
2680
1180
0E00
0400
0400
ENDCHAR
STARTCHAR E249
ENCODING 57929
SWIDTH 583 0
DWIDTH 7 0
BBX 11 12 0 -2
BITMAP
0F00
3B80
7F40
FFE0
FCE0
EAE0
E920
D3E0
77E0
6FC0
3F80
0400
ENDCHAR
STARTCHAR E24A
ENCODING 57930
SWIDTH 583 0
DWIDTH 7 0
BBX 5 12 1 -2
BITMAP
20
20
20
20
20
20
70
50
58
F8
58
20
ENDCHAR
STARTCHAR E24B
ENCODING 57931
SWIDTH 583 0
DWIDTH 7 0
BBX 10 12 0 -2
BITMAP
E0C0
FFC0
FFC0
C0C0
C0C0
C0C0
20C0
01C0
0780
0700
0400
0400
ENDCHAR
STARTCHAR E24C
ENCODING 57932
SWIDTH 583 0
DWIDTH 7 0
BBX 11 8 0 0
BITMAP
2040
A0E0
A0E0
BFE0
BFE0
A0E0
20C0
2040
ENDCHAR
STARTCHAR E24D
ENCODING 57933
SWIDTH 583 0
DWIDTH 7 0
BBX 11 9 0 0
BITMAP
0F00
3FC0
7FC0
7FE0
7FE0
FFE0
FFE0
0000
7FE0
ENDCHAR
STARTCHAR E24E
ENCODING 57934
SWIDTH 583 0
DWIDTH 7 0
BBX 11 4 0 2
BITMAP
0E00
1F00
F7E0
0C00
ENDCHAR
STARTCHAR E24F
ENCODING 57935
SWIDTH 583 0
DWIDTH 7 0
BBX 10 12 0 -2
BITMAP
0C00
3F00
7FC0
FFC0
FFC0
FFC0
FFC0
FFC0
FFC0
7F80
1F00
0400
ENDCHAR
STARTCHAR E250
ENCODING 57936
SWIDTH 583 0
DWIDTH 7 0
BBX 11 10 0 -1
BITMAP
C000
E000
F000
F800
5C00
4FE0
47E0
47E0
47E0
43C0
ENDCHAR
STARTCHAR E251
ENCODING 57937
SWIDTH 583 0
DWIDTH 7 0
BBX 11 12 0 -2
BITMAP
5000
AC00
D200
F900
B480
5A40
2B20
16A0
0B60
05E0
02E0
0140
ENDCHAR
STARTCHAR E252
ENCODING 57938
SWIDTH 583 0
DWIDTH 7 0
BBX 5 12 1 -2
BITMAP
30
30
78
B8
F8
00
78
70
70
20
20
20
ENDCHAR
STARTCHAR E253
ENCODING 57939
SWIDTH 583 0
DWIDTH 7 0
BBX 11 7 0 1
BITMAP
FFE0
AAA0
AFE0
F820
FFE0
FFE0
FFE0
ENDCHAR
STARTCHAR E254
ENCODING 57940
SWIDTH 583 0
DWIDTH 7 0
BBX 11 4 0 2
BITMAP
AB40
BB60
BB60
BB60
ENDCHAR
STARTCHAR E255
ENCODING 57941
SWIDTH 583 0
DWIDTH 7 0
BBX 11 5 0 2
BITMAP
70C0
8B20
8620
8E20
79E0
ENDCHAR
STARTCHAR E256
ENCODING 57942
SWIDTH 583 0
DWIDTH 7 0
BBX 9 12 0 -2
BITMAP
0400
0400
0A00
1400
1800
1400
2B00
5480
3F00
3C00
C180
3E00
ENDCHAR
STARTCHAR E257
ENCODING 57943
SWIDTH 583 0
DWIDTH 7 0
BBX 11 9 0 0
BITMAP
0400
1F00
FFE0
7FC0
8F20
70C0
8F20
70C0
0F00
ENDCHAR
STARTCHAR E258
ENCODING 57944
SWIDTH 583 0
DWIDTH 7 0
BBX 11 7 0 1
BITMAP
1B00
3FC0
7FE0
F0E0
FFE0
7FE0
3FC0
ENDCHAR
STARTCHAR E259
ENCODING 57945
SWIDTH 583 0
DWIDTH 7 0
BBX 4 12 2 -2
BITMAP
60
E0
E0
E0
E0
E0
E0
E0
F0
F0
F0
E0
ENDCHAR
STARTCHAR E25A
ENCODING 57946
SWIDTH 583 0
DWIDTH 7 0
BBX 11 7 0 1
BITMAP
3DE0
7EE0
FEE0
FEC0
FE00
F800
D000
ENDCHAR
STARTCHAR E25B
ENCODING 57947
SWIDTH 583 0
DWIDTH 7 0
BBX 11 11 0 -1
BITMAP
0400
0400
1D80
3FC0
7FC0
7BE0
FBE0
FBE0
FBE0
F1E0
E0E0
ENDCHAR
STARTCHAR E25C
ENCODING 57948
SWIDTH 583 0
DWIDTH 7 0
BBX 5 12 1 -2
BITMAP
40
E8
48
48
48
48
48
48
48
48
48
08
ENDCHAR
STARTCHAR E25D
ENCODING 57949
SWIDTH 583 0
DWIDTH 7 0
BBX 11 12 0 -2
BITMAP
FFE0
FFE0
8020
8020
8020
8020
8020
8020
8020
8020
8020
FFE0
ENDCHAR
STARTCHAR E25E
ENCODING 57950
SWIDTH 583 0
DWIDTH 7 0
BBX 11 8 0 0
BITMAP
FFE0
FFE0
FFE0
FFE0
FF20
FFE0
FFE0
FFE0
ENDCHAR
STARTCHAR E25F
ENCODING 57951
SWIDTH 583 0
DWIDTH 7 0
BBX 6 12 1 -2
BITMAP
30
F0
F8
FC
E0
F0
F0
F0
F0
F8
F8
F8
ENDCHAR
STARTCHAR E260
ENCODING 57952
SWIDTH 583 0
DWIDTH 7 0
BBX 4 12 2 -2
BITMAP
40
40
E0
E0
40
E0
40
60
E0
E0
F0
F0
ENDCHAR
STARTCHAR E261
ENCODING 57953
SWIDTH 583 0
DWIDTH 7 0
BBX 5 12 1 -2
BITMAP
30
70
70
78
20
30
70
70
F8
F8
F8
F8
ENDCHAR
STARTCHAR E262
ENCODING 57954
SWIDTH 583 0
DWIDTH 7 0
BBX 5 12 1 -2
BITMAP
20
20
78
30
70
20
20
30
70
78
F8
F8
ENDCHAR
STARTCHAR E263
ENCODING 57955
SWIDTH 583 0
DWIDTH 7 0
BBX 6 12 1 -2
BITMAP
A8
F8
78
70
70
70
78
F8
F8
FC
F8
FC
ENDCHAR
STARTCHAR E264
ENCODING 57956
SWIDTH 583 0
DWIDTH 7 0
BBX 11 9 0 0
BITMAP
0080
01C0
1980
7FC0
CE60
FF20
37E0
3FE0
FEE0
ENDCHAR
STARTCHAR E265
ENCODING 57957
SWIDTH 583 0
DWIDTH 7 0
BBX 8 12 0 -2
BITMAP
03
03
02
0E
1F
1F
1E
3E
3C
78
F0
80
ENDCHAR
STARTCHAR E266
ENCODING 57958
SWIDTH 583 0
DWIDTH 7 0
BBX 11 11 0 -1
BITMAP
1F00
1F80
DFE0
1F80
DFE0
1F80
DFE0
DFE0
DFE0
DFE0
1F80
ENDCHAR
STARTCHAR E267
ENCODING 57959
SWIDTH 583 0
DWIDTH 7 0
BBX 11 10 0 -1
BITMAP
0200
0700
0E00
1B80
1C00
75E0
8D20
8E20
9920
60C0
ENDCHAR
STARTCHAR E268
ENCODING 57960
SWIDTH 583 0
DWIDTH 7 0
BBX 11 6 0 1
BITMAP
0F00
1F00
1FE0
3FE0
FFE0
FFE0
ENDCHAR
STARTCHAR E269
ENCODING 57961
SWIDTH 583 0
DWIDTH 7 0
BBX 9 12 0 -2
BITMAP
2200
3400
3E00
1E00
7F00
BE80
3F00
3F00
3F00
7F00
7F00
9480
ENDCHAR
STARTCHAR E26A
ENCODING 57962
SWIDTH 583 0
DWIDTH 7 0
BBX 12 11 0 -2
BITMAP
0040
18E0
7DE0
FDF0
FD60
F9E0
0E40
1D00
3E00
3E00
3C00
ENDCHAR
STARTCHAR E26B
ENCODING 57963
SWIDTH 583 0
DWIDTH 7 0
BBX 11 4 0 2
BITMAP
3F80
41E0
8E20
FFE0
ENDCHAR
STARTCHAR E26C
ENCODING 57964
SWIDTH 583 0
DWIDTH 7 0
BBX 11 11 0 -1
BITMAP
0040
00E0
03A0
0340
0780
0D00
1F00
3000
6000
E000
C000
ENDCHAR
STARTCHAR E26D
ENCODING 57965
SWIDTH 583 0
DWIDTH 7 0
BBX 10 12 0 -2
BITMAP
8000
4000
6000
B800
7C00
7E00
3F00
1C80
0840
0840
0480
0300
ENDCHAR
STARTCHAR E26E
ENCODING 57966
SWIDTH 583 0
DWIDTH 7 0
BBX 11 7 0 1
BITMAP
0400
0400
94A0
56A0
7FC0
3FC0
3FC0
ENDCHAR
STARTCHAR E26F
ENCODING 57967
SWIDTH 583 0
DWIDTH 7 0
BBX 9 12 0 -2
BITMAP
3E00
FF80
FF80
7F80
7F80
6380
0000
6300
7F00
7F00
7F00
3F00
ENDCHAR
STARTCHAR E270
ENCODING 57968
SWIDTH 583 0
DWIDTH 7 0
BBX 11 12 0 -2
BITMAP
7FE0
FFE0
CE60
CE60
FFE0
CE60
CE60
FFE0
CE60
CE60
FFE0
7FE0
ENDCHAR
STARTCHAR E271
ENCODING 57969
SWIDTH 583 0
DWIDTH 7 0
BBX 12 12 0 -2
BITMAP
0F00
3FC0
7FC0
FBE0
F0E0
E6F0
E4E0
F1E0
7FE0
7FC0
3F80
0600
ENDCHAR
STARTCHAR E272
ENCODING 57970
SWIDTH 583 0
DWIDTH 7 0
BBX 7 12 0 -2
BITMAP
82
FE
BE
42
7C
38
4C
BA
FE
82
FE
82
ENDCHAR
STARTCHAR E273
ENCODING 57971
SWIDTH 583 0
DWIDTH 7 0
BBX 11 10 0 -1
BITMAP
1F00
6EC0
F1E0
D1A0
EFE0
FFE0
BFA0
9420
74C0
0F00
ENDCHAR
STARTCHAR E274
ENCODING 57972
SWIDTH 583 0
DWIDTH 7 0
BBX 5 12 1 -2
BITMAP
50
70
70
70
00
70
78
F8
F8
F8
F8
30
ENDCHAR
STARTCHAR E275
ENCODING 57973
SWIDTH 583 0
DWIDTH 7 0
BBX 8 12 0 -2
BITMAP
10
18
3C
3C
7E
7E
FF
FF
FF
FE
7E
18
ENDCHAR
STARTCHAR E276
ENCODING 57974
SWIDTH 583 0
DWIDTH 7 0
BBX 12 12 0 -2
BITMAP
0F00
3FC0
7FC0
FFE0
FFE0
FFF0
DF60
FF60
76E0
7FC0
3F80
0600
ENDCHAR
STARTCHAR E277
ENCODING 57975
SWIDTH 583 0
DWIDTH 7 0
BBX 11 12 0 -2
BITMAP
0C00
1F00
7F80
FFC0
FFE0
7FC0
BFA0
DEE0
F5E0
FFE0
FFE0
7FC0
ENDCHAR
STARTCHAR E278
ENCODING 57976
SWIDTH 583 0
DWIDTH 7 0
BBX 10 12 0 -2
BITMAP
0C00
1200
6180
8040
8040
8040
C0C0
A140
9E40
8040
8040
7F80
ENDCHAR
STARTCHAR E279
ENCODING 57977
SWIDTH 583 0
DWIDTH 7 0
BBX 11 8 0 0
BITMAP
FFE0
FFE0
FFE0
0000
0000
FFE0
FFE0
FFE0
ENDCHAR
STARTCHAR E27A
ENCODING 57978
SWIDTH 583 0
DWIDTH 7 0
BBX 11 8 0 0
BITMAP
0100
7D80
FEC0
0060
FC60
FEC0
0180
0100
ENDCHAR
STARTCHAR E27B
ENCODING 57979
SWIDTH 583 0
DWIDTH 7 0
BBX 11 10 0 -1
BITMAP
0E00
1F00
3B80
73C0
E7E0
CBE0
F3E0
7FC0
3B80
0F00
ENDCHAR
STARTCHAR E27C
ENCODING 57980
SWIDTH 583 0
DWIDTH 7 0
BBX 11 12 0 -2
BITMAP
FA00
FB00
FB80
FBC0
F800
FE80
FCC0
FBE0
F840
FE80
FE00
FFC0
ENDCHAR
STARTCHAR E27D
ENCODING 57981
SWIDTH 583 0
DWIDTH 7 0
BBX 11 12 0 -2
BITMAP
FA00
FB00
FB80
FBC0
F800
FE80
FD80
FBE0
F900
FC80
FE40
FF80
ENDCHAR
STARTCHAR E27E
ENCODING 57982
SWIDTH 583 0
DWIDTH 7 0
BBX 11 10 0 -1
BITMAP
3000
2800
F1C0
0240
FF80
0000
3FE0
00A0
00A0
0040
ENDCHAR
STARTCHAR E27F
ENCODING 57983
SWIDTH 583 0
DWIDTH 7 0
BBX 11 10 0 -1
BITMAP
3B80
2440
2E80
7160
94A0
94A0
6940
3E80
2440
3B80
ENDCHAR
STARTCHAR E280
ENCODING 57984
SWIDTH 583 0
DWIDTH 7 0
BBX 9 12 0 -2
BITMAP
6000
F800
FC00
7E00
1F00
6F00
6780
7780
7B00
3E00
1E00
0400
ENDCHAR
STARTCHAR E281
ENCODING 57985
SWIDTH 583 0
DWIDTH 7 0
BBX 11 10 0 -1
BITMAP
0040
00C0
01A0
03E0
FF60
7FE0
3FE0
07E0
3FC0
1F00
ENDCHAR
STARTCHAR E282
ENCODING 57986
SWIDTH 583 0
DWIDTH 7 0
BBX 11 8 0 0
BITMAP
0180
0000
0080
FFE0
7FE0
7FE0
7FC0
2080
ENDCHAR
STARTCHAR E283
ENCODING 57987
SWIDTH 583 0
DWIDTH 7 0
BBX 11 10 0 -1
BITMAP
7FC0
7FE0
4420
0000
FFE0
FFE0
FFE0
FFE0
7FE0
30C0
ENDCHAR
STARTCHAR E284
ENCODING 57988
SWIDTH 583 0
DWIDTH 7 0
BBX 10 12 0 -2
BITMAP
0C00
0E00
57C0
E0C0
C0C0
4040
4040
C0C0
E0C0
1F00
0C00
0400
ENDCHAR
STARTCHAR E285
ENCODING 57989
SWIDTH 583 0
DWIDTH 7 0
BBX 7 12 0 -2
BITMAP
40
E0
70
38
1C
0E
0E
1C
38
70
E0
40
ENDCHAR
STARTCHAR E286
ENCODING 57990
SWIDTH 583 0
DWIDTH 7 0
BBX 11 10 0 -1
BITMAP
1900
2080
2680
1980
7BC0
AAA0
96A0
1D00
0600
79E0
ENDCHAR
STARTCHAR E287
ENCODING 57991
SWIDTH 583 0
DWIDTH 7 0
BBX 11 12 0 -2
BITMAP
0F00
3F80
61C0
C0E0
CCE0
C060
C060
CE60
6060
7FC0
3F80
0400
ENDCHAR
STARTCHAR E288
ENCODING 57992
SWIDTH 583 0
DWIDTH 7 0
BBX 11 12 0 -2
BITMAP
FFE0
FFE0
E0E0
C0E0
CEE0
C060
CE60
CE60
E060
FFE0
FFE0
7FE0
ENDCHAR
STARTCHAR E289
ENCODING 57993
SWIDTH 583 0
DWIDTH 7 0
BBX 11 10 0 -1
BITMAP
0600
0600
F7E0
FFE0
FFE0
70C0
3080
3FC0
6FC0
1180
ENDCHAR
STARTCHAR E28A
ENCODING 57994
SWIDTH 583 0
DWIDTH 7 0
BBX 11 10 0 -1
BITMAP
FBE0
FFE0
FFE0
FFE0
FFE0
FFE0
FFE0
FFE0
FFE0
0400
ENDCHAR
STARTCHAR E28B
ENCODING 57995
SWIDTH 583 0
DWIDTH 7 0
BBX 11 10 0 -1
BITMAP
FBE0
8420
8420
8420
8420
8420
8420
8420
FFE0
0400
ENDCHAR
STARTCHAR E28C
ENCODING 57996
SWIDTH 583 0
DWIDTH 7 0
BBX 11 11 0 -1
BITMAP
0400
7F80
FFC0
FFE0
FFE0
7FE0
3FE0
1FE0
03C0
0200
0200
ENDCHAR
STARTCHAR E28D
ENCODING 57997
SWIDTH 583 0
DWIDTH 7 0
BBX 11 10 0 -1
BITMAP
0700
0980
3060
C020
C0E0
E180
76E0
2D00
1600
0800
ENDCHAR
STARTCHAR E28E
ENCODING 57998
SWIDTH 583 0
DWIDTH 7 0
BBX 12 9 0 -1
BITMAP
6060
F1F0
FBF0
FFE0
FFE0
7FC0
7FC0
7FC0
39C0
ENDCHAR
STARTCHAR E28F
ENCODING 57999
SWIDTH 583 0
DWIDTH 7 0
BBX 11 12 0 -2
BITMAP
0040
02A0
02C0
0500
0E00
1E00
1A00
3C00
7800
7000
C000
8000
ENDCHAR
STARTCHAR E290
ENCODING 58000
SWIDTH 583 0
DWIDTH 7 0
BBX 11 12 0 -2
BITMAP
0F00
30C0
4640
C420
8E20
8E20
8E20
8620
4620
6640
3B80
0600
ENDCHAR
STARTCHAR E291
ENCODING 58001
SWIDTH 583 0
DWIDTH 7 0
BBX 12 12 0 -2
BITMAP
0F00
30C0
4060
4020
9FA0
B230
96A0
9920
4020
6040
3980
0600
ENDCHAR
STARTCHAR E292
ENCODING 58002
SWIDTH 583 0
DWIDTH 7 0
BBX 11 12 0 -2
BITMAP
0F00
3080
4440
C720
BA20
8E20
83A0
8FE0
4420
6040
3F80
0400
ENDCHAR
STARTCHAR E293
ENCODING 58003
SWIDTH 583 0
DWIDTH 7 0
BBX 11 12 0 -2
BITMAP
0F00
3080
4040
CF20
B820
9E20
9FA0
88E0
4F20
6040
3B80
0600
ENDCHAR
STARTCHAR E294
ENCODING 58004
SWIDTH 583 0
DWIDTH 7 0
BBX 11 12 0 -2
BITMAP
0F00
3080
4040
D920
FB20
8E20
8FA0
8FE0
4420
6440
3B80
0600
ENDCHAR
STARTCHAR E295
ENCODING 58005
SWIDTH 583 0
DWIDTH 7 0
BBX 12 12 0 -2
BITMAP
0F00
30C0
4040
C020
8F20
8030
8F20
8020
4020
6040
3980
0600
ENDCHAR
STARTCHAR E296
ENCODING 58006
SWIDTH 583 0
DWIDTH 7 0
BBX 11 12 0 -2
BITMAP
0F00
3080
4040
DE20
9F20
BF20
B9E0
97E0
4020
6040
3B80
0600
ENDCHAR
STARTCHAR E297
ENCODING 58007
SWIDTH 583 0
DWIDTH 7 0
BBX 11 12 0 -2
BITMAP
0F00
3080
4040
CF20
9920
99A0
81A0
9920
4E20
6040
3B80
0600
ENDCHAR
STARTCHAR E298
ENCODING 58008
SWIDTH 583 0
DWIDTH 7 0
BBX 11 12 0 -2
BITMAP
0F00
3080
4C40
D220
9720
98A0
98A0
88A0
4720
6040
3B80
0600
ENDCHAR
STARTCHAR E299
ENCODING 58009
SWIDTH 583 0
DWIDTH 7 0
BBX 12 12 0 -2
BITMAP
0F00
30C0
4040
4F20
8B20
9D30
9D20
8B20
4E20
6040
3980
0600
ENDCHAR
STARTCHAR E29A
ENCODING 58010
SWIDTH 583 0
DWIDTH 7 0
BBX 9 12 0 -2
BITMAP
FF80
8080
9080
EF80
A080
A080
AF80
8080
AF80
8080
8080
FF80
ENDCHAR
STARTCHAR E29B
ENCODING 58011
SWIDTH 583 0
DWIDTH 7 0
BBX 10 12 0 -2
BITMAP
0100
0200
0600
0A00
1200
1200
3280
FFC0
FFC0
FFC0
FFC0
2100
ENDCHAR
STARTCHAR E29C
ENCODING 58012
SWIDTH 583 0
DWIDTH 7 0
BBX 5 12 1 -2
BITMAP
20
20
70
30
20
70
30
70
70
F8
78
78
ENDCHAR
STARTCHAR E29D
ENCODING 58013
SWIDTH 583 0
DWIDTH 7 0
BBX 11 12 0 -2
BITMAP
1F00
2680
70C0
F1E0
E4E0
EE60
DF60
DFA0
BFA0
7FC0
3F80
0600
ENDCHAR
STARTCHAR E29E
ENCODING 58014
SWIDTH 583 0
DWIDTH 7 0
BBX 10 12 0 -2
BITMAP
0B80
0F00
0C00
7F00
FF80
FF80
FFC0
FF80
7F80
7F00
3F00
1400
ENDCHAR
STARTCHAR E29F
ENCODING 58015
SWIDTH 583 0
DWIDTH 7 0
BBX 11 12 0 -2
BITMAP
0380
07E0
07E0
0FE0
0FE0
0FC0
0F80
1E00
F000
E000
7000
2000
ENDCHAR
STARTCHAR E2A0
ENCODING 58016
SWIDTH 583 0
DWIDTH 7 0
BBX 11 7 0 1
BITMAP
FFE0
F1E0
FEE0
FEE0
FBE0
0400
FFE0
ENDCHAR
STARTCHAR E2A1
ENCODING 58017
SWIDTH 583 0
DWIDTH 7 0
BBX 3 12 2 -2
BITMAP
E0
40
E0
A0
E0
E0
E0
E0
40
40
40
40
ENDCHAR
STARTCHAR E2A2
ENCODING 58018
SWIDTH 583 0
DWIDTH 7 0
BBX 10 12 0 -2
BITMAP
1800
7400
0F00
3F80
0F00
1500
3500
2000
6000
7E00
FF80
FFC0
ENDCHAR
STARTCHAR E2A3
ENCODING 58019
SWIDTH 583 0
DWIDTH 7 0
BBX 7 12 0 -2
BITMAP
38
46
BA
BA
AA
BE
7C
10
10
10
10
10
ENDCHAR
STARTCHAR E2A4
ENCODING 58020
SWIDTH 583 0
DWIDTH 7 0
BBX 11 7 0 1
BITMAP
FFE0
F1E0
FEE0
F6E0
FBE0
0400
FFE0
ENDCHAR
STARTCHAR E2A5
ENCODING 58021
SWIDTH 583 0
DWIDTH 7 0
BBX 11 10 0 -1
BITMAP
00E0
1F60
6FA0
BF60
C6C0
E580
BF00
E600
7E00
1000
ENDCHAR
STARTCHAR E2A6
ENCODING 58022
SWIDTH 583 0
DWIDTH 7 0
BBX 11 6 0 1
BITMAP
0400
0E00
0E80
1FC0
7FE0
FFE0
ENDCHAR
STARTCHAR E2A7
ENCODING 58023
SWIDTH 583 0
DWIDTH 7 0
BBX 7 12 0 -2
BITMAP
60
72
34
08
38
7E
FE
FE
FE
F6
7C
18
ENDCHAR
STARTCHAR E2A8
ENCODING 58024
SWIDTH 583 0
DWIDTH 7 0
BBX 9 12 0 -2
BITMAP
6400
7800
1800
7F00
FF80
FF80
FF80
FF80
7F00
3E00
1C00
0800
ENDCHAR
STARTCHAR E2A9
ENCODING 58025
SWIDTH 583 0
DWIDTH 7 0
BBX 7 12 0 -2
BITMAP
E8
70
10
38
38
3C
7C
7E
FE
FE
7E
38
ENDCHAR
STARTCHAR E300
ENCODING 58112
SWIDTH 583 0
DWIDTH 7 0
BBX 14 12 0 -1
BITMAP
0040
0040
0618
07E0
0910
1094
2460
4220
FE28
0060
FF80
3000
ENDCHAR
STARTCHAR E301
ENCODING 58113
SWIDTH 583 0
DWIDTH 7 0
BBX 14 12 0 -1
BITMAP
0040
0040
0418
07E0
0920
109C
2060
4020
7C28
0060
FF80
3E00
ENDCHAR
STARTCHAR E302
ENCODING 58114
SWIDTH 583 0
DWIDTH 7 0
BBX 13 10 0 1
BITMAP
0100
0100
0830
0FC0
3240
2138
40C0
8040
8050
7FC0
ENDCHAR
STARTCHAR E303
ENCODING 58115
SWIDTH 583 0
DWIDTH 7 0
BBX 14 12 0 -1
BITMAP
0040
0040
0618
07E0
0910
1094
2070
4000
7FE8
0000
FFC0
3FF0
ENDCHAR
STARTCHAR E304
ENCODING 58116
SWIDTH 583 0
DWIDTH 7 0
BBX 13 13 0 -2
BITMAP
0100
0100
0830
0FC0
3240
2138
40C0
8040
9550
56C0
1800
2A00
0800
ENDCHAR
STARTCHAR E305
ENCODING 58117
SWIDTH 583 0
DWIDTH 7 0
BBX 13 14 0 -3
BITMAP
0100
0100
0830
0FC0
3240
2138
40C0
8440
8C50
48C0
0400
0800
0800
1000
ENDCHAR
STARTCHAR E306
ENCODING 58118
SWIDTH 583 0
DWIDTH 7 0
BBX 13 13 0 -2
BITMAP
0100
0100
0830
0FC0
3240
2138
40C0
8040
9150
C0C0
1E00
1A00
0800
ENDCHAR
STARTCHAR E307
ENCODING 58119
SWIDTH 583 0
DWIDTH 7 0
BBX 13 14 0 -3
BITMAP
0100
0100
0830
0FC0
3240
2138
40C0
8040
8050
CAC0
1500
2A00
0200
1000
ENDCHAR
STARTCHAR E308
ENCODING 58120
SWIDTH 583 0
DWIDTH 7 0
BBX 13 13 0 -2
BITMAP
0100
0100
0830
0FC0
3240
2138
40C0
8040
9550
56C0
1A00
1A00
0800
ENDCHAR
STARTCHAR E309
ENCODING 58121
SWIDTH 583 0
DWIDTH 7 0
BBX 13 13 0 -2
BITMAP
0100
0100
0830
0FC0
3240
2138
40C0
8040
9150
40C0
1E00
1200
0800
ENDCHAR
STARTCHAR E30A
ENCODING 58122
SWIDTH 583 0
DWIDTH 7 0
BBX 13 13 0 -2
BITMAP
0100
0100
0830
0FC0
3240
2138
40C0
8040
8050
C4C0
1600
1200
0400
ENDCHAR
STARTCHAR E30B
ENCODING 58123
SWIDTH 583 0
DWIDTH 7 0
BBX 13 12 0 -1
BITMAP
0100
0100
0830
0FC0
3240
2138
44C0
9440
9050
44C0
0E00
0400
ENDCHAR
STARTCHAR E30C
ENCODING 58124
SWIDTH 583 0
DWIDTH 7 0
BBX 12 11 0 0
BITMAP
0400
0400
2040
2640
0900
1080
D8B0
2480
6700
4140
7E40
ENDCHAR
STARTCHAR E30D
ENCODING 58125
SWIDTH 583 0
DWIDTH 7 0
BBX 10 10 0 -1
BITMAP
0400
4480
2D00
1200
D140
1100
1A00
2500
4480
0400
ENDCHAR
STARTCHAR E30E
ENCODING 58126
SWIDTH 583 0
DWIDTH 7 0
BBX 13 13 0 -2
BITMAP
0100
0100
0830
0FC0
3240
2138
40C0
8040
B150
70C0
3600
6200
2800
ENDCHAR
STARTCHAR E30F
ENCODING 58127
SWIDTH 583 0
DWIDTH 7 0
BBX 13 13 0 -2
BITMAP
0100
0100
0830
0FC0
3240
2138
40C0
8040
B550
76C0
3A00
6A00
2800
ENDCHAR
STARTCHAR E310
ENCODING 58128
SWIDTH 583 0
DWIDTH 7 0
BBX 11 9 0 -1
BITMAP
0600
1900
1080
6460
0220
FE20
0060
F780
3000
ENDCHAR
STARTCHAR E311
ENCODING 58129
SWIDTH 583 0
DWIDTH 7 0
BBX 12 9 0 -1
BITMAP
0600
0980
1080
3060
0010
7E10
0020
FBC0
3E00
ENDCHAR
STARTCHAR E312
ENCODING 58130
SWIDTH 583 0
DWIDTH 7 0
BBX 11 7 0 1
BITMAP
0300
1C80
24C0
4320
80A0
80C0
FF00
ENDCHAR
STARTCHAR E313
ENCODING 58131
SWIDTH 583 0
DWIDTH 7 0
BBX 12 9 0 -1
BITMAP
0600
0900
1080
2060
4000
7FE0
0000
FFC0
3FF0
ENDCHAR
STARTCHAR E314
ENCODING 58132
SWIDTH 583 0
DWIDTH 7 0
BBX 10 10 0 -2
BITMAP
0C00
3200
2100
40C0
8040
9540
56C0
1A00
1A00
0800
ENDCHAR
STARTCHAR E315
ENCODING 58133
SWIDTH 583 0
DWIDTH 7 0
BBX 7 9 0 -1
BITMAP
06
74
6E
54
E4
68
40
80
80
ENDCHAR
STARTCHAR E316
ENCODING 58134
SWIDTH 583 0
DWIDTH 7 0
BBX 10 10 0 -2
BITMAP
0C00
3200
2100
40C0
8040
9140
C0C0
1E00
1A00
0800
ENDCHAR
STARTCHAR E317
ENCODING 58135
SWIDTH 583 0
DWIDTH 7 0
BBX 10 11 0 -3
BITMAP
0C00
3200
2100
40C0
8040
8040
CAC0
1500
0A00
0400
1000
ENDCHAR
STARTCHAR E318
ENCODING 58136
SWIDTH 583 0
DWIDTH 7 0
BBX 10 10 0 -2
BITMAP
0C00
3200
2100
40C0
8040
9540
56C0
1A00
1A00
0800
ENDCHAR
STARTCHAR E319
ENCODING 58137
SWIDTH 583 0
DWIDTH 7 0
BBX 10 10 0 -2
BITMAP
0C00
3200
2100
40C0
8040
9140
40C0
1E00
1200
0800
ENDCHAR
STARTCHAR E31A
ENCODING 58138
SWIDTH 583 0
DWIDTH 7 0
BBX 10 10 0 -2
BITMAP
0C00
3200
2100
40C0
8040
8040
C4C0
1600
1200
0400
ENDCHAR
STARTCHAR E31B
ENCODING 58139
SWIDTH 583 0
DWIDTH 7 0
BBX 10 9 0 -1
BITMAP
0C00
3200
2100
44C0
9440
9040
44C0
0E00
0400
ENDCHAR
STARTCHAR E31C
ENCODING 58140
SWIDTH 583 0
DWIDTH 7 0
BBX 10 10 0 -2
BITMAP
0C00
3200
2100
40C0
8040
B140
F0C0
3600
6200
2800
ENDCHAR
STARTCHAR E31D
ENCODING 58141
SWIDTH 583 0
DWIDTH 7 0
BBX 10 10 0 -2
BITMAP
0C00
3200
2100
40C0
8040
B540
F6C0
3A00
6A00
2800
ENDCHAR
STARTCHAR E31E
ENCODING 58142
SWIDTH 583 0
DWIDTH 7 0
BBX 10 3 0 2
BITMAP
7F00
FFC0
3F80
ENDCHAR
STARTCHAR E31F
ENCODING 58143
SWIDTH 583 0
DWIDTH 7 0
BBX 12 10 0 -1
BITMAP
00C0
0740
0920
10B0
2460
4220
FE20
0060
FF80
3000
ENDCHAR
STARTCHAR E320
ENCODING 58144
SWIDTH 583 0
DWIDTH 7 0
BBX 12 10 0 -1
BITMAP
0060
06A0
09A0
0890
3070
0010
7E10
0020
FBC0
3F00
ENDCHAR
STARTCHAR E321
ENCODING 58145
SWIDTH 583 0
DWIDTH 7 0
BBX 11 11 0 -2
BITMAP
0180
0E80
3240
2160
40C0
8040
9540
56C0
0800
1A00
0800
ENDCHAR
STARTCHAR E322
ENCODING 58146
SWIDTH 583 0
DWIDTH 7 0
BBX 11 10 0 -1
BITMAP
0180
0E80
3240
2160
40C0
8440
8C40
48C0
0400
0800
ENDCHAR
STARTCHAR E323
ENCODING 58147
SWIDTH 583 0
DWIDTH 7 0
BBX 11 11 0 -2
BITMAP
0180
0E80
3240
2120
40C0
8040
9140
40C0
1E00
1A00
0800
ENDCHAR
STARTCHAR E324
ENCODING 58148
SWIDTH 583 0
DWIDTH 7 0
BBX 11 12 0 -3
BITMAP
0180
0E80
3240
2160
40C0
8040
8040
CAC0
1500
2A00
0400
1000
ENDCHAR
STARTCHAR E325
ENCODING 58149
SWIDTH 583 0
DWIDTH 7 0
BBX 11 11 0 -2
BITMAP
0180
0E80
3240
2160
40C0
8040
9540
56C0
1600
1A00
0800
ENDCHAR
STARTCHAR E326
ENCODING 58150
SWIDTH 583 0
DWIDTH 7 0
BBX 11 11 0 -2
BITMAP
0180
0E80
3240
2160
40C0
8040
9140
40C0
1E00
1200
0800
ENDCHAR
STARTCHAR E327
ENCODING 58151
SWIDTH 583 0
DWIDTH 7 0
BBX 11 11 0 -2
BITMAP
0180
0E80
3240
2160
40C0
8040
8040
44C0
1200
1600
0400
ENDCHAR
STARTCHAR E328
ENCODING 58152
SWIDTH 583 0
DWIDTH 7 0
BBX 11 10 0 -1
BITMAP
0180
0E80
3240
2160
44C0
9440
9040
44C0
0E00
0400
ENDCHAR
STARTCHAR E329
ENCODING 58153
SWIDTH 583 0
DWIDTH 7 0
BBX 11 11 0 -2
BITMAP
0180
0E80
3240
2160
40C0
8040
B140
70C0
3600
6200
2800
ENDCHAR
STARTCHAR E32A
ENCODING 58154
SWIDTH 583 0
DWIDTH 7 0
BBX 11 11 0 -2
BITMAP
0180
0E80
3240
2160
40C0
8040
B540
76C0
3A00
6A00
2800
ENDCHAR
STARTCHAR E32B
ENCODING 58155
SWIDTH 583 0
DWIDTH 7 0
BBX 7 7 0 1
BITMAP
10
70
88
86
82
42
7C
ENDCHAR
STARTCHAR E32C
ENCODING 58156
SWIDTH 583 0
DWIDTH 7 0
BBX 12 9 0 -1
BITMAP
07E0
0910
1090
2460
4220
FE20
0060
FF80
3000
ENDCHAR
STARTCHAR E32D
ENCODING 58157
SWIDTH 583 0
DWIDTH 7 0
BBX 12 9 0 -1
BITMAP
03E0
0C90
0890
3070
0010
7E10
0020
FFC0
3F00
ENDCHAR
STARTCHAR E32E
ENCODING 58158
SWIDTH 583 0
DWIDTH 7 0
BBX 10 7 0 1
BITMAP
0FC0
3240
2140
40C0
8040
8040
FFC0
ENDCHAR
ENDFONT
